<?xml version="1.0" encoding="UTF-8"?>
<svg xmlns="http://www.w3.org/2000/svg" version="1.1" viewBox="0 0 147.318 128.712">
  <defs>
    <style>
      .cls-1 {
        fill: #e7cec2;
      }

      .cls-2 {
        fill: #fff6ee;
      }
    </style>
  </defs>
  <!-- Generator: Adobe Illustrator 28.7.2, SVG Export Plug-In . SVG Version: 1.2.0 Build 154)  -->
  <g>
    <g id="Layer_2">
      <g>
        <g>
          <path class="cls-2" d="M92.746,45.273c.6-1.75.9-3.59.9-5.48,0-7.52-4.82-14.09-11.99-16.33-.47-.15-.85-.52-1-1-1.06-3.4-3.23-6.45-6.1-8.6-2.97-2.22-6.51-3.39-10.23-3.39-3.77,0-7.35,1.21-10.34,3.48-2.9,2.2-5.06,5.33-6.09,8.8-.12.41-.4.75-.78.94-.38.19-.82.21-1.22.06-1.89-.72-3.9-1.08-5.97-1.08-7.52,0-14.08,4.82-16.33,11.99-.15.48-.52.85-1,1-7.17,2.24-11.99,8.81-11.99,16.33,0,3.71,1.18,7.25,3.39,10.22,2.14,2.87,5.2,5.04,8.6,6.1.47.15.84.52.99,1,1.07,3.4,3.24,6.46,6.11,8.61,2.97,2.22,6.51,3.39,10.23,3.39,4.13,0,8.11-1.49,11.2-4.19.29-.25.65-.38,1-.38.36,0,.71.13,1,.38.4.35.81.68,1.24.98.25-.39.51-.78.79-1.15,2.39-3.2,5.62-5.54,9.38-6.81,1.26-3.76,3.61-6.99,6.81-9.37,3.38-2.53,7.41-3.86,11.64-3.86,2.05,0,4.05.31,5.97.93.96-2.77,2.55-5.31,4.62-7.38-.12-1.35-.39-2.67-.83-3.96-.13-.4-.13-.83,0-1.23ZM135.806,81.873c.6-1.75.9-3.59.9-5.47,0-7.53-4.82-14.09-11.99-16.34-.48-.14-.85-.52-1-.99-1.06-3.41-3.23-6.46-6.1-8.61-2.97-2.21-6.51-3.38-10.23-3.38-3.77,0-7.35,1.2-10.34,3.47-.36.27-.71.56-1.04.87-.01-.5-.05-.99-.1-1.48-.05-.46-.11-.91-.19-1.35-.04.03-.07.05-.11.08-.33.25-.64.5-.95.77-.37.32-.73.66-1.08,1.02.05.51.07,1.02.07,1.53v.12c-.01.7-.05,1.39-.14,2.07-1.13,1.57-2,3.32-2.55,5.17-.12.41-.4.75-.78.94-.38.19-.82.21-1.22.06-1.89-.71-3.9-1.07-5.97-1.07-7.52,0-14.08,4.82-16.33,11.99-.15.47-.52.85-1,.99-3.95,1.24-7.19,3.79-9.29,7.08-.21.33-.41.67-.6,1.02-.19.34-.37.69-.53,1.05-1.01,2.2-1.57,4.64-1.57,7.19,0,3.71,1.18,7.24,3.39,10.21,2.14,2.87,5.2,5.04,8.59,6.11.48.15.85.52,1,.99,1.07,3.41,3.24,6.47,6.11,8.61,2.97,2.22,6.51,3.4,10.23,3.4,4.13,0,8.1-1.49,11.2-4.19.29-.26.65-.38,1-.38.36,0,.71.12,1,.37,3.11,2.71,7.09,4.19,11.2,4.19,3.72,0,7.26-1.17,10.23-3.39,2.88-2.15,5.05-5.2,6.11-8.61.15-.47.53-.84,1-.99,3.4-1.07,6.45-3.24,8.59-6.11,2.22-2.97,3.39-6.5,3.39-10.21,0-1.88-.3-3.73-.9-5.49-.13-.41-.13-.83,0-1.24ZM135.806,81.873c.6-1.75.9-3.59.9-5.47,0-7.53-4.82-14.09-11.99-16.34-.48-.14-.85-.52-1-.99-1.06-3.41-3.23-6.46-6.1-8.61-2.97-2.21-6.51-3.38-10.23-3.38-3.77,0-7.35,1.2-10.34,3.47-.36.27-.71.56-1.04.87-.01-.5-.05-.99-.1-1.48-.05-.46-.11-.91-.19-1.35-.04.03-.07.05-.11.08-.33.25-.64.5-.95.77-.37.32-.73.66-1.08,1.02.05.51.07,1.02.07,1.53v.12c-.01.7-.05,1.39-.14,2.07-1.13,1.57-2,3.32-2.55,5.17-.12.41-.4.75-.78.94-.38.19-.82.21-1.22.06-1.89-.71-3.9-1.07-5.97-1.07-7.52,0-14.08,4.82-16.33,11.99-.15.47-.52.85-1,.99-3.95,1.24-7.19,3.79-9.29,7.08-.21.33-.41.67-.6,1.02-.19.34-.37.69-.53,1.05-1.01,2.2-1.57,4.64-1.57,7.19,0,3.71,1.18,7.24,3.39,10.21,2.14,2.87,5.2,5.04,8.59,6.11.48.15.85.52,1,.99,1.07,3.41,3.24,6.47,6.11,8.61,2.97,2.22,6.51,3.4,10.23,3.4,4.13,0,8.1-1.49,11.2-4.19.29-.26.65-.38,1-.38.36,0,.71.12,1,.37,3.11,2.71,7.09,4.19,11.2,4.19,3.72,0,7.26-1.17,10.23-3.39,2.88-2.15,5.05-5.2,6.11-8.61.15-.47.53-.84,1-.99,3.4-1.07,6.45-3.24,8.59-6.11,2.22-2.97,3.39-6.5,3.39-10.21,0-1.88-.3-3.73-.9-5.49-.13-.41-.13-.83,0-1.24ZM92.746,45.273c.6-1.75.9-3.59.9-5.48,0-7.52-4.82-14.09-11.99-16.33-.47-.15-.85-.52-1-1-1.06-3.4-3.23-6.45-6.1-8.6-2.97-2.22-6.51-3.39-10.23-3.39-3.77,0-7.35,1.21-10.34,3.48-2.9,2.2-5.06,5.33-6.09,8.8-.12.41-.4.75-.78.94-.38.19-.82.21-1.22.06-1.89-.72-3.9-1.08-5.97-1.08-7.52,0-14.08,4.82-16.33,11.99-.15.48-.52.85-1,1-7.17,2.24-11.99,8.81-11.99,16.33,0,3.71,1.18,7.25,3.39,10.22,2.14,2.87,5.2,5.04,8.6,6.1.47.15.84.52.99,1,1.07,3.4,3.24,6.46,6.11,8.61,2.97,2.22,6.51,3.39,10.23,3.39,4.13,0,8.11-1.49,11.2-4.19.29-.25.65-.38,1-.38.36,0,.71.13,1,.38.4.35.81.68,1.24.98.25-.39.51-.78.79-1.15,2.39-3.2,5.62-5.54,9.38-6.81,1.26-3.76,3.61-6.99,6.81-9.37,3.38-2.53,7.41-3.86,11.64-3.86,2.05,0,4.05.31,5.97.93.96-2.77,2.55-5.31,4.62-7.38-.12-1.35-.39-2.67-.83-3.96-.13-.4-.13-.83,0-1.23ZM144.276,82.413c.45-1.89.67-3.86.67-5.83,0-9.79-5.45-18.52-14.22-22.78-.23-.12-.43-.31-.54-.55-4.26-8.78-12.99-14.23-22.8-14.23-1.4,0-2.8.11-4.17.34-.33.06-.67-.03-.93-.24-.27-.21-.43-.52-.45-.85-.29-4.48-1.75-8.81-4.24-12.51-2.48-3.68-5.91-6.66-9.92-8.61-.24-.12-.44-.31-.55-.55-4.26-8.78-12.99-14.23-22.8-14.23-8.54,0-16.73,4.49-21.38,11.73-.23.37-.65.57-1.08.54-.65-.05-1.3-.07-1.94-.07-9.79,0-18.53,5.45-22.78,14.22-.12.24-.31.43-.55.55-8.78,4.25-14.23,12.98-14.23,22.79s5.45,18.5,14.21,22.77c.24.11.43.31.55.55,2.06,4.26,5.27,7.85,9.27,10.36,4.04,2.54,8.72,3.88,13.53,3.88,1.4,0,2.8-.12,4.18-.35.33-.05.67.04.93.24.26.21.42.52.45.86.28,4.48,1.75,8.8,4.23,12.5,2.48,3.68,5.91,6.66,9.92,8.61.24.12.43.31.55.55,2.06,4.26,5.27,7.85,9.27,10.36,4.04,2.54,8.72,3.88,13.53,3.88,4.04,0,8.07-.98,11.66-2.85.17-.08.35-.13.54-.13s.38.05.55.13c3.58,1.87,7.61,2.85,11.65,2.85,4.82,0,9.5-1.34,13.54-3.88,4-2.51,7.2-6.09,9.27-10.35.11-.24.31-.44.54-.55,8.77-4.26,14.21-12.99,14.21-22.78,0-1.97-.22-3.93-.67-5.83-.04-.18-.04-.36,0-.54ZM139.076,88.603c0,4.22-1.33,8.25-3.86,11.63-2.35,3.15-5.66,5.55-9.36,6.81-1.26,3.71-3.67,7.03-6.82,9.38-3.39,2.53-7.42,3.87-11.65,3.87-4.44,0-8.75-1.53-12.2-4.31-3.44,2.78-7.74,4.31-12.2,4.31-4.23,0-8.26-1.34-11.65-3.87-3.15-2.35-5.56-5.67-6.81-9.38-3.71-1.25-7.02-3.66-9.37-6.81-2.52-3.38-3.86-7.41-3.86-11.63,0-2.96.65-5.82,1.91-8.43-.37-.25-.73-.52-1.08-.8-3.44,2.79-7.74,4.31-12.2,4.31-4.23,0-8.26-1.34-11.65-3.86-3.15-2.36-5.56-5.67-6.81-9.38-3.71-1.26-7.02-3.67-9.37-6.82-2.52-3.38-3.86-7.4-3.86-11.63s1.34-8.26,3.86-11.64c2.39-3.2,5.62-5.55,9.38-6.81,1.26-3.76,3.61-6.99,6.81-9.38,3.38-2.52,7.41-3.86,11.64-3.86,2.05,0,4.06.32,5.97.94,1.25-3.62,3.59-6.85,6.65-9.18,3.41-2.59,7.49-3.96,11.78-3.96,4.24,0,8.26,1.34,11.64,3.86,3.16,2.35,5.56,5.67,6.82,9.38,3.75,1.26,6.99,3.61,9.37,6.81,2.53,3.38,3.86,7.41,3.86,11.64,0,2.1-.33,4.15-.97,6.1.29.88.51,1.79.67,2.7,3.39-2.54,7.43-3.88,11.67-3.88s8.26,1.33,11.64,3.86c3.16,2.35,5.56,5.66,6.82,9.37,3.75,1.27,6.99,3.61,9.37,6.81,2.53,3.38,3.86,7.41,3.86,11.65,0,2.09-.33,4.14-.97,6.09.64,1.97.97,4.02.97,6.11ZM94.656,49.443c-.37.32-.73.66-1.08,1.02.05.51.07,1.02.07,1.53v.12c-.01.7-.05,1.39-.14,2.07-1.13,1.57-2,3.32-2.55,5.17-.12.41-.4.75-.78.94-.38.19-.82.21-1.22.06-1.89-.71-3.9-1.07-5.97-1.07-7.52,0-14.08,4.82-16.33,11.99-.15.47-.52.85-1,.99-3.95,1.24-7.19,3.79-9.29,7.08-.21.33-.41.67-.6,1.02-.19.34-.37.69-.53,1.05-1.01,2.2-1.57,4.64-1.57,7.19,0,3.71,1.18,7.24,3.39,10.21,2.14,2.87,5.2,5.04,8.59,6.11.48.15.85.52,1,.99,1.07,3.41,3.24,6.47,6.11,8.61,2.97,2.22,6.51,3.4,10.23,3.4,4.13,0,8.1-1.49,11.2-4.19.29-.26.65-.38,1-.38.36,0,.71.12,1,.37,3.11,2.71,7.09,4.19,11.2,4.19,3.72,0,7.26-1.17,10.23-3.39,2.88-2.15,5.05-5.2,6.11-8.61.15-.47.53-.84,1-.99,3.4-1.07,6.45-3.24,8.59-6.11,2.22-2.97,3.39-6.5,3.39-10.21,0-1.88-.3-3.73-.9-5.49-.13-.41-.13-.83,0-1.24.6-1.75.9-3.59.9-5.47,0-7.53-4.82-14.09-11.99-16.34-.48-.14-.85-.52-1-.99-1.06-3.41-3.23-6.46-6.1-8.61-2.97-2.21-6.51-3.38-10.23-3.38-3.77,0-7.35,1.2-10.34,3.47-.36.27-.71.56-1.04.87-.01-.5-.05-.99-.1-1.48-.05-.46-.11-.91-.19-1.35-.04.03-.07.05-.11.08-.33.25-.64.5-.95.77ZM92.746,45.273c.6-1.75.9-3.59.9-5.48,0-7.52-4.82-14.09-11.99-16.33-.47-.15-.85-.52-1-1-1.06-3.4-3.23-6.45-6.1-8.6-2.97-2.22-6.51-3.39-10.23-3.39-3.77,0-7.35,1.21-10.34,3.48-2.9,2.2-5.06,5.33-6.09,8.8-.12.41-.4.75-.78.94-.38.19-.82.21-1.22.06-1.89-.72-3.9-1.08-5.97-1.08-7.52,0-14.08,4.82-16.33,11.99-.15.48-.52.85-1,1-7.17,2.24-11.99,8.81-11.99,16.33,0,3.71,1.18,7.25,3.39,10.22,2.14,2.87,5.2,5.04,8.6,6.1.47.15.84.52.99,1,1.07,3.4,3.24,6.46,6.11,8.61,2.97,2.22,6.51,3.39,10.23,3.39,4.13,0,8.11-1.49,11.2-4.19.29-.25.65-.38,1-.38.36,0,.71.13,1,.38.4.35.81.68,1.24.98.25-.39.51-.78.79-1.15,2.39-3.2,5.62-5.54,9.38-6.81,1.26-3.76,3.61-6.99,6.81-9.37,3.38-2.53,7.41-3.86,11.64-3.86,2.05,0,4.05.31,5.97.93.96-2.77,2.55-5.31,4.62-7.38-.12-1.35-.39-2.67-.83-3.96-.13-.4-.13-.83,0-1.23ZM92.746,45.273c.6-1.75.9-3.59.9-5.48,0-7.52-4.82-14.09-11.99-16.33-.47-.15-.85-.52-1-1-1.06-3.4-3.23-6.45-6.1-8.6-2.97-2.22-6.51-3.39-10.23-3.39-3.77,0-7.35,1.21-10.34,3.48-2.9,2.2-5.06,5.33-6.09,8.8-.12.41-.4.75-.78.94-.38.19-.82.21-1.22.06-1.89-.72-3.9-1.08-5.97-1.08-7.52,0-14.08,4.82-16.33,11.99-.15.48-.52.85-1,1-7.17,2.24-11.99,8.81-11.99,16.33,0,3.71,1.18,7.25,3.39,10.22,2.14,2.87,5.2,5.04,8.6,6.1.47.15.84.52.99,1,1.07,3.4,3.24,6.46,6.11,8.61,2.97,2.22,6.51,3.39,10.23,3.39,4.13,0,8.11-1.49,11.2-4.19.29-.25.65-.38,1-.38.36,0,.71.13,1,.38.4.35.81.68,1.24.98.25-.39.51-.78.79-1.15,2.39-3.2,5.62-5.54,9.38-6.81,1.26-3.76,3.61-6.99,6.81-9.37,3.38-2.53,7.41-3.86,11.64-3.86,2.05,0,4.05.31,5.97.93.96-2.77,2.55-5.31,4.62-7.38-.12-1.35-.39-2.67-.83-3.96-.13-.4-.13-.83,0-1.23ZM135.806,81.873c.6-1.75.9-3.59.9-5.47,0-7.53-4.82-14.09-11.99-16.34-.48-.14-.85-.52-1-.99-1.06-3.41-3.23-6.46-6.1-8.61-2.97-2.21-6.51-3.38-10.23-3.38-3.77,0-7.35,1.2-10.34,3.47-.36.27-.71.56-1.04.87-.01-.5-.05-.99-.1-1.48-.05-.46-.11-.91-.19-1.35-.04.03-.07.05-.11.08-.33.25-.64.5-.95.77-.37.32-.73.66-1.08,1.02.05.51.07,1.02.07,1.53v.12c-.01.7-.05,1.39-.14,2.07-1.13,1.57-2,3.32-2.55,5.17-.12.41-.4.75-.78.94-.38.19-.82.21-1.22.06-1.89-.71-3.9-1.07-5.97-1.07-7.52,0-14.08,4.82-16.33,11.99-.15.47-.52.85-1,.99-3.95,1.24-7.19,3.79-9.29,7.08-.21.33-.41.67-.6,1.02-.19.34-.37.69-.53,1.05-1.01,2.2-1.57,4.64-1.57,7.19,0,3.71,1.18,7.24,3.39,10.21,2.14,2.87,5.2,5.04,8.59,6.11.48.15.85.52,1,.99,1.07,3.41,3.24,6.47,6.11,8.61,2.97,2.22,6.51,3.4,10.23,3.4,4.13,0,8.1-1.49,11.2-4.19.29-.26.65-.38,1-.38.36,0,.71.12,1,.37,3.11,2.71,7.09,4.19,11.2,4.19,3.72,0,7.26-1.17,10.23-3.39,2.88-2.15,5.05-5.2,6.11-8.61.15-.47.53-.84,1-.99,3.4-1.07,6.45-3.24,8.59-6.11,2.22-2.97,3.39-6.5,3.39-10.21,0-1.88-.3-3.73-.9-5.49-.13-.41-.13-.83,0-1.24ZM135.806,81.873c.6-1.75.9-3.59.9-5.47,0-7.53-4.82-14.09-11.99-16.34-.48-.14-.85-.52-1-.99-1.06-3.41-3.23-6.46-6.1-8.61-2.97-2.21-6.51-3.38-10.23-3.38-3.77,0-7.35,1.2-10.34,3.47-.36.27-.71.56-1.04.87-.01-.5-.05-.99-.1-1.48-.05-.46-.11-.91-.19-1.35-.04.03-.07.05-.11.08-.33.25-.64.5-.95.77-.37.32-.73.66-1.08,1.02.05.51.07,1.02.07,1.53v.12c-.01.7-.05,1.39-.14,2.07-1.13,1.57-2,3.32-2.55,5.17-.12.41-.4.75-.78.94-.38.19-.82.21-1.22.06-1.89-.71-3.9-1.07-5.97-1.07-7.52,0-14.08,4.82-16.33,11.99-.15.47-.52.85-1,.99-3.95,1.24-7.19,3.79-9.29,7.08-.21.33-.41.67-.6,1.02-.19.34-.37.69-.53,1.05-1.01,2.2-1.57,4.64-1.57,7.19,0,3.71,1.18,7.24,3.39,10.21,2.14,2.87,5.2,5.04,8.59,6.11.48.15.85.52,1,.99,1.07,3.41,3.24,6.47,6.11,8.61,2.97,2.22,6.51,3.4,10.23,3.4,4.13,0,8.1-1.49,11.2-4.19.29-.26.65-.38,1-.38.36,0,.71.12,1,.37,3.11,2.71,7.09,4.19,11.2,4.19,3.72,0,7.26-1.17,10.23-3.39,2.88-2.15,5.05-5.2,6.11-8.61.15-.47.53-.84,1-.99,3.4-1.07,6.45-3.24,8.59-6.11,2.22-2.97,3.39-6.5,3.39-10.21,0-1.88-.3-3.73-.9-5.49-.13-.41-.13-.83,0-1.24ZM92.746,45.273c.6-1.75.9-3.59.9-5.48,0-7.52-4.82-14.09-11.99-16.33-.47-.15-.85-.52-1-1-1.06-3.4-3.23-6.45-6.1-8.6-2.97-2.22-6.51-3.39-10.23-3.39-3.77,0-7.35,1.21-10.34,3.48-2.9,2.2-5.06,5.33-6.09,8.8-.12.41-.4.75-.78.94-.38.19-.82.21-1.22.06-1.89-.72-3.9-1.08-5.97-1.08-7.52,0-14.08,4.82-16.33,11.99-.15.48-.52.85-1,1-7.17,2.24-11.99,8.81-11.99,16.33,0,3.71,1.18,7.25,3.39,10.22,2.14,2.87,5.2,5.04,8.6,6.1.47.15.84.52.99,1,1.07,3.4,3.24,6.46,6.11,8.61,2.97,2.22,6.51,3.39,10.23,3.39,4.13,0,8.11-1.49,11.2-4.19.29-.25.65-.38,1-.38.36,0,.71.13,1,.38.4.35.81.68,1.24.98.25-.39.51-.78.79-1.15,2.39-3.2,5.62-5.54,9.38-6.81,1.26-3.76,3.61-6.99,6.81-9.37,3.38-2.53,7.41-3.86,11.64-3.86,2.05,0,4.05.31,5.97.93.96-2.77,2.55-5.31,4.62-7.38-.12-1.35-.39-2.67-.83-3.96-.13-.4-.13-.83,0-1.23Z"/>
          <path d="M147.316,76.583c0-10.56-5.81-20-15.18-24.73-2.27-4.5-5.7-8.29-9.96-10.96-4.41-2.78-9.53-4.24-14.79-4.24-1.1,0-2.2.06-3.3.19-.49-4.44-2.04-8.7-4.52-12.4-2.64-3.92-6.26-7.11-10.49-9.24-2.27-4.51-5.7-8.29-9.96-10.97C74.706,1.463,69.586.003,64.326.003,59.676.003,55.036,1.203,50.926,3.483c-3.83,2.13-7.14,5.15-9.59,8.75-.47-.02-.94-.03-1.41-.03-5.26,0-10.36,1.46-14.77,4.23-4.26,2.67-7.7,6.46-9.96,10.96-4.5,2.26-8.29,5.7-10.96,9.95C1.466,41.753-.004,46.873-.004,52.133-.004,62.683,5.806,72.113,15.166,76.853c2.27,4.5,5.71,8.29,9.97,10.97,4.41,2.77,9.53,4.24,14.79,4.24,1.1,0,2.21-.07,3.3-.2.49,4.44,2.04,8.71,4.53,12.4,2.63,3.92,6.25,7.1,10.48,9.24,2.26,4.5,5.7,8.29,9.96,10.97,4.41,2.77,9.53,4.24,14.79,4.24,4.22,0,8.42-.98,12.2-2.84,3.78,1.86,7.99,2.84,12.2,2.84,5.27,0,10.38-1.47,14.8-4.24,4.26-2.68,7.7-6.46,9.96-10.96,4.49-2.27,8.27-5.7,10.94-9.96,2.77-4.41,4.23-9.52,4.23-14.77,0-2.06-.22-4.11-.67-6.1.45-1.99.67-4.04.67-6.1ZM144.276,82.953c.45,1.9.67,3.86.67,5.83,0,9.79-5.44,18.52-14.21,22.78-.23.11-.43.31-.54.55-2.07,4.26-5.27,7.84-9.27,10.35-4.04,2.54-8.72,3.88-13.54,3.88-4.04,0-8.07-.98-11.65-2.85-.17-.08-.36-.13-.55-.13s-.37.05-.54.13c-3.59,1.87-7.62,2.85-11.66,2.85-4.81,0-9.49-1.34-13.53-3.88-4-2.51-7.21-6.1-9.27-10.36-.12-.24-.31-.43-.55-.55-4.01-1.95-7.44-4.93-9.92-8.61-2.48-3.7-3.95-8.02-4.23-12.5-.03-.34-.19-.65-.45-.86-.26-.2-.6-.29-.93-.24-1.38.23-2.78.35-4.18.35-4.81,0-9.49-1.34-13.53-3.88-4-2.51-7.21-6.1-9.27-10.36-.12-.24-.31-.44-.55-.55-8.76-4.27-14.21-13-14.21-22.77s5.45-18.54,14.23-22.79c.24-.12.43-.31.55-.55,4.25-8.77,12.99-14.22,22.78-14.22.64,0,1.29.02,1.94.07.43.03.85-.17,1.08-.54,4.65-7.24,12.84-11.73,21.38-11.73,9.81,0,18.54,5.45,22.8,14.23.11.24.31.43.55.55,4.01,1.95,7.44,4.93,9.92,8.61,2.49,3.7,3.95,8.03,4.24,12.51.02.33.18.64.45.85.26.21.6.3.93.24,1.37-.23,2.77-.34,4.17-.34,9.81,0,18.54,5.45,22.8,14.23.11.24.31.43.54.55,8.77,4.26,14.22,12.99,14.22,22.78,0,1.97-.22,3.94-.67,5.83-.04.18-.04.36,0,.54Z"/>
        </g>
        <g>
          <g>
            <path class="cls-1" d="M92.746,46.503c.44,1.29.71,2.61.83,3.96-2.07,2.07-3.66,4.61-4.62,7.38-1.92-.62-3.92-.93-5.97-.93-4.23,0-8.26,1.33-11.64,3.86-3.2,2.38-5.55,5.61-6.81,9.37-3.76,1.27-6.99,3.61-9.38,6.81-.28.37-.54.76-.79,1.15-.43-.3-.84-.63-1.24-.98-.29-.25-.64-.38-1-.38-.35,0-.71.13-1,.38-3.09,2.7-7.07,4.19-11.2,4.19-3.72,0-7.26-1.17-10.23-3.39-2.87-2.15-5.04-5.21-6.11-8.61-.15-.48-.52-.85-.99-1-3.4-1.06-6.46-3.23-8.6-6.1-2.21-2.97-3.39-6.51-3.39-10.22,0-7.52,4.82-14.09,11.99-16.33.48-.15.85-.52,1-1,2.25-7.17,8.81-11.99,16.33-11.99,2.07,0,4.08.36,5.97,1.08.4.15.84.13,1.22-.06.38-.19.66-.53.78-.94,1.03-3.47,3.19-6.6,6.09-8.8,2.99-2.27,6.57-3.48,10.34-3.48,3.72,0,7.26,1.17,10.23,3.39,2.87,2.15,5.04,5.2,6.1,8.6.15.48.53.85,1,1,7.17,2.24,11.99,8.81,11.99,16.33,0,1.89-.3,3.73-.9,5.48-.13.4-.13.83,0,1.23Z"/>
            <path class="cls-1" d="M94.836,51.993c0,.2,0,.39-.02.58-.24,7.94-5.55,14.61-12.79,16.87-.11.04-.19.12-.22.22-.1.31-.2.61-.31.91-.29.78-.64,1.53-1.03,2.26-.64,1.2-1.41,2.32-2.31,3.34-.44.52-.92,1.01-1.42,1.48,0,0-.01,0-.01.01-3.26,3-7.61,4.84-12.4,4.84-3.09,0-6-.77-8.56-2.14.19-.35.39-.69.6-1.02,2.1-3.29,5.34-5.84,9.29-7.08.48-.14.85-.52,1-.99,2.25-7.17,8.81-11.99,16.33-11.99,2.07,0,4.08.36,5.97,1.07.4.15.84.13,1.22-.06.38-.19.66-.53.78-.94.55-1.85,1.42-3.6,2.55-5.17.09-.68.13-1.37.14-2.07v-.12c0-.51-.02-1.02-.07-1.53.35-.36.71-.7,1.08-1.02.07.48.12.97.14,1.47v.01c.03.36.04.71.04,1.07Z"/>
            <path d="M96.006,51.423c-.01-.5-.05-.99-.1-1.48-.05-.46-.11-.91-.19-1.35-.04.03-.07.05-.11.08-.33.25-.64.5-.95.77-.37.32-.73.66-1.08,1.02.05.51.07,1.02.07,1.53v.12c-.01.7-.05,1.39-.14,2.07-.37,2.91-1.47,5.65-3.24,8.03-2.15,2.87-5.2,5.04-8.6,6.1-.47.15-.85.52-1,1-.12.39-.26.77-.41,1.15-.33.83-.72,1.64-1.19,2.42v.01c-1.16,1.95-2.69,3.67-4.51,5.03-2.97,2.22-6.51,3.39-10.23,3.39-2.79,0-5.52-.69-7.96-1.97-.21.33-.41.67-.6,1.02-.19.34-.37.69-.53,1.05,2.78,1.49,5.9,2.27,9.09,2.27,4.21,0,8.21-1.31,11.58-3.81.02-.02.05-.03.07-.05,1.65-1.24,3.1-2.74,4.29-4.43v-.01c.53-.75,1.01-1.53,1.42-2.35.37-.71.7-1.45.97-2.2.05-.13.1-.26.14-.39,3.7-1.26,7.01-3.67,9.37-6.82,2.52-3.38,3.85-7.4,3.85-11.63,0-.19,0-.38-.01-.57Z"/>
          </g>
          <g>
            <path d="M67.837,49.302c-1.658,0-3.292-.441-4.759-1.303-2.171-1.276-3.715-3.32-4.348-5.757-.523-2.011-.231-4.105.822-5.896,1.053-1.791,2.74-3.065,4.75-3.588,3.449-.896,6.981,1.181,7.876,4.628.749,2.884-.988,5.84-3.872,6.59-2.408.627-4.903-.835-5.558-3.256-.301-1.113-.153-2.254.406-3.131.485-.761,1.256-1.267,2.171-1.425,1.36-.235,3.041.361,3.525,2.224.165.633-.216,1.28-.849,1.445-.632.165-1.28-.216-1.445-.849-.136-.522-.576-.528-.827-.484-.264.046-.447.161-.576.364-.195.306-.24.781-.117,1.237.317,1.172,1.515,1.881,2.674,1.581.784-.204,1.443-.701,1.853-1.4.411-.699.524-1.516.321-2.3-.567-2.183-2.805-3.497-4.986-2.93-1.398.363-2.571,1.249-3.303,2.495-.732,1.245-.935,2.701-.571,4.099.474,1.824,1.63,3.355,3.255,4.31,1.625.955,3.525,1.22,5.349.746.632-.164,1.28.215,1.445.849.165.633-.216,1.28-.849,1.445-.79.205-1.591.307-2.386.307Z"/>
            <path d="M37.3,49.251c-1.718,0-3.446-.565-4.883-1.727-1.342-1.085-2.181-2.627-2.362-4.343-.182-1.716.316-3.4,1.401-4.741,1.874-2.317,5.283-2.678,7.601-.804,1.936,1.565,2.244,4.439.686,6.405-.716.904-1.721,1.463-2.759,1.535-.902.062-1.765-.257-2.436-.899-.996-.952-1.518-2.66-.308-4.157.412-.509,1.158-.588,1.667-.176.509.411.588,1.158.176,1.667-.34.42-.082.777.102.953.194.185.394.264.635.247.362-.025.77-.271,1.064-.642.754-.952.611-2.338-.319-3.09-.63-.51-1.423-.744-2.227-.658-.806.085-1.531.479-2.04,1.11-.687.849-1.002,1.915-.887,3.002.115,1.086.646,2.063,1.496,2.75,2.319,1.875,5.731,1.514,7.606-.805,2.446-3.026,1.975-7.477-1.05-9.924-.509-.411-.588-1.158-.176-1.667.411-.509,1.158-.588,1.667-.176,4.042,3.268,4.671,9.215,1.403,13.257-1.535,1.898-3.786,2.884-6.056,2.884Z"/>
            <path d="M57.307,65.864h0c-1.265,0-2.391-.676-3.385-1.273-.74-.445-1.506-.904-2.055-.904h0c-.549,0-1.315.459-2.055.904-.994.596-2.12,1.272-3.385,1.272s-2.391-.676-3.385-1.272c-.74-.444-1.506-.903-2.055-.903h0c-.714,0-1.292-.578-1.293-1.292,0-.714.578-1.293,1.292-1.293h.002c1.264,0,2.391.676,3.385,1.272.741.444,1.507.903,2.055.903.549,0,1.315-.459,2.055-.904.994-.596,2.121-1.272,3.385-1.272h0c1.265,0,2.391.676,3.385,1.273.741.445,1.506.904,2.055.904h0c.549,0,1.315-.459,2.055-.904.994-.596,2.12-1.272,3.385-1.272,1.264,0,2.391.675,3.385,1.271.741.444,1.507.903,2.055.903h.001c.714,0,1.292.578,1.293,1.292,0,.714-.578,1.293-1.292,1.293h-.002c-1.264,0-2.391-.675-3.384-1.271-.741-.444-1.507-.903-2.055-.903-.549,0-1.315.46-2.055.904-.994.596-2.12,1.272-3.385,1.272Z"/>
          </g>
        </g>
        <g>
          <g>
            <path class="cls-1" d="M135.806,83.113c.6,1.76.9,3.61.9,5.49,0,3.71-1.17,7.24-3.39,10.21-2.14,2.87-5.19,5.04-8.59,6.11-.47.15-.85.52-1,.99-1.06,3.41-3.23,6.46-6.11,8.61-2.97,2.22-6.51,3.39-10.23,3.39-4.11,0-8.09-1.48-11.2-4.19-.29-.25-.64-.37-1-.37-.35,0-.71.12-1,.38-3.1,2.7-7.07,4.19-11.2,4.19-3.72,0-7.26-1.18-10.23-3.4-2.87-2.14-5.04-5.2-6.11-8.61-.15-.47-.52-.84-1-.99-3.39-1.07-6.45-3.24-8.59-6.11-2.21-2.97-3.39-6.5-3.39-10.21,0-2.55.56-4.99,1.57-7.19.16-.36.34-.71.53-1.05.19-.35.39-.69.6-1.02,2.1-3.29,5.34-5.84,9.29-7.08.48-.14.85-.52,1-.99,2.25-7.17,8.81-11.99,16.33-11.99,2.07,0,4.08.36,5.97,1.07.4.15.84.13,1.22-.06.38-.19.66-.53.78-.94.55-1.85,1.42-3.6,2.55-5.17.09-.68.13-1.37.14-2.07.36-.42.74-.82,1.15-1.19v-.01c.35-.34.73-.66,1.11-.97.05.49.09.98.1,1.48.33-.31.68-.6,1.04-.87,2.99-2.27,6.57-3.47,10.34-3.47,3.72,0,7.26,1.17,10.23,3.38,2.87,2.15,5.04,5.2,6.1,8.61.15.47.52.85,1,.99,7.17,2.25,11.99,8.81,11.99,16.34,0,1.88-.3,3.72-.9,5.47-.13.41-.13.83,0,1.24Z"/>
            <path d="M95.906,49.943c-.05-.46-.11-.91-.19-1.35-.04.03-.07.05-.11.08-.33.25-.64.5-.95.77-.37.32-.73.66-1.08,1.02.05.51.07,1.02.07,1.53v.12c-.01.7-.05,1.39-.14,2.07.41-.56.85-1.1,1.31-1.61.38-.4.78-.79,1.19-1.15-.01-.5-.05-.99-.1-1.48Z"/>
            <path d="M138.106,82.493c.64,1.97.97,4.02.97,6.11,0,4.22-1.33,8.25-3.86,11.63-2.35,3.15-5.66,5.55-9.36,6.81-1.26,3.71-3.67,7.03-6.82,9.38-3.39,2.53-7.42,3.87-11.65,3.87-4.44,0-8.75-1.53-12.2-4.31-3.44,2.78-7.74,4.31-12.2,4.31-4.23,0-8.26-1.34-11.65-3.87-3.15-2.35-5.56-5.67-6.81-9.38-3.71-1.25-7.02-3.66-9.37-6.81-2.52-3.38-3.86-7.41-3.86-11.63,0-2.96.65-5.82,1.91-8.43-.37-.25-.73-.52-1.08-.8-3.44,2.79-7.74,4.31-12.2,4.31-4.23,0-8.26-1.34-11.65-3.86-3.15-2.36-5.56-5.67-6.81-9.38-3.71-1.26-7.02-3.67-9.37-6.82-2.52-3.38-3.86-7.4-3.86-11.63s1.34-8.26,3.86-11.64c2.39-3.2,5.62-5.55,9.38-6.81,1.26-3.76,3.61-6.99,6.81-9.38,3.38-2.52,7.41-3.86,11.64-3.86,2.05,0,4.06.32,5.97.94,1.25-3.62,3.59-6.85,6.65-9.18,3.41-2.59,7.49-3.96,11.78-3.96,4.24,0,8.26,1.34,11.64,3.86,3.16,2.35,5.56,5.67,6.82,9.38,3.75,1.26,6.99,3.61,9.37,6.81,2.53,3.38,3.86,7.41,3.86,11.64,0,2.1-.33,4.15-.97,6.1.29.88.51,1.79.67,2.7-.04.03-.07.05-.11.08-.33.25-.64.5-.95.77-.37.32-.73.66-1.08,1.02-.12-1.35-.39-2.67-.83-3.96-.13-.4-.13-.83,0-1.23.6-1.75.9-3.59.9-5.48,0-7.52-4.82-14.09-11.99-16.33-.47-.15-.85-.52-1-1-1.06-3.4-3.23-6.45-6.1-8.6-2.97-2.22-6.51-3.39-10.23-3.39-3.77,0-7.35,1.21-10.34,3.48-2.9,2.2-5.06,5.33-6.09,8.8-.12.41-.4.75-.78.94-.38.19-.82.21-1.22.06-1.89-.72-3.9-1.08-5.97-1.08-7.52,0-14.08,4.82-16.33,11.99-.15.48-.52.85-1,1-7.17,2.24-11.99,8.81-11.99,16.33,0,3.71,1.18,7.25,3.39,10.22,2.14,2.87,5.2,5.04,8.6,6.1.47.15.84.52.99,1,1.07,3.4,3.24,6.46,6.11,8.61,2.97,2.22,6.51,3.39,10.23,3.39,4.13,0,8.11-1.49,11.2-4.19.29-.25.65-.38,1-.38.36,0,.71.13,1,.38.4.35.81.68,1.24.98.25-.39.51-.78.79-1.15,2.39-3.2,5.62-5.54,9.38-6.81,1.26-3.76,3.61-6.99,6.81-9.37,3.38-2.53,7.41-3.86,11.64-3.86,2.05,0,4.05.31,5.97.93.96-2.77,2.55-5.31,4.62-7.38.05.51.07,1.02.07,1.53v.12c-.01.7-.05,1.39-.14,2.07-1.13,1.57-2,3.32-2.55,5.17-.12.41-.4.75-.78.94-.38.19-.82.21-1.22.06-1.89-.71-3.9-1.07-5.97-1.07-7.52,0-14.08,4.82-16.33,11.99-.15.47-.52.85-1,.99-3.95,1.24-7.19,3.79-9.29,7.08-.21.33-.41.67-.6,1.02-.19.34-.37.69-.53,1.05-1.01,2.2-1.57,4.64-1.57,7.19,0,3.71,1.18,7.24,3.39,10.21,2.14,2.87,5.2,5.04,8.59,6.11.48.15.85.52,1,.99,1.07,3.41,3.24,6.47,6.11,8.61,2.97,2.22,6.51,3.4,10.23,3.4,4.13,0,8.1-1.49,11.2-4.19.29-.26.65-.38,1-.38.36,0,.71.12,1,.37,3.11,2.71,7.09,4.19,11.2,4.19,3.72,0,7.26-1.17,10.23-3.39,2.88-2.15,5.05-5.2,6.11-8.61.15-.47.53-.84,1-.99,3.4-1.07,6.45-3.24,8.59-6.11,2.22-2.97,3.39-6.5,3.39-10.21,0-1.88-.3-3.73-.9-5.49-.13-.41-.13-.83,0-1.24.6-1.75.9-3.59.9-5.47,0-7.53-4.82-14.09-11.99-16.34-.48-.14-.85-.52-1-.99-1.06-3.41-3.23-6.46-6.1-8.61-2.97-2.21-6.51-3.38-10.23-3.38-3.77,0-7.35,1.2-10.34,3.47-.36.27-.71.56-1.04.87-.01-.5-.05-.99-.1-1.48-.05-.46-.11-.91-.19-1.35,3.39-2.54,7.43-3.88,11.67-3.88s8.26,1.33,11.64,3.86c3.16,2.35,5.56,5.66,6.82,9.37,3.75,1.27,6.99,3.61,9.37,6.81,2.53,3.38,3.86,7.41,3.86,11.65,0,2.09-.33,4.14-.97,6.09Z"/>
          </g>
          <g>
            <path d="M104.968,85.745c-.321,0-.641-.13-.875-.386-1.699-1.859-2.572-4.268-2.458-6.783s1.199-4.836,3.058-6.534c1.534-1.402,3.522-2.123,5.597-2.028,2.076.093,3.99.99,5.392,2.523,2.403,2.629,2.218,6.723-.411,9.126-2.2,2.011-5.625,1.856-7.635-.344-1.68-1.838-1.553-4.725.281-6.435.843-.786,1.92-1.188,2.958-1.104.899.073,1.707.519,2.274,1.253.842,1.091,1.102,2.857-.319,4.156-.483.442-1.233.408-1.674-.075-.442-.483-.408-1.233.075-1.674.398-.364.197-.756.042-.958-.164-.212-.352-.32-.591-.34-.364-.03-.802.153-1.149.475-.888.828-.955,2.22-.148,3.103,1.129,1.235,3.052,1.322,4.287.193,1.665-1.521,1.781-4.113.26-5.777-.974-1.066-2.306-1.689-3.749-1.754-1.446-.065-2.825.436-3.892,1.41-1.391,1.271-2.204,3.009-2.289,4.891-.085,1.883.569,3.686,1.84,5.077.442.483.408,1.233-.075,1.674-.227.208-.514.31-.799.31Z"/>
            <path d="M82.129,86.433c-2.003,0-3.979-.926-5.24-2.669-.847-1.169-1.187-2.598-.959-4.024.228-1.426.998-2.677,2.167-3.524,2.017-1.46,4.871-1.007,6.362,1.01.685.927.963,2.044.761,3.063-.175.885-.709,1.637-1.503,2.117-1.18.713-2.964.771-4.093-.788-.384-.53-.265-1.271.265-1.655.53-.384,1.271-.265,1.655.265.317.437.729.282.947.15.229-.139.358-.313.405-.549.07-.357-.061-.814-.342-1.195-.722-.977-2.097-1.2-3.066-.499-.656.475-1.089,1.178-1.217,1.978-.128.8.063,1.603.539,2.259,1.322,1.827,3.884,2.236,5.711.914,1.17-.847,1.94-2.099,2.168-3.526.228-1.426-.113-2.856-.96-4.026-2.282-3.151-6.702-3.859-9.854-1.577-.53.384-1.271.265-1.655-.265-.384-.53-.265-1.271.265-1.655,4.21-3.048,10.115-2.103,13.163,2.107,1.218,1.683,1.709,3.739,1.38,5.791s-1.436,3.852-3.119,5.071c-1.142.827-2.467,1.225-3.78,1.225Z"/>
            <path d="M98.9,101.847h0c-1.16,0-2.192-.62-3.103-1.167-.679-.408-1.381-.829-1.884-.829h0c-.503,0-1.205.421-1.884.828-.911.547-1.944,1.166-3.103,1.166s-2.192-.619-3.103-1.166c-.679-.407-1.381-.828-1.884-.828h0c-.654,0-1.185-.53-1.185-1.184,0-.654.53-1.185,1.184-1.186h.001c1.159,0,2.192.619,3.103,1.166.679.407,1.381.828,1.884.828.503,0,1.205-.421,1.884-.828.911-.547,1.944-1.166,3.103-1.166h0c1.16,0,2.192.62,3.104,1.167.679.408,1.381.829,1.884.829h0c.503,0,1.205-.421,1.884-.829.911-.547,1.944-1.166,3.103-1.166,1.159,0,2.192.619,3.103,1.165.679.407,1.381.828,1.884.828,0,0,0,0,.001,0,.654,0,1.185.53,1.185,1.184,0,.654-.53,1.185-1.184,1.186h-.002c-1.159,0-2.192-.619-3.103-1.165-.679-.407-1.381-.828-1.884-.828s-1.205.421-1.884.829c-.911.547-1.944,1.166-3.104,1.166Z"/>
          </g>
        </g>
      </g>
    </g>
  </g>
</svg>