<?xml version="1.0" encoding="utf-8"?>
<!-- Generator: Adobe Illustrator 28.2.0, SVG Export Plug-In . SVG Version: 6.00 Build 0)  -->
<svg version="1.1" id="Layer_1" xmlns="http://www.w3.org/2000/svg" xmlns:xlink="http://www.w3.org/1999/xlink" x="0px" y="0px"
	 viewBox="0 0 95.7 43.8" style="enable-background:new 0 0 95.7 43.8;" xml:space="preserve">
<style type="text/css">
	.st0{fill:#FFF6EE;}
</style>
<g>
	<polygon points="45,36.9 53.4,15.2 53.4,15.2 38.4,17.1 38.4,17.1 38.9,21.2 38.9,21.2 47.3,20.1 47.3,20.1 38.8,41.8 38.8,41.8 
		54.6,39.8 54.6,39.8 54.2,35.8 54.2,35.8 45,36.9 	"/>
	<polygon points="11.9,24 5.3,24.9 5.3,24.9 5.4,20.4 5.4,20.4 15.2,18.9 15.2,18.9 14.6,14.9 14.6,14.9 1.4,16.8 1.4,16.8 
		0.5,43.2 0.5,43.2 4.5,43.6 4.5,43.6 5.1,29 12.4,28.1 12.4,28.1 11.9,24 	"/>
	<path d="M24.3,15.4c-2.2-1-3.7-1.5-3.7-1.5l-1.7-0.6l-0.6,1.9C9.8,42.4,10.1,42,10.1,42l4.1,0.1c0,0,1-3.5,1.8-5.8
		c0.9-2.7,1.4-4.2,1.7-5.1l0,0l3.8,7.5c0,0,0,0,0,0l3.5-2l0,0l-4.2-8.4l0,0c1.7,0,3-0.4,4.3-1.1c1.8-1,2.9-2.6,3.3-4.7
		C28.7,19.6,27.4,16.7,24.3,15.4z M23.2,24c-1.7,1.1-3.6,0.3-3.6,0.3s2.1-6.3,2.1-6.3c0,0,2.7,1,2.8,3C24.6,22.2,24,23.5,23.2,24z"
		/>
	<polygon points="56.3,28.3 61.8,5.6 61.8,5.6 47.1,9.6 47.1,9.6 48.1,13.5 48.1,13.5 56.3,11.3 56.3,11.3 50.8,34 50.8,34 
		66.2,29.9 66.2,29.9 65.2,25.9 65.2,25.9 56.3,28.3 	"/>
	<polygon points="66.1,20.5 67.6,1.4 67.6,1.4 63.9,1.1 63.9,1.1 61.7,24.9 61.7,24.9 71.1,24.2 71.1,24.2 70.8,20.1 70.8,20.1 
		66.1,20.5 	"/>
	<polygon points="82.4,7.2 81.7,3.2 81.7,3.2 73.5,5 73.5,5 71.8,30.9 71.8,30.9 81.6,28.6 81.6,28.6 81,24.7 81,24.7 76.1,25.7 
		76.1,25.7 76.7,16.9 76.7,16.9 81.3,15.8 81.3,15.8 80.6,11.9 80.6,11.9 77,12.7 77,12.7 77.3,8.3 77.3,8.3 82.4,7.2 	"/>
	<path d="M84.3,0.2c-0.1,0-1,25.6-1,25.6s2.3-0.3,3.4-0.7c4.7-1.5,8.6-6.1,8.6-12.3C95.3,0.5,84.3,0.2,84.3,0.2z M87,20.9l0.7-16
		c1.7,0.9,4.3,4.2,4.3,7.9C91.9,18.7,87,20.9,87,20.9z"/>
	<path d="M33.4,12.4l-1.5,0.4l-4.1,19.3c0,0.1,0.1,0.3,0.2,0.3l3.7,0.4l0,0l0.8-4.3l0,0L36,28l0,0l1.3,3.5l0,0l3.2-2.3
		c0.1-0.1,0.1-0.2,0.1-0.3c-0.5-1.1-0.9-2.1-1.4-3.2C37.1,21.2,35.4,16.9,33.4,12.4z M32.9,24.9c0,0,0.4-5.9,0.6-7l1.5,6.8
		L32.9,24.9z"/>
</g>
</svg>
