<?xml version="1.0" encoding="UTF-8"?>
<svg xmlns="http://www.w3.org/2000/svg" version="1.1" viewBox="0 0 104.023 175.153">
  <defs>
    <style>
      .cls-1 {
        fill: #fff6ee;
      }

      .cls-2 {
        fill: #ff8a3d;
      }
    </style>
  </defs>
  <!-- Generator: Adobe Illustrator 28.7.2, SVG Export Plug-In . SVG Version: 1.2.0 Build 154)  -->
  <g>
    <g id="Layer_2">
      <g>
        <g>
          <path class="cls-1" d="M76.15,73.982l-36.02,87.13,14.95,2.22,34.18-88.5-13.11-.85ZM76.15,73.982l-36.02,87.13,14.95,2.22,34.18-88.5-13.11-.85ZM35.63,86.412l-18.84,10.53,11.82,2.16,7.14-4.31h.01l-.13-8.38ZM51.82,11.272l-3.81,67.8,13.92-4.1c.39-4.65,2.08-26.25,3.34-42.44.72-9.25,1.31-16.81,1.53-19.62l-14.98-1.64ZM63.74,77.362l-16.65,4.91c-.49.14-1.01.04-1.41-.26-.39-.31-.6-.8-.57-1.31l3.87-68.99L11.11,24.512l2.89,70.76,22.14-12.36c.11-.06.22-.11.33-.14.07-.02.14-.04.21-.04.07-.01.14-.02.21-.02.27-.01.53.06.77.2.46.27.74.76.75,1.31l.16,11.17.88,60,33.36-80.7-9.07,2.67ZM76.15,73.982l-36.02,87.13,14.95,2.22,34.18-88.5-13.11-.85ZM76.15,73.982l-36.02,87.13,14.95,2.22,34.18-88.5-13.11-.85ZM63.74,77.362l-16.65,4.91c-.49.14-1.01.04-1.41-.26-.39-.31-.6-.8-.57-1.31l3.87-68.99L11.11,24.512l2.89,70.76,22.14-12.36c.11-.06.22-.11.33-.14.07-.02.14-.04.21-.04.07-.01.14-.02.21-.02.27-.01.53.06.77.2.46.27.74.76.75,1.31l.16,11.17.88,60,33.36-80.7-9.07,2.67ZM51.82,11.272l-3.81,67.8,13.92-4.1c.39-4.65,2.08-26.25,3.34-42.44.72-9.25,1.31-16.81,1.53-19.62l-14.98-1.64ZM35.63,86.412l-18.84,10.53,11.82,2.16,7.14-4.31h.01l-.13-8.38ZM35.63,86.412l-18.84,10.53,11.82,2.16,7.14-4.31h.01l-.13-8.38ZM51.82,11.272l-3.81,67.8,13.92-4.1c.39-4.65,2.08-26.25,3.34-42.44.72-9.25,1.31-16.81,1.53-19.62l-14.98-1.64ZM63.74,77.362l-16.65,4.91c-.49.14-1.01.04-1.41-.26-.39-.31-.6-.8-.57-1.31l3.87-68.99L11.11,24.512l2.89,70.76,22.14-12.36c.11-.06.22-.11.33-.14.07-.02.14-.04.21-.04.07-.01.14-.02.21-.02.27-.01.53.06.77.2.46.27.74.76.75,1.31l.16,11.17.88,60,33.36-80.7-9.07,2.67ZM76.15,73.982l-36.02,87.13,14.95,2.22,34.18-88.5-13.11-.85ZM76.15,73.982l-36.02,87.13,14.95,2.22,34.18-88.5-13.11-.85ZM63.74,77.362l-16.65,4.91c-.49.14-1.01.04-1.41-.26-.39-.31-.6-.8-.57-1.31l3.87-68.99L11.11,24.512l2.89,70.76,22.14-12.36c.11-.06.22-.11.33-.14.07-.02.14-.04.21-.04.07-.01.14-.02.21-.02.27-.01.53.06.77.2.46.27.74.76.75,1.31l.16,11.17.88,60,33.36-80.7-9.07,2.67ZM61.93,74.972c.39-4.65,2.08-26.25,3.34-42.44.72-9.25,1.31-16.81,1.53-19.62l-14.98-1.64-3.81,67.8,13.92-4.1ZM16.79,96.942l11.82,2.16,7.14-4.31h.01l-.13-8.38-18.84,10.53ZM73.66,66.512c-.78-.03-1.52-.39-2.04-.98-.51-.58-.76-1.37-.69-2.14l5.43-57.24-26.12-3.33L2.84,18.832l3.45,84.34,23.1,4.23c.78.14,1.34.82,1.35,1.6l.86,58.95,28.66,4.27,40.4-104.64-27-1.07ZM57.37,165.212c-.19.48-.6.84-1.08.99-.23.06-.47.08-.71.05l-17.45-2.6c-.39-.06-.73-.25-.97-.55v-.01c-.04-.04-.08-.07-.1-.12-.03-.03-.04-.06-.06-.09-.03-.06-.06-.12-.09-.18-.1-.18-.17-.39-.18-.65l-.93-64-6.02,3.63c-.13.08-.28.14-.44.19-.29.09-.61.11-.91.05l-15.8-2.89c-.37-.06-.68-.25-.89-.51-.02-.02-.05-.05-.06-.07-.24-.26-.39-.6-.4-.98l-3.01-73.69c-.03-.74.43-1.42,1.13-1.66l40.49-13.68c.17-.06.36-.09.54-.08h.01c.15-.02.3-.03.46-.01l17.13,1.87c1.01.11,1.73.98,1.65,1.98-.06.73-.26,3.31-.55,6.98-.29,3.68-.66,8.45-1.06,13.57-.73,9.37-1.58,20.22-2.24,28.72-.34,4.26-.63,7.93-.84,10.53-.06.81-.12,1.52-.17,2.11l9.82-2.89c.16-.05.32-.07.48-.07h.01c.13-.03.26-.04.39-.03l15.63,1.02c.49.04.95.3,1.21.71s.31.94.13,1.4l-35.12,90.96ZM40.13,161.112l14.95,2.22,34.18-88.5-13.11-.85-36.02,87.13ZM63.74,77.362l-16.65,4.91c-.49.14-1.01.04-1.41-.26-.39-.31-.6-.8-.57-1.31l3.87-68.99L11.11,24.512l2.89,70.76,22.14-12.36c.11-.06.22-.11.33-.14.07-.02.14-.04.21-.04.07-.01.14-.02.21-.02.27-.01.53.06.77.2.46.27.74.76.75,1.31l.16,11.17.88,60,33.36-80.7-9.07,2.67ZM61.93,74.972c.39-4.65,2.08-26.25,3.34-42.44.72-9.25,1.31-16.81,1.53-19.62l-14.98-1.64-3.81,67.8,13.92-4.1ZM16.79,96.942l11.82,2.16,7.14-4.31h.01l-.13-8.38-18.84,10.53ZM35.63,86.412l-18.84,10.53,11.82,2.16,7.14-4.31h.01l-.13-8.38ZM51.82,11.272l-3.81,67.8,13.92-4.1c.39-4.65,2.08-26.25,3.34-42.44.72-9.25,1.31-16.81,1.53-19.62l-14.98-1.64ZM63.74,77.362l-16.65,4.91c-.49.14-1.01.04-1.41-.26-.39-.31-.6-.8-.57-1.31l3.87-68.99L11.11,24.512l2.89,70.76,22.14-12.36c.11-.06.22-.11.33-.14.07-.02.14-.04.21-.04.07-.01.14-.02.21-.02.27-.01.53.06.77.2.46.27.74.76.75,1.31l.16,11.17.88,60,33.36-80.7-9.07,2.67ZM76.15,73.982l-36.02,87.13,14.95,2.22,34.18-88.5-13.11-.85ZM76.15,73.982l-36.02,87.13,14.95,2.22,34.18-88.5-13.11-.85ZM63.74,77.362l-16.65,4.91c-.49.14-1.01.04-1.41-.26-.39-.31-.6-.8-.57-1.31l3.87-68.99L11.11,24.512l2.89,70.76,22.14-12.36c.11-.06.22-.11.33-.14.07-.02.14-.04.21-.04.07-.01.14-.02.21-.02.27-.01.53.06.77.2.46.27.74.76.75,1.31l.16,11.17.88,60,33.36-80.7-9.07,2.67ZM51.82,11.272l-3.81,67.8,13.92-4.1c.39-4.65,2.08-26.25,3.34-42.44.72-9.25,1.31-16.81,1.53-19.62l-14.98-1.64ZM35.63,86.412l-18.84,10.53,11.82,2.16,7.14-4.31h.01l-.13-8.38ZM51.82,11.272l-3.81,67.8,13.92-4.1c.39-4.65,2.08-26.25,3.34-42.44.72-9.25,1.31-16.81,1.53-19.62l-14.98-1.64ZM76.15,73.982l-36.02,87.13,14.95,2.22,34.18-88.5-13.11-.85ZM76.15,73.982l-36.02,87.13,14.95,2.22,34.18-88.5-13.11-.85ZM51.82,11.272l-3.81,67.8,13.92-4.1c.39-4.65,2.08-26.25,3.34-42.44.72-9.25,1.31-16.81,1.53-19.62l-14.98-1.64ZM76.15,73.982l-36.02,87.13,14.95,2.22,34.18-88.5-13.11-.85ZM76.15,73.982l-36.02,87.13,14.95,2.22,34.18-88.5-13.11-.85Z"/>
          <g>
            <path d="M103.77,65.542c-.27-.41-.73-.67-1.24-.69l-28.76-1.15c-.01,0-.02,0-.03-.02-.01-.01-.01-.02-.01-.03l5.54-58.38c.08-.88-.53-1.65-1.4-1.76L50.47.012c-.32-.04-.71,0-1.02.11L1.14,16.442C.44,16.682-.03,17.362,0,18.102l3.48,85.18c.06,1.33,1.01,2.42,2.31,2.66l22.16,4.06.86,58.98c.01.8.61,1.48,1.4,1.6l30.54,4.55c.25.04.49.02.71-.05.48-.14.89-.5,1.08-.99l41.38-107.14c.18-.47.13-1-.15-1.41ZM60.26,172.222l-28.66-4.27-.86-58.95c-.01-.78-.57-1.46-1.35-1.6l-23.1-4.23L2.84,18.832,50.24,2.822l26.12,3.33-5.43,57.24c-.07.77.18,1.56.69,2.14.52.59,1.26.95,2.04.98l27,1.07-40.4,104.64Z"/>
            <path d="M92.36,72.852c-.26-.41-.72-.67-1.21-.71l-15.63-1.02c-.13-.01-.26,0-.39.03h-.01c-.16,0-.32.02-.48.07l-9.82,2.89c.05-.59.11-1.3.17-2.11.21-2.6.5-6.27.84-10.53.66-8.5,1.51-19.35,2.24-28.72.4-5.12.77-9.89,1.06-13.57.29-3.67.49-6.25.55-6.98.08-1-.64-1.87-1.65-1.98l-17.13-1.87c-.16-.02-.31-.01-.46.01h-.01c-.18-.01-.37.02-.54.08L9.4,22.122c-.7.24-1.16.92-1.13,1.66l3.01,73.69c.01.38.16.72.4.98.01.02.04.05.06.07.21.26.52.45.89.51l15.8,2.89c.3.06.62.04.91-.05.16-.05.31-.11.44-.19l6.02-3.63.93,64c.01.26.08.47.18.65.03.06.06.12.09.18.02.03.03.06.06.09.02.05.06.08.1.12v.01c.24.3.58.49.97.55l17.45,2.6c.24.03.48.01.71-.05.48-.15.89-.51,1.08-.99l35.12-90.96c.18-.46.13-.99-.13-1.4ZM65.27,32.532c-1.26,16.19-2.95,37.79-3.34,42.44l-13.92,4.1,3.81-67.8,14.98,1.64c-.22,2.81-.81,10.37-1.53,19.62ZM35.75,94.792l-7.14,4.31-11.82-2.16,18.84-10.53.13,8.38h-.01ZM38.57,95.392l-.16-11.17c-.01-.55-.29-1.04-.75-1.31-.24-.14-.5-.21-.77-.2-.07,0-.14.01-.21.02-.07,0-.14.02-.21.04-.11.03-.22.08-.33.14l-22.14,12.36-2.89-70.76,37.87-12.8-3.87,68.99c-.03.51.18,1,.57,1.31.4.3.92.4,1.41.26l16.65-4.91,9.07-2.67-33.36,80.7-.88-60ZM55.08,163.332l-14.95-2.22,36.02-87.13,13.11.85-34.18,88.5Z"/>
          </g>
        </g>
        <path class="cls-2" d="M66.8,12.912c-.22,2.81-.81,10.37-1.53,19.62-1.26,16.19-2.95,37.79-3.34,42.44l-13.92,4.1,3.81-67.8,14.98,1.64Z"/>
        <polygon class="cls-2" points="35.76 94.792 35.75 94.792 28.61 99.102 16.79 96.942 35.63 86.412 35.76 94.792"/>
        <g>
          <path class="cls-1" d="M72.81,74.692l-33.36,80.7-.88-60-.16-11.17c-.01-.55-.29-1.04-.75-1.31-.24-.14-.5-.21-.77-.2-.07,0-.14.01-.21.02-.07,0-.14.02-.21.04-.11.03-.22.08-.33.14l-22.14,12.36-2.89-70.76,37.87-12.8-3.87,68.99c-.03.51.18,1,.57,1.31.4.3.92.4,1.41.26l16.65-4.91,9.07-2.67Z"/>
          <path d="M35.63,86.412l.12,8.38h.01l-.13-8.38Z"/>
        </g>
        <polygon class="cls-2" points="89.26 74.832 55.08 163.332 40.13 161.112 76.15 73.982 89.26 74.832"/>
      </g>
    </g>
  </g>
</svg>