<?xml version="1.0" encoding="UTF-8"?>
<svg xmlns="http://www.w3.org/2000/svg" version="1.1" viewBox="0 0 146.7 130.96">
  <defs>
    <style>
      .cls-1 {
        fill: #79c2f2;
      }

      .cls-2 {
        fill: #fff6ee;
      }
    </style>
  </defs>
  <!-- Generator: Adobe Illustrator 28.7.2, SVG Export Plug-In . SVG Version: 1.2.0 Build 154)  -->
  <g>
    <g id="Layer_2">
      <g>
        <path d="M131.161,42.69c.316.075.433-.416.117-.492s-.433.416-.117.492h0Z"/>
        <g>
          <path class="cls-2" d="M83.626,81.35c-.37,2.7-2.48,3.99-4.93,5.48-.18.11-.36.22-.54.33l-8.75,5.39c-1.5-2.43-5.08-8.24-7.16-11.62-1.09-1.77-1.07-4.01.04-5.84,1.08-1.8,3.26-3.14,5.3-3.27.56-.03,1.12.01,1.66.14.44.11.86.26,1.27.47.44.23.85.51,1.21.84.14.16.66.8,1.09,1.34.42.53,1.18.66,1.75.3,1.62-.99,3.17-.88,4.19-.62,1.7.45,3.25,1.68,4.14,3.29.66,1.19.91,2.49.73,3.77Z"/>
          <path class="cls-2" d="M74.436,35.14c-3.76-.9-7.55,1.44-8.45,5.2l-1.48,6.26v.01c.33.06.66.1.99.14.68.1,1.36.19,2.04.25,3.67.38,7.43.4,11.28.07l.83-3.49c.9-3.76-1.44-7.55-5.21-8.44ZM74.436,35.14c-3.76-.9-7.55,1.44-8.45,5.2l-1.48,6.26v.01c.33.06.66.1.99.14.68.1,1.36.19,2.04.25,3.67.38,7.43.4,11.28.07l.83-3.49c.9-3.76-1.44-7.55-5.21-8.44ZM74.436,35.14c-3.76-.9-7.55,1.44-8.45,5.2l-1.48,6.26v.01c.33.06.66.1.99.14.68.1,1.36.19,2.04.25,3.67.38,7.43.4,11.28.07l.83-3.49c.9-3.76-1.44-7.55-5.21-8.44ZM74.436,35.14c-3.76-.9-7.55,1.44-8.45,5.2l-1.48,6.26v.01c.33.06.66.1.99.14.68.1,1.36.19,2.04.25,3.67.38,7.43.4,11.28.07l.83-3.49c.9-3.76-1.44-7.55-5.21-8.44ZM74.436,35.14c-3.76-.9-7.55,1.44-8.45,5.2l-1.48,6.26v.01c.33.06.66.1.99.14.68.1,1.36.19,2.04.25,3.67.38,7.43.4,11.28.07l.83-3.49c.9-3.76-1.44-7.55-5.21-8.44ZM74.436,35.14c-3.76-.9-7.55,1.44-8.45,5.2l-1.48,6.26v.01c.33.06.66.1.99.14.68.1,1.36.19,2.04.25,3.67.38,7.43.4,11.28.07l.83-3.49c.9-3.76-1.44-7.55-5.21-8.44ZM74.436,35.14c-3.76-.9-7.55,1.44-8.45,5.2l-1.48,6.26v.01c.33.06.66.1.99.14.68.1,1.36.19,2.04.25,3.67.38,7.43.4,11.28.07l.83-3.49c.9-3.76-1.44-7.55-5.21-8.44ZM74.436,35.14c-3.76-.9-7.55,1.44-8.45,5.2l-1.48,6.26v.01c.33.06.66.1.99.14.68.1,1.36.19,2.04.25,3.67.38,7.43.4,11.28.07l.83-3.49c.9-3.76-1.44-7.55-5.21-8.44ZM74.436,35.14c-3.76-.9-7.55,1.44-8.45,5.2l-1.48,6.26v.01c.33.06.66.1.99.14.68.1,1.36.19,2.04.25,3.67.38,7.43.4,11.28.07l.83-3.49c.9-3.76-1.44-7.55-5.21-8.44ZM74.436,35.14c-3.76-.9-7.55,1.44-8.45,5.2l-1.48,6.26v.01c.33.06.66.1.99.14.68.1,1.36.19,2.04.25,3.67.38,7.43.4,11.28.07l.83-3.49c.9-3.76-1.44-7.55-5.21-8.44ZM64.946,23.3c-7.55-1.8-16.63-2.44-24.91-1.78-9.45.76-12.14,2.72-12.35,3.22.01.02.03.06.07.13.03.03.05.06.09.1s.09.09.14.14c1.2,1.13,2.37,2.36,3.62,3.66,1.61,1.68,3.32,3.47,5.32,5.27.01.02.03.03.05.05,3.83,3.14,8.34,6.1,13.57,8.42,2.7,1.2,5.47,2.17,8.3,2.92.29.08.59.15.88.22.26.07.52.13.79.19.44.11.89.2,1.34.3v-.02l1.52-6.4c1.24-5.2,6.48-8.43,11.68-7.2,5.21,1.24,8.44,6.48,7.21,11.69l-.61,2.57c2.83-.35,5.71-.89,8.64-1.61.01,0,.03,0,.05-.02,3.53-1.2,5.37-2.6,5.58-3.47,1.17-4.94-11.26-13.71-30.98-18.38ZM64.946,23.3c-7.55-1.8-16.63-2.44-24.91-1.78-9.45.76-12.14,2.72-12.35,3.22.01.02.03.06.07.13.03.03.05.06.09.1s.09.09.14.14c1.2,1.13,2.37,2.36,3.62,3.66,1.61,1.68,3.32,3.47,5.32,5.27.01.02.03.03.05.05,3.83,3.14,8.34,6.1,13.57,8.42,2.7,1.2,5.47,2.17,8.3,2.92.29.08.59.15.88.22.26.07.52.13.79.19.44.11.89.2,1.34.3v-.02l1.52-6.4c1.24-5.2,6.48-8.43,11.68-7.2,5.21,1.24,8.44,6.48,7.21,11.69l-.61,2.57c2.83-.35,5.71-.89,8.64-1.61.01,0,.03,0,.05-.02,3.53-1.2,5.37-2.6,5.58-3.47,1.17-4.94-11.26-13.71-30.98-18.38ZM74.436,35.14c-3.76-.9-7.55,1.44-8.45,5.2l-1.48,6.26v.01c.33.06.66.1.99.14.68.1,1.36.19,2.04.25,3.67.38,7.43.4,11.28.07l.83-3.49c.9-3.76-1.44-7.55-5.21-8.44ZM74.436,35.14c-3.76-.9-7.55,1.44-8.45,5.2l-1.48,6.26v.01c.33.06.66.1.99.14.68.1,1.36.19,2.04.25,3.67.38,7.43.4,11.28.07l.83-3.49c.9-3.76-1.44-7.55-5.21-8.44ZM64.946,23.3c-7.55-1.8-16.63-2.44-24.91-1.78-9.45.76-12.14,2.72-12.35,3.22.01.02.03.06.07.13.03.03.05.06.09.1s.09.09.14.14c1.2,1.13,2.37,2.36,3.62,3.66,1.61,1.68,3.32,3.47,5.32,5.27.01.02.03.03.05.05,3.83,3.14,8.34,6.1,13.57,8.42,2.7,1.2,5.47,2.17,8.3,2.92.29.08.59.15.88.22.26.07.52.13.79.19.44.11.89.2,1.34.3v-.02l1.52-6.4c1.24-5.2,6.48-8.43,11.68-7.2,5.21,1.24,8.44,6.48,7.21,11.69l-.61,2.57c2.83-.35,5.71-.89,8.64-1.61.01,0,.03,0,.05-.02,3.53-1.2,5.37-2.6,5.58-3.47,1.17-4.94-11.26-13.71-30.98-18.38ZM64.946,23.3c-7.55-1.8-16.63-2.44-24.91-1.78-9.45.76-12.14,2.72-12.35,3.22.01.02.03.06.07.13.03.03.05.06.09.1s.09.09.14.14c1.2,1.13,2.37,2.36,3.62,3.66,1.61,1.68,3.32,3.47,5.32,5.27.01.02.03.03.05.05,3.83,3.14,8.34,6.1,13.57,8.42,2.7,1.2,5.47,2.17,8.3,2.92.29.08.59.15.88.22.26.07.52.13.79.19.44.11.89.2,1.34.3v-.02l1.52-6.4c1.24-5.2,6.48-8.43,11.68-7.2,5.21,1.24,8.44,6.48,7.21,11.69l-.61,2.57c2.83-.35,5.71-.89,8.64-1.61.01,0,.03,0,.05-.02,3.53-1.2,5.37-2.6,5.58-3.47,1.17-4.94-11.26-13.71-30.98-18.38ZM74.436,35.14c-3.76-.9-7.55,1.44-8.45,5.2l-1.48,6.26v.01c.33.06.66.1.99.14.68.1,1.36.19,2.04.25,3.67.38,7.43.4,11.28.07l.83-3.49c.9-3.76-1.44-7.55-5.21-8.44ZM142.656,71.39c-1.55-5.31-4.46-10.18-8.42-14.06-4.06-4-9.14-6.85-14.68-8.25-.72-.18-1.17-.91-1-1.64l2.59-10.88c.13-.58,0-1.17-.36-1.63l-1.37-1.72c-.66-.84-16.71-20.75-46.98-27.94-17.68-4.19-36.54-3.18-56.06,3.01l-2.2.7c-.58.18-1.04.63-1.23,1.21l-.73,2.19c-.44,1.32-10.75,32.68-9.35,63.59,1.1,24.37,17.93,45.21,40.92,50.67l.61.14c3.3.74,6.63,1.21,9.9,1.39,12.02.66,24-4.52,32.04-13.85,1.79-2.07,3.31-3.75,4.52-4.98.34-.34.83-.48,1.29-.37l14.56,3.45c9.93,2.36,20.3-.64,27.06-7.82,9.02-9.59,12.26-21.69,8.89-33.21ZM79.436,71.69c2.4.63,4.57,2.35,5.81,4.59.94,1.7,1.3,3.58,1.04,5.44-.55,3.96-3.55,5.79-6.19,7.4-.18.11-.36.22-.53.33l-9.89,6.09c-.3.19-.67.25-1.01.17-.54-.13-.68-.35-1.18-1.15l-.89-1.45c-.74-1.2-1.72-2.79-2.71-4.39l-3.93-6.38c-1.61-2.63-1.61-5.94.02-8.64,1.54-2.54,4.53-4.37,7.44-4.56,1.49-.1,2.99.21,4.32.9.51.25.99.57,1.42.92l4.96-20.91c-2.82.15-6.12.14-9.77-.21-.32-.03-.65-.06-.97-.1-2.62-.29-5.42-.75-8.33-1.44-.25-.06-.5-.12-.74-.18-.12-.03-.24-.06-.35-.09-11.03-2.8-17.81-7.37-22.87-11.95-3.7-3.05-6.78-6.27-9.29-9.3-.08-.09-.16-.18-.23-.28-1.16-1.4-2.18-2.75-3.09-4.02-.44-.61-.3-1.47.31-1.91.62-.44,1.47-.29,1.91.32.39.55.8,1.11,1.25,1.69,1.43-1.38,5.11-3.15,14.42-3.83,8.4-.61,17.59.07,25.22,1.88,9.43,2.24,18.02,5.6,24.18,9.46,6.68,4.18,9.73,8.41,8.82,12.22-.03.14-.08.28-.13.42,2.58-.9,5.19-1.94,7.83-3.11.69-.3,1.5.01,1.81.7s-.01,1.5-.7,1.8c-5.54,2.46-10.95,4.35-16.22,5.65-.02.02-.05.03-.07.02-1.68.57-3.61,1.06-5.75,1.44-1.18.22-2.68.44-4.43.61l-5.16,21.74c1.2-.24,2.44-.21,3.67.11ZM99.536,88.06l4.62-19.49c.18-.72.9-1.17,1.62-.99l9.75,2.31c6.09,1.44,9.87,7.58,8.42,13.67-1.44,6.1-7.58,9.88-13.67,8.43l-9.74-2.31c-.73-.17-1.17-.9-1-1.62ZM121.336,82.94c1.1-4.65-1.78-9.33-6.43-10.44l-8.44-2-4.01,16.88,8.44,2c4.65,1.1,9.34-1.78,10.44-6.44ZM82.266,44.21l-.61,2.57c2.83-.35,5.71-.89,8.64-1.61.01,0,.03,0,.05-.02,3.53-1.2,5.37-2.6,5.58-3.47,1.17-4.94-11.26-13.71-30.98-18.38-7.55-1.8-16.63-2.44-24.91-1.78-9.45.76-12.14,2.72-12.35,3.22.01.02.03.06.07.13.03.03.05.06.09.1s.09.09.14.14c1.2,1.13,2.37,2.36,3.62,3.66,1.61,1.68,3.32,3.47,5.32,5.27.01.02.03.03.05.05,3.83,3.14,8.34,6.1,13.57,8.42,2.7,1.2,5.47,2.17,8.3,2.92.29.08.59.15.88.22.26.07.52.13.79.19.44.11.89.2,1.34.3v-.02l1.52-6.4c1.24-5.2,6.48-8.43,11.68-7.2,5.21,1.24,8.44,6.48,7.21,11.69ZM74.436,35.14c-3.76-.9-7.55,1.44-8.45,5.2l-1.48,6.26v.01c.33.06.66.1.99.14.68.1,1.36.19,2.04.25,3.67.38,7.43.4,11.28.07l.83-3.49c.9-3.76-1.44-7.55-5.21-8.44ZM74.436,35.14c-3.76-.9-7.55,1.44-8.45,5.2l-1.48,6.26v.01c.33.06.66.1.99.14.68.1,1.36.19,2.04.25,3.67.38,7.43.4,11.28.07l.83-3.49c.9-3.76-1.44-7.55-5.21-8.44ZM64.946,23.3c-7.55-1.8-16.63-2.44-24.91-1.78-9.45.76-12.14,2.72-12.35,3.22.01.02.03.06.07.13.03.03.05.06.09.1s.09.09.14.14c1.2,1.13,2.37,2.36,3.62,3.66,1.61,1.68,3.32,3.47,5.32,5.27.01.02.03.03.05.05,3.83,3.14,8.34,6.1,13.57,8.42,2.7,1.2,5.47,2.17,8.3,2.92.29.08.59.15.88.22.26.07.52.13.79.19.44.11.89.2,1.34.3v-.02l1.52-6.4c1.24-5.2,6.48-8.43,11.68-7.2,5.21,1.24,8.44,6.48,7.21,11.69l-.61,2.57c2.83-.35,5.71-.89,8.64-1.61.01,0,.03,0,.05-.02,3.53-1.2,5.37-2.6,5.58-3.47,1.17-4.94-11.26-13.71-30.98-18.38ZM64.946,23.3c-7.55-1.8-16.63-2.44-24.91-1.78-9.45.76-12.14,2.72-12.35,3.22.01.02.03.06.07.13.03.03.05.06.09.1s.09.09.14.14c1.2,1.13,2.37,2.36,3.62,3.66,1.61,1.68,3.32,3.47,5.32,5.27.01.02.03.03.05.05,3.83,3.14,8.34,6.1,13.57,8.42,2.7,1.2,5.47,2.17,8.3,2.92.29.08.59.15.88.22.26.07.52.13.79.19.44.11.89.2,1.34.3v-.02l1.52-6.4c1.24-5.2,6.48-8.43,11.68-7.2,5.21,1.24,8.44,6.48,7.21,11.69l-.61,2.57c2.83-.35,5.71-.89,8.64-1.61.01,0,.03,0,.05-.02,3.53-1.2,5.37-2.6,5.58-3.47,1.17-4.94-11.26-13.71-30.98-18.38ZM74.436,35.14c-3.76-.9-7.55,1.44-8.45,5.2l-1.48,6.26v.01c.33.06.66.1.99.14.68.1,1.36.19,2.04.25,3.67.38,7.43.4,11.28.07l.83-3.49c.9-3.76-1.44-7.55-5.21-8.44ZM74.436,35.14c-3.76-.9-7.55,1.44-8.45,5.2l-1.48,6.26v.01c.33.06.66.1.99.14.68.1,1.36.19,2.04.25,3.67.38,7.43.4,11.28.07l.83-3.49c.9-3.76-1.44-7.55-5.21-8.44ZM64.946,23.3c-7.55-1.8-16.63-2.44-24.91-1.78-9.45.76-12.14,2.72-12.35,3.22.01.02.03.06.07.13.03.03.05.06.09.1s.09.09.14.14c1.2,1.13,2.37,2.36,3.62,3.66,1.61,1.68,3.32,3.47,5.32,5.27.01.02.03.03.05.05,3.83,3.14,8.34,6.1,13.57,8.42,2.7,1.2,5.47,2.17,8.3,2.92.29.08.59.15.88.22.26.07.52.13.79.19.44.11.89.2,1.34.3v-.02l1.52-6.4c1.24-5.2,6.48-8.43,11.68-7.2,5.21,1.24,8.44,6.48,7.21,11.69l-.61,2.57c2.83-.35,5.71-.89,8.64-1.61.01,0,.03,0,.05-.02,3.53-1.2,5.37-2.6,5.58-3.47,1.17-4.94-11.26-13.71-30.98-18.38ZM64.946,23.3c-7.55-1.8-16.63-2.44-24.91-1.78-9.45.76-12.14,2.72-12.35,3.22.01.02.03.06.07.13.03.03.05.06.09.1s.09.09.14.14c1.2,1.13,2.37,2.36,3.62,3.66,1.61,1.68,3.32,3.47,5.32,5.27.01.02.03.03.05.05,3.83,3.14,8.34,6.1,13.57,8.42,2.7,1.2,5.47,2.17,8.3,2.92.29.08.59.15.88.22.26.07.52.13.79.19.44.11.89.2,1.34.3v-.02l1.52-6.4c1.24-5.2,6.48-8.43,11.68-7.2,5.21,1.24,8.44,6.48,7.21,11.69l-.61,2.57c2.83-.35,5.71-.89,8.64-1.61.01,0,.03,0,.05-.02,3.53-1.2,5.37-2.6,5.58-3.47,1.17-4.94-11.26-13.71-30.98-18.38ZM74.436,35.14c-3.76-.9-7.55,1.44-8.45,5.2l-1.48,6.26v.01c.33.06.66.1.99.14.68.1,1.36.19,2.04.25,3.67.38,7.43.4,11.28.07l.83-3.49c.9-3.76-1.44-7.55-5.21-8.44ZM74.436,35.14c-3.76-.9-7.55,1.44-8.45,5.2l-1.48,6.26v.01c.33.06.66.1.99.14.68.1,1.36.19,2.04.25,3.67.38,7.43.4,11.28.07l.83-3.49c.9-3.76-1.44-7.55-5.21-8.44ZM74.436,35.14c-3.76-.9-7.55,1.44-8.45,5.2l-1.48,6.26v.01c.33.06.66.1.99.14.68.1,1.36.19,2.04.25,3.67.38,7.43.4,11.28.07l.83-3.49c.9-3.76-1.44-7.55-5.21-8.44ZM74.436,35.14c-3.76-.9-7.55,1.44-8.45,5.2l-1.48,6.26v.01c.33.06.66.1.99.14.68.1,1.36.19,2.04.25,3.67.38,7.43.4,11.28.07l.83-3.49c.9-3.76-1.44-7.55-5.21-8.44ZM74.436,35.14c-3.76-.9-7.55,1.44-8.45,5.2l-1.48,6.26v.01c.33.06.66.1.99.14.68.1,1.36.19,2.04.25,3.67.38,7.43.4,11.28.07l.83-3.49c.9-3.76-1.44-7.55-5.21-8.44ZM74.436,35.14c-3.76-.9-7.55,1.44-8.45,5.2l-1.48,6.26v.01c.33.06.66.1.99.14.68.1,1.36.19,2.04.25,3.67.38,7.43.4,11.28.07l.83-3.49c.9-3.76-1.44-7.55-5.21-8.44ZM74.436,35.14c-3.76-.9-7.55,1.44-8.45,5.2l-1.48,6.26v.01c.33.06.66.1.99.14.68.1,1.36.19,2.04.25,3.67.38,7.43.4,11.28.07l.83-3.49c.9-3.76-1.44-7.55-5.21-8.44ZM74.436,35.14c-3.76-.9-7.55,1.44-8.45,5.2l-1.48,6.26v.01c.33.06.66.1.99.14.68.1,1.36.19,2.04.25,3.67.38,7.43.4,11.28.07l.83-3.49c.9-3.76-1.44-7.55-5.21-8.44ZM74.436,35.14c-3.76-.9-7.55,1.44-8.45,5.2l-1.48,6.26v.01c.33.06.66.1.99.14.68.1,1.36.19,2.04.25,3.67.38,7.43.4,11.28.07l.83-3.49c.9-3.76-1.44-7.55-5.21-8.44Z"/>
          <path d="M145.286,70.63c-1.69-5.77-4.84-11.04-9.13-15.26-4.09-4.02-9.12-6.97-14.63-8.59l2.28-9.59c.33-1.39.01-2.83-.88-3.95l-1.36-1.73c-.69-.87-17.32-21.5-48.5-28.9C54.906-1.7,35.556-.67,15.556,5.67l-2.2.7c-1.41.45-2.53,1.55-3,2.95l-.73,2.19C9.176,12.85-1.284,44.68.136,76.09c1.15,25.59,18.85,47.47,43.03,53.21l.63.15c3.45.77,6.93,1.26,10.35,1.45,12.87.7,25.68-4.83,34.26-14.79,1.49-1.73,2.79-3.18,3.87-4.3l13.8,3.27c10.88,2.59,22.26-.71,29.68-8.6,9.7-10.31,13.17-23.38,9.53-35.85ZM133.766,104.6c-6.76,7.18-17.13,10.18-27.06,7.82l-14.56-3.45c-.46-.11-.95.03-1.29.37-1.21,1.23-2.73,2.91-4.52,4.98-8.04,9.33-20.02,14.51-32.04,13.85-3.27-.18-6.6-.65-9.9-1.39l-.61-.14C20.796,121.18,3.966,100.34,2.866,75.97,1.466,45.06,11.776,13.7,12.216,12.38l.73-2.19c.19-.58.65-1.03,1.23-1.21l2.2-.7c19.52-6.19,38.38-7.2,56.06-3.01,30.27,7.19,46.32,27.1,46.98,27.94l1.37,1.72c.36.46.49,1.05.36,1.63l-2.59,10.88c-.17.73.28,1.46,1,1.64,5.54,1.4,10.62,4.25,14.68,8.25,3.96,3.88,6.87,8.75,8.42,14.06,3.37,11.52.13,23.62-8.89,33.21Z"/>
        </g>
        <path class="cls-2" d="M121.336,82.94c-1.1,4.66-5.79,7.54-10.44,6.44l-8.44-2,4.01-16.88,8.44,2c4.65,1.11,7.53,5.79,6.43,10.44Z"/>
        <g>
          <path class="cls-1" d="M79.646,43.58l-.83,3.49c-3.85.33-7.61.31-11.28-.07-.68-.06-1.36-.15-2.04-.25-.33-.04-.66-.08-.99-.14v-.01l1.48-6.26c.9-3.76,4.69-6.1,8.45-5.2,3.77.89,6.11,4.68,5.21,8.44Z"/>
          <path class="cls-1" d="M95.926,41.68c-.21.87-2.05,2.27-5.58,3.47-.02.02-.04.02-.05.02-2.93.72-5.81,1.26-8.64,1.61l.61-2.57c1.23-5.21-2-10.45-7.21-11.69-5.2-1.23-10.44,2-11.68,7.2l-1.52,6.4v.02c-.45-.1-.9-.19-1.34-.3-.27-.06-.53-.12-.79-.19-.29-.07-.59-.14-.88-.22-2.83-.75-5.6-1.72-8.3-2.92-5.23-2.32-9.74-5.28-13.57-8.42-.02-.02-.04-.03-.05-.05-2-1.8-3.71-3.59-5.32-5.27-1.25-1.3-2.42-2.53-3.62-3.66-.05-.05-.1-.1-.14-.14s-.06-.07-.09-.1c-.04-.07-.06-.11-.07-.13.21-.5,2.9-2.46,12.35-3.22,8.28-.66,17.36-.02,24.91,1.78,19.72,4.67,32.15,13.44,30.98,18.38Z"/>
          <path d="M60.516,45.84c.44.11.89.2,1.34.3v-.02c-.44-.09-.89-.18-1.34-.28ZM64.506,46.6v.01c.33.06.66.1.99.14-.32-.05-.66-.1-.99-.15ZM60.516,45.84c.44.11.89.2,1.34.3v-.02c-.44-.09-.89-.18-1.34-.28ZM60.516,45.84c.44.11.89.2,1.34.3v-.02c-.44-.09-.89-.18-1.34-.28ZM60.516,45.84c.44.11.89.2,1.34.3v-.02c-.44-.09-.89-.18-1.34-.28ZM60.516,45.84c.44.11.89.2,1.34.3v-.02c-.44-.09-.89-.18-1.34-.28ZM60.516,45.84c.44.11.89.2,1.34.3v-.02c-.44-.09-.89-.18-1.34-.28ZM60.516,45.84c.44.11.89.2,1.34.3v-.02c-.44-.09-.89-.18-1.34-.28ZM60.516,45.84c.44.11.89.2,1.34.3v-.02c-.44-.09-.89-.18-1.34-.28ZM60.516,45.84c.44.11.89.2,1.34.3v-.02c-.44-.09-.89-.18-1.34-.28Z"/>
        </g>
        <path d="M67.376,49.74c-2.64-.25-5.23-.69-7.77-1.29-.43-.1-.87-.21-1.3-.33.24.06.49.12.74.18,2.91.69,5.71,1.15,8.33,1.44Z"/>
        <g>
          <path d="M134.886,66.65c-3.9-6.47-10.32-11.17-17.61-12.9l-5.13-1.22,3.54-14.93c.11-.47,0-.94-.29-1.31-1.43-1.76-35.58-42.76-97.41-23.2-.46.14-.83.51-.98.97-.43,1.3-10.41,32.08-9.08,61.68.49,10.74,4.42,21.21,11.08,29.47,6.73,8.37,15.69,14.06,25.95,16.49.18.05.37.09.55.13,3.03.68,6.08,1.11,9.07,1.28,5.2.28,10.51-.69,15.35-2.8,4.78-2.09,9.13-5.3,12.57-9.3,5.35-6.2,7.12-7.48,7.62-7.74l15.24,3.62c6.99,1.66,14.23.53,20.37-3.19,6.14-3.71,10.51-9.57,12.29-16.51,1.79-6.94.68-14.24-3.13-20.54ZM135.366,86.51c-1.6,6.24-5.53,11.51-11.05,14.85-5.53,3.34-12.04,4.36-18.32,2.87l-15.51-3.68c-1.09-.26-2.31.47-4.65,2.78-1.43,1.4-3.25,3.38-5.42,5.9-6.46,7.5-16.07,11.67-25.69,11.14-2.84-.15-5.74-.56-8.62-1.21-9.88-2.21-18.51-7.64-24.97-15.66-6.3-7.82-10.02-17.72-10.47-27.89-1.23-27.23,7.3-55.54,8.74-60.1,56.98-17.71,89.45,17.35,93.48,22.05l-3.72,15.67c-.18.73.28,1.47,1.01,1.65l6.47,1.53c6.58,1.56,12.37,5.81,15.9,11.65,3.42,5.67,4.42,12.22,2.82,18.45Z"/>
          <path d="M115.526,69.89l-9.75-2.31c-.72-.18-1.44.27-1.62.99l-4.62,19.49c-.17.72.27,1.45,1,1.62l9.74,2.31c6.09,1.45,12.23-2.33,13.67-8.43,1.45-6.09-2.33-12.23-8.42-13.67ZM121.336,82.94c-1.1,4.66-5.79,7.54-10.44,6.44l-8.44-2,4.01-16.88,8.44,2c4.65,1.11,7.53,5.79,6.43,10.44Z"/>
          <path d="M108.096,40.32c-.31-.69-1.12-1-1.81-.7-2.64,1.17-5.25,2.21-7.83,3.11.05-.14.1-.28.13-.42.91-3.81-2.14-8.04-8.82-12.22-6.16-3.86-14.75-7.22-24.18-9.46-7.63-1.81-16.82-2.49-25.22-1.88-9.31.68-12.99,2.45-14.42,3.83-.45-.58-.86-1.14-1.25-1.69-.44-.61-1.29-.76-1.91-.32-.61.44-.75,1.3-.31,1.91.91,1.27,1.93,2.62,3.09,4.02.07.1.15.19.23.28,2.51,3.03,5.59,6.25,9.29,9.3,5.06,4.58,11.84,9.15,22.87,11.95.11.03.23.06.35.09.24.06.49.12.74.18,2.91.69,5.71,1.15,8.33,1.44.32.04.65.07.97.1,3.65.35,6.95.36,9.77.21l-4.96,20.91c-.43-.35-.91-.67-1.42-.92-1.33-.69-2.83-1-4.32-.9-2.91.19-5.9,2.02-7.44,4.56-1.63,2.7-1.63,6.01-.02,8.64l3.93,6.38c.99,1.6,1.97,3.19,2.71,4.39l.89,1.45c.5.8.64,1.02,1.18,1.15.34.08.71.02,1.01-.17l9.89-6.09c.17-.11.35-.22.53-.33,2.64-1.61,5.64-3.44,6.19-7.4.26-1.86-.1-3.74-1.04-5.44-1.24-2.24-3.41-3.96-5.81-4.59-1.23-.32-2.47-.35-3.67-.11l5.16-21.74c1.75-.17,3.25-.39,4.43-.61,2.14-.38,4.07-.87,5.75-1.44.02.01.05,0,.07-.02,5.27-1.3,10.68-3.19,16.22-5.65.69-.3,1.01-1.11.7-1.8ZM78.756,74.29c1.7.45,3.25,1.68,4.14,3.29.66,1.19.91,2.49.73,3.77-.37,2.7-2.48,3.99-4.93,5.48-.18.11-.36.22-.54.33l-8.75,5.39c-1.5-2.43-5.08-8.24-7.16-11.62-1.09-1.77-1.07-4.01.04-5.84,1.08-1.8,3.26-3.14,5.3-3.27.56-.03,1.12.01,1.66.14.44.11.86.26,1.27.47.44.23.85.51,1.21.84.14.16.66.8,1.09,1.34.42.53,1.18.66,1.75.3,1.62-.99,3.17-.88,4.19-.62ZM79.646,43.58l-.83,3.49c-3.85.33-7.61.31-11.28-.07-.68-.06-1.36-.15-2.04-.25-.33-.04-.66-.08-.99-.14v-.01l1.48-6.26c.9-3.76,4.69-6.1,8.45-5.2,3.77.89,6.11,4.68,5.21,8.44ZM90.346,45.15c-.02.02-.04.02-.05.02-2.93.72-5.81,1.26-8.64,1.61l.61-2.57c1.23-5.21-2-10.45-7.21-11.69-5.2-1.23-10.44,2-11.68,7.2l-1.52,6.4v.02c-.45-.1-.9-.19-1.34-.3-.27-.06-.53-.12-.79-.19-.29-.07-.59-.14-.88-.22-2.83-.75-5.6-1.72-8.3-2.92-5.23-2.32-9.74-5.28-13.57-8.42-.02-.02-.04-.03-.05-.05-2-1.8-3.71-3.59-5.32-5.27-1.25-1.3-2.42-2.53-3.62-3.66-.05-.05-.1-.1-.14-.14s-.06-.07-.09-.1c-.04-.07-.06-.11-.07-.13.21-.5,2.9-2.46,12.35-3.22,8.28-.66,17.36-.02,24.91,1.78,19.72,4.67,32.15,13.44,30.98,18.38-.21.87-2.05,2.27-5.58,3.47Z"/>
        </g>
        <path class="cls-1" d="M83.626,81.35c-.37,2.7-2.48,3.99-4.93,5.48-.18.11-.36.22-.54.33l-8.75,5.39c-1.5-2.43-5.08-8.24-7.16-11.62-1.09-1.77-1.07-4.01.04-5.84,1.08-1.8,3.26-3.14,5.3-3.27.56-.03,1.12.01,1.66.14.44.11.86.26,1.27.47.44.23.85.51,1.21.84.14.16.66.8,1.09,1.34.42.53,1.18.66,1.75.3,1.62-.99,3.17-.88,4.19-.62,1.7.45,3.25,1.68,4.14,3.29.66,1.19.91,2.49.73,3.77Z"/>
      </g>
    </g>
  </g>
</svg>