<?xml version="1.0" encoding="UTF-8"?>
<svg xmlns="http://www.w3.org/2000/svg" version="1.1" viewBox="0 0 153.139 127.694">
  <defs>
    <style>
      .cls-1 {
        fill: #fff6ee;
      }

      .cls-2 {
        fill: #ea488e;
      }
    </style>
  </defs>
  <!-- Generator: Adobe Illustrator 28.7.2, SVG Export Plug-In . SVG Version: 1.2.0 Build 154)  -->
  <g>
    <g id="Layer_2">
      <g>
        <path d="M121.402,14.478c.313-.058.224-.544-.09-.486s-.224.544.09.486h0Z"/>
        <g>
          <path class="cls-1" d="M63.463,45.637c-.01.62-.45,1.15-1.07,1.27-.58.1-1.13-.18-1.39-.67.83-.18,1.65-.38,2.46-.6Z"/>
          <path class="cls-1" d="M75.623,35.637c-.69-3.73-4.28-6.2-8.01-5.51-3.72.69-6.19,4.28-5.51,8l1.14,6.18c.43-.11.85-.22,1.26-.34.32-.08.64-.18.97-.29,3.66-1.13,7.26-2.67,10.79-4.59l-.64-3.45ZM75.623,35.637c-.69-3.73-4.28-6.2-8.01-5.51-3.72.69-6.19,4.28-5.51,8l1.14,6.18c.43-.11.85-.22,1.26-.34.32-.08.64-.18.97-.29,3.66-1.13,7.26-2.67,10.79-4.59l-.64-3.45ZM75.623,35.637c-.69-3.73-4.28-6.2-8.01-5.51-3.72.69-6.19,4.28-5.51,8l1.14,6.18c.43-.11.85-.22,1.26-.34.32-.08.64-.18.97-.29,3.66-1.13,7.26-2.67,10.79-4.59l-.64-3.45ZM75.623,35.637c-.69-3.73-4.28-6.2-8.01-5.51-3.72.69-6.19,4.28-5.51,8l1.14,6.18.01.02c.42-.11.83-.23,1.25-.36.32-.08.64-.18.97-.29,3.66-1.13,7.26-2.67,10.79-4.59l-.64-3.45ZM75.623,35.637c-.69-3.73-4.28-6.2-8.01-5.51-3.72.69-6.19,4.28-5.51,8l1.14,6.18.01.02c.42-.11.83-.23,1.25-.36.32-.08.64-.18.97-.29,3.66-1.13,7.26-2.67,10.79-4.59l-.64-3.45ZM75.623,35.637c-.69-3.73-4.28-6.2-8.01-5.51-3.72.69-6.19,4.28-5.51,8l1.14,6.18.01.02c.42-.11.83-.23,1.25-.36.32-.08.64-.18.97-.29,3.66-1.13,7.26-2.67,10.79-4.59l-.64-3.45ZM89.443,27.497c-.9-4.89-15.5-7.83-35-4.23-7.48,1.38-15.87,4.39-23.02,8.26-8.14,4.4-9.79,7.21-9.79,7.76.01.01.03.03.07.06.05.03.11.06.17.09.02.01.05.02.07.03.03.02.07.03.1.04,1.53.53,3.07,1.17,4.69,1.84,2.04.85,4.23,1.75,6.64,2.56,4.74,1.35,10.04,2.25,15.76,2.26,3.17.01,6.31-.27,9.41-.8.07-.01.15-.03.22-.04.3-.05.6-.11.89-.17.35-.07.7-.14,1.04-.22v-.01l-1.17-6.32c-.95-5.15,2.46-10.12,7.62-11.07,5.15-.95,10.11,2.47,11.06,7.62l.47,2.55c2.43-1.45,4.83-3.09,7.19-4.93,2.66-2.46,3.74-4.42,3.58-5.28ZM89.443,27.497c-.9-4.89-15.5-7.83-35-4.23-7.48,1.38-15.87,4.39-23.02,8.26-8.14,4.4-9.79,7.21-9.79,7.76.01.01.03.03.07.06.05.03.11.06.17.09.02.01.05.02.07.03.03.02.07.03.1.04,1.53.53,3.07,1.17,4.69,1.84,2.04.85,4.23,1.75,6.64,2.56,4.74,1.35,10.04,2.25,15.76,2.26,3.17.01,6.31-.27,9.41-.8.07-.01.15-.03.22-.04.3-.05.6-.11.89-.17.35-.07.7-.14,1.04-.22v-.01l-1.17-6.32c-.95-5.15,2.46-10.12,7.62-11.07,5.15-.95,10.11,2.47,11.06,7.62l.47,2.55c2.43-1.45,4.83-3.09,7.19-4.93,2.66-2.46,3.74-4.42,3.58-5.28ZM75.623,35.637c-.69-3.73-4.28-6.2-8.01-5.51-3.72.69-6.19,4.28-5.51,8l1.14,6.18.01.02c.42-.11.83-.23,1.25-.36.32-.08.64-.18.97-.29,3.66-1.13,7.26-2.67,10.79-4.59l-.64-3.45ZM75.623,35.637c-.69-3.73-4.28-6.2-8.01-5.51-3.72.69-6.19,4.28-5.51,8l1.14,6.18.01.02c.42-.11.83-.23,1.25-.36.32-.08.64-.18.97-.29,3.66-1.13,7.26-2.67,10.79-4.59l-.64-3.45ZM89.443,27.497c-.9-4.89-15.5-7.83-35-4.23-7.48,1.38-15.87,4.39-23.02,8.26-8.14,4.4-9.79,7.21-9.79,7.76.01.01.03.03.07.06.05.03.11.06.17.09.02.01.05.02.07.03.03.02.07.03.1.04,1.53.53,3.07,1.17,4.69,1.84,2.04.85,4.23,1.75,6.64,2.56,4.74,1.35,10.04,2.25,15.76,2.26,3.17.01,6.31-.27,9.41-.8.07-.01.15-.03.22-.04.3-.05.6-.11.89-.17.35-.07.7-.14,1.04-.22v-.01l-1.17-6.32c-.95-5.15,2.46-10.12,7.62-11.07,5.15-.95,10.11,2.47,11.06,7.62l.47,2.55c2.43-1.45,4.83-3.09,7.19-4.93,2.66-2.46,3.74-4.42,3.58-5.28ZM94.113,67.887c-.35-1.22-1.09-2.29-2.15-3.09-1.17-.89-2.64-1.38-4.07-1.38-.32,0-.63.02-.94.07-1.02.17-2.45.68-3.5,2.21-.38.55-1.1.73-1.69.42-.6-.31-1.32-.68-1.51-.77-.45-.15-.93-.24-1.42-.27-.44-.03-.88,0-1.32.08-.53.1-1.05.28-1.54.53-1.78.93-3.2,2.99-3.46,5.02-.27,2.09.61,4.1,2.28,5.25,3.2,2.21,8.7,5.99,11.01,7.58l5.7-8.28c.11-.17.23-.35.35-.52,1.6-2.3,2.98-4.29,2.26-6.85ZM94.113,67.887c-.35-1.22-1.09-2.29-2.15-3.09-1.17-.89-2.64-1.38-4.07-1.38-.32,0-.63.02-.94.07-1.02.17-2.45.68-3.5,2.21-.38.55-1.1.73-1.69.42-.6-.31-1.32-.68-1.51-.77-.45-.15-.93-.24-1.42-.27-.44-.03-.88,0-1.32.08-.53.1-1.05.28-1.54.53-1.78.93-3.2,2.99-3.46,5.02-.27,2.09.61,4.1,2.28,5.25,3.2,2.21,8.7,5.99,11.01,7.58l5.7-8.28c.11-.17.23-.35.35-.52,1.6-2.3,2.98-4.29,2.26-6.85ZM67.143,27.537c5.15-.95,10.11,2.47,11.06,7.62l.47,2.55c2.43-1.45,4.83-3.09,7.19-4.93,2.66-2.46,3.74-4.42,3.58-5.28-.9-4.89-15.5-7.83-35-4.23-7.48,1.38-15.87,4.39-23.02,8.26-8.14,4.4-9.79,7.21-9.79,7.76.01.01.03.03.07.06.05.03.11.06.17.09.02.01.05.02.07.03.03.02.07.03.1.04,1.53.53,3.07,1.17,4.69,1.84,2.04.85,4.23,1.75,6.64,2.56,4.74,1.35,10.04,2.25,15.76,2.26,3.17.01,6.31-.27,9.41-.8.07-.01.15-.03.22-.04.3-.05.6-.11.89-.17.35-.07.7-.14,1.04-.22v-.01l-1.17-6.32c-.95-5.15,2.46-10.12,7.62-11.07ZM75.623,35.637c-.69-3.73-4.28-6.2-8.01-5.51-3.72.69-6.19,4.28-5.51,8l1.14,6.18.01.02c.42-.11.83-.23,1.25-.36.32-.08.64-.18.97-.29,3.66-1.13,7.26-2.67,10.79-4.59l-.64-3.45ZM143.043,35.637c-3.5-4.14-8.02-7.35-13.1-9.27-5.22-1.97-10.89-2.52-16.41-1.58-.72.12-1.41-.36-1.54-1.08l-1.99-10.77c-.1-.56-.45-1.04-.96-1.31l-1.9-1c-.93-.49-23.17-11.98-53.12-6.45C36.533,7.397,20.043,15.757,5.003,29.017l-1.69,1.49c-.45.39-.68.98-.63,1.57l.21,2.25c.13,1.36,3.29,33.52,16.76,60.65,10.61,21.39,33.92,33.4,56.67,29.21l.6-.12c3.25-.64,6.42-1.53,9.41-2.66,11.03-4.16,19.71-13.53,23.23-25.06.78-2.57,1.48-4.67,2.08-6.25.16-.44.55-.76,1.01-.85l14.4-2.65c9.83-1.82,17.93-8.6,21.14-17.7,4.29-12.15,2.41-24.27-5.15-33.26ZM122.183,66.887l-9.65,1.78c-.71.13-1.4-.34-1.53-1.06l-3.56-19.28c-.13-.71.34-1.4,1.06-1.53l9.64-1.78c6.03-1.11,11.84,2.89,12.95,8.92,1.11,6.03-2.88,11.84-8.91,12.95ZM83.213,62.247c.98-.69,2.11-1.16,3.33-1.36,2.39-.38,5.02.3,7.01,1.81,1.52,1.16,2.58,2.7,3.09,4.47,1.06,3.76-.9,6.58-2.63,9.07-.11.17-.23.34-.35.51l-6.44,9.36c-.2.29-.5.48-.85.55-.53.1-.74-.04-1.5-.57l-1.37-.94c-1.14-.78-2.65-1.82-4.16-2.86l-6.04-4.16c-2.49-1.72-3.79-4.69-3.4-7.75.37-2.88,2.32-5.7,4.86-7.02,1.3-.68,2.76-.99,4.22-.91.55.04,1.1.13,1.64.27l-3.82-20.69c-2.45,1.24-5.37,2.52-8.73,3.64-.03.01-.05.02-.08.03-2.71.9-5.71,1.7-8.96,2.3-.24.04-.47.09-.71.13-.07.01-.13.02-.19.03-11.07,1.9-19,.47-25.37-1.63h-.01c-4.5-1.27-8.51-2.92-11.94-4.63l-.36-.18c-1.45-.81-1.53-2.09-1.49-2.65.02-.28.09-.62.26-1.02.74-1.8,3.33-4.84,11.41-9.14,7.28-3.86,15.78-6.88,23.32-8.27,9.33-1.72,18.35-2.11,25.4-1.09,7.63,1.11,12.03,3.69,12.73,7.46.03.13.04.27.05.42,1.95-1.82,3.88-3.78,5.78-5.87.5-.55,1.35-.59,1.89-.09.55.5.59,1.34.09,1.89-3.96,4.36-8.03,8.16-12.21,11.41l-.01.01c-1.31,1.2-2.89,2.43-4.71,3.66-.98.66-2.22,1.45-3.73,2.29l3.98,21.52ZM118.623,47.607l-8.35,1.54,3.08,16.69,8.35-1.54c4.6-.85,7.66-5.28,6.81-9.89-.85-4.6-5.29-7.65-9.89-6.8ZM78.833,65.077c-.44-.03-.88,0-1.32.08-.53.1-1.05.28-1.54.53-1.78.93-3.2,2.99-3.46,5.02-.27,2.09.61,4.1,2.28,5.25,3.2,2.21,8.7,5.99,11.01,7.58l5.7-8.28c.11-.17.23-.35.35-.52,1.6-2.3,2.98-4.29,2.26-6.85-.35-1.22-1.09-2.29-2.15-3.09-1.17-.89-2.64-1.38-4.07-1.38-.32,0-.63.02-.94.07-1.02.17-2.45.68-3.5,2.21-.38.55-1.1.73-1.69.42-.6-.31-1.32-.68-1.51-.77-.45-.15-.93-.24-1.42-.27ZM89.443,27.497c-.9-4.89-15.5-7.83-35-4.23-7.48,1.38-15.87,4.39-23.02,8.26-8.14,4.4-9.79,7.21-9.79,7.76.01.01.03.03.07.06.05.03.11.06.17.09.02.01.05.02.07.03.03.02.07.03.1.04,1.53.53,3.07,1.17,4.69,1.84,2.04.85,4.23,1.75,6.64,2.56,4.74,1.35,10.04,2.25,15.76,2.26,3.17.01,6.31-.27,9.41-.8.07-.01.15-.03.22-.04.3-.05.6-.11.89-.17.35-.07.7-.14,1.04-.22v-.01l-1.17-6.32c-.95-5.15,2.46-10.12,7.62-11.07,5.15-.95,10.11,2.47,11.06,7.62l.47,2.55c2.43-1.45,4.83-3.09,7.19-4.93,2.66-2.46,3.74-4.42,3.58-5.28ZM67.613,30.127c-3.72.69-6.19,4.28-5.51,8l1.14,6.18.01.02c.42-.11.83-.23,1.25-.36.32-.08.64-.18.97-.29,3.66-1.13,7.26-2.67,10.79-4.59l-.64-3.45c-.69-3.73-4.28-6.2-8.01-5.51ZM75.623,35.637c-.69-3.73-4.28-6.2-8.01-5.51-3.72.69-6.19,4.28-5.51,8l1.14,6.18.01.02c.42-.11.83-.23,1.25-.36.32-.08.64-.18.97-.29,3.66-1.13,7.26-2.67,10.79-4.59l-.64-3.45ZM89.443,27.497c-.9-4.89-15.5-7.83-35-4.23-7.48,1.38-15.87,4.39-23.02,8.26-8.14,4.4-9.79,7.21-9.79,7.76.01.01.03.03.07.06.05.03.11.06.17.09.02.01.05.02.07.03.03.02.07.03.1.04,1.53.53,3.07,1.17,4.69,1.84,2.04.85,4.23,1.75,6.64,2.56,4.74,1.35,10.04,2.25,15.76,2.26,3.17.01,6.31-.27,9.41-.8.07-.01.15-.03.22-.04.3-.05.6-.11.89-.17.35-.07.7-.14,1.04-.22v-.01l-1.17-6.32c-.95-5.15,2.46-10.12,7.62-11.07,5.15-.95,10.11,2.47,11.06,7.62l.47,2.55c2.43-1.45,4.83-3.09,7.19-4.93,2.66-2.46,3.74-4.42,3.58-5.28ZM94.113,67.887c-.35-1.22-1.09-2.29-2.15-3.09-1.17-.89-2.64-1.38-4.07-1.38-.32,0-.63.02-.94.07-1.02.17-2.45.68-3.5,2.21-.38.55-1.1.73-1.69.42-.6-.31-1.32-.68-1.51-.77-.45-.15-.93-.24-1.42-.27-.44-.03-.88,0-1.32.08-.53.1-1.05.28-1.54.53-1.78.93-3.2,2.99-3.46,5.02-.27,2.09.61,4.1,2.28,5.25,3.2,2.21,8.7,5.99,11.01,7.58l5.7-8.28c.11-.17.23-.35.35-.52,1.6-2.3,2.98-4.29,2.26-6.85ZM94.113,67.887c-.35-1.22-1.09-2.29-2.15-3.09-1.17-.89-2.64-1.38-4.07-1.38-.32,0-.63.02-.94.07-1.02.17-2.45.68-3.5,2.21-.38.55-1.1.73-1.69.42-.6-.31-1.32-.68-1.51-.77-.45-.15-.93-.24-1.42-.27-.44-.03-.88,0-1.32.08-.53.1-1.05.28-1.54.53-1.78.93-3.2,2.99-3.46,5.02-.27,2.09.61,4.1,2.28,5.25,3.2,2.21,8.7,5.99,11.01,7.58l5.7-8.28c.11-.17.23-.35.35-.52,1.6-2.3,2.98-4.29,2.26-6.85ZM89.443,27.497c-.9-4.89-15.5-7.83-35-4.23-7.48,1.38-15.87,4.39-23.02,8.26-8.14,4.4-9.79,7.21-9.79,7.76.01.01.03.03.07.06.05.03.11.06.17.09.02.01.05.02.07.03.03.02.07.03.1.04,1.53.53,3.07,1.17,4.69,1.84,2.04.85,4.23,1.75,6.64,2.56,4.74,1.35,10.04,2.25,15.76,2.26,3.17.01,6.31-.27,9.41-.8.07-.01.15-.03.22-.04.3-.05.6-.11.89-.17.35-.07.7-.14,1.04-.22v-.01l-1.17-6.32c-.95-5.15,2.46-10.12,7.62-11.07,5.15-.95,10.11,2.47,11.06,7.62l.47,2.55c2.43-1.45,4.83-3.09,7.19-4.93,2.66-2.46,3.74-4.42,3.58-5.28ZM75.623,35.637c-.69-3.73-4.28-6.2-8.01-5.51-3.72.69-6.19,4.28-5.51,8l1.14,6.18.01.02c.42-.11.83-.23,1.25-.36.32-.08.64-.18.97-.29,3.66-1.13,7.26-2.67,10.79-4.59l-.64-3.45ZM75.623,35.637c-.69-3.73-4.28-6.2-8.01-5.51-3.72.69-6.19,4.28-5.51,8l1.14,6.18.01.02c.42-.11.83-.23,1.25-.36.32-.08.64-.18.97-.29,3.66-1.13,7.26-2.67,10.79-4.59l-.64-3.45ZM89.443,27.497c-.9-4.89-15.5-7.83-35-4.23-7.48,1.38-15.87,4.39-23.02,8.26-8.14,4.4-9.79,7.21-9.79,7.76.01.01.03.03.07.06.05.03.11.06.17.09.02.01.05.02.07.03.03.02.07.03.1.04,1.53.53,3.07,1.17,4.69,1.84,2.04.85,4.23,1.75,6.64,2.56,4.74,1.35,10.04,2.25,15.76,2.26,3.17.01,6.31-.27,9.41-.8.07-.01.15-.03.22-.04.3-.05.6-.11.89-.17.35-.07.7-.14,1.04-.22v-.01l-1.17-6.32c-.95-5.15,2.46-10.12,7.62-11.07,5.15-.95,10.11,2.47,11.06,7.62l.47,2.55c2.43-1.45,4.83-3.09,7.19-4.93,2.66-2.46,3.74-4.42,3.58-5.28ZM89.443,27.497c-.9-4.89-15.5-7.83-35-4.23-7.48,1.38-15.87,4.39-23.02,8.26-8.14,4.4-9.79,7.21-9.79,7.76.01.01.03.03.07.06.05.03.11.06.17.09.02.01.05.02.07.03.03.02.07.03.1.04,1.53.53,3.07,1.17,4.69,1.84,2.04.85,4.23,1.75,6.64,2.56,4.74,1.35,10.04,2.25,15.76,2.26,3.17.01,6.31-.27,9.41-.8.07-.01.15-.03.22-.04.3-.05.6-.11.89-.17.35-.07.7-.14,1.04-.22v-.01l-1.17-6.32c-.95-5.15,2.46-10.12,7.62-11.07,5.15-.95,10.11,2.47,11.06,7.62l.47,2.55c2.43-1.45,4.83-3.09,7.19-4.93,2.66-2.46,3.74-4.42,3.58-5.28ZM75.623,35.637c-.69-3.73-4.28-6.2-8.01-5.51-3.72.69-6.19,4.28-5.51,8l1.14,6.18.01.02c.42-.11.83-.23,1.25-.36.32-.08.64-.18.97-.29,3.66-1.13,7.26-2.67,10.79-4.59l-.64-3.45ZM75.623,35.637c-.69-3.73-4.28-6.2-8.01-5.51-3.72.69-6.19,4.28-5.51,8l1.14,6.18.01.02c.42-.11.83-.23,1.25-.36.32-.08.64-.18.97-.29,3.66-1.13,7.26-2.67,10.79-4.59l-.64-3.45ZM75.623,35.637c-.69-3.73-4.28-6.2-8.01-5.51-3.72.69-6.19,4.28-5.51,8l1.14,6.18.01.02c.42-.11.83-.23,1.25-.36.32-.08.64-.18.97-.29,3.66-1.13,7.26-2.67,10.79-4.59l-.64-3.45ZM75.623,35.637c-.69-3.73-4.28-6.2-8.01-5.51-3.72.69-6.19,4.28-5.51,8l1.14,6.18c.43-.11.85-.22,1.26-.34.32-.08.64-.18.97-.29,3.66-1.13,7.26-2.67,10.79-4.59l-.64-3.45ZM75.623,35.637c-.69-3.73-4.28-6.2-8.01-5.51-3.72.69-6.19,4.28-5.51,8l1.14,6.18c.43-.11.85-.22,1.26-.34.32-.08.64-.18.97-.29,3.66-1.13,7.26-2.67,10.79-4.59l-.64-3.45Z"/>
          <path d="M145.093,33.917c-3.79-4.5-8.7-7.97-14.2-10.05-5.26-1.99-10.93-2.64-16.5-1.92l-1.75-9.49c-.26-1.38-1.11-2.54-2.35-3.19l-1.9-1.01c-.97-.51-24.01-12.41-54.86-6.72C35.563,4.857,18.643,13.427,3.233,27.007l-1.7,1.49c-1.08.96-1.65,2.39-1.51,3.83l.21,2.25c.13,1.38,3.34,34.02,17.02,61.59,11.14,22.46,35.63,35.07,59.56,30.65h.01l.61-.12c3.4-.67,6.71-1.6,9.85-2.78,11.8-4.46,21.09-14.47,24.84-26.79.65-2.14,1.24-3.95,1.76-5.38l13.66-2.52c10.76-1.99,19.65-9.44,23.18-19.44,4.61-13.07,2.56-26.14-5.63-35.87ZM148.193,68.897c-3.21,9.1-11.31,15.88-21.14,17.7l-14.4,2.65c-.46.09-.85.41-1.01.85-.6,1.58-1.3,3.68-2.08,6.25-3.52,11.53-12.2,20.9-23.23,25.06-2.99,1.13-6.16,2.02-9.41,2.66l-.6.12c-22.75,4.19-46.06-7.82-56.67-29.21C6.183,67.847,3.023,35.687,2.893,34.327l-.21-2.25c-.05-.59.18-1.18.63-1.57l1.69-1.49C20.043,15.757,36.533,7.397,54.023,4.177c29.95-5.53,52.19,5.96,53.12,6.45l1.9,1c.51.27.86.75.96,1.31l1.99,10.77c.13.72.82,1.2,1.54,1.08,5.52-.94,11.19-.39,16.41,1.58,5.08,1.92,9.6,5.13,13.1,9.27,7.56,8.99,9.44,21.11,5.15,33.26Z"/>
        </g>
        <path class="cls-1" d="M121.703,64.297l-8.35,1.54-3.08-16.69,8.35-1.54c4.6-.85,9.04,2.2,9.89,6.8.85,4.61-2.21,9.04-6.81,9.89Z"/>
        <g>
          <path class="cls-2" d="M76.263,39.087c-3.53,1.92-7.13,3.46-10.79,4.59-.33.11-.65.21-.97.29-.42.13-.83.25-1.25.36l-.01-.02-1.14-6.18c-.68-3.72,1.79-7.31,5.51-8,3.73-.69,7.32,1.78,8.01,5.51l.64,3.45Z"/>
          <path class="cls-2" d="M85.863,32.777c-2.36,1.84-4.76,3.48-7.19,4.93l-.47-2.55c-.95-5.15-5.91-8.57-11.06-7.62-5.16.95-8.57,5.92-7.62,11.07l1.17,6.32v.01c-.34.08-.69.15-1.04.22-.29.06-.59.12-.89.17-.07.01-.15.03-.22.04-3.1.53-6.24.81-9.41.8-5.72-.01-11.02-.91-15.76-2.26-2.41-.81-4.6-1.71-6.64-2.56-1.62-.67-3.16-1.31-4.69-1.84-.03-.01-.07-.02-.1-.04-.02-.01-.05-.02-.07-.03-.06-.03-.12-.06-.17-.09-.04-.03-.06-.05-.07-.06,0-.55,1.65-3.36,9.79-7.76,7.15-3.87,15.54-6.88,23.02-8.26,19.5-3.6,34.1-.66,35,4.23.16.86-.92,2.82-3.58,5.28Z"/>
          <path d="M59.653,45.157c.35-.07.7-.14,1.04-.22v-.01c-.35.08-.69.15-1.04.23ZM59.653,45.157c.35-.07.7-.14,1.04-.22v-.01c-.35.08-.69.15-1.04.23ZM59.653,45.157c.35-.07.7-.14,1.04-.22v-.01c-.35.08-.69.15-1.04.23ZM59.653,45.157c.35-.07.7-.14,1.04-.22v-.01c-.35.08-.69.15-1.04.23ZM63.243,44.307l.01.02c.42-.11.83-.23,1.25-.36-.41.12-.83.23-1.26.34ZM59.653,45.157c.35-.07.7-.14,1.04-.22v-.01c-.35.08-.69.15-1.04.23ZM59.653,45.157c.35-.07.7-.14,1.04-.22v-.01c-.35.08-.69.15-1.04.23ZM59.653,45.157c.35-.07.7-.14,1.04-.22v-.01c-.35.08-.69.15-1.04.23ZM59.653,45.157c.35-.07.7-.14,1.04-.22v-.01c-.35.08-.69.15-1.04.23ZM61.003,46.237c.26.49.81.77,1.39.67.62-.12,1.06-.65,1.07-1.27-.81.22-1.63.42-2.46.6ZM59.653,45.157c.35-.07.7-.14,1.04-.22v-.01c-.35.08-.69.15-1.04.23Z"/>
        </g>
        <g>
          <path d="M20.453,41.717c-1.59-.8-3.06-1.61-4.38-2.39-.64-.38-.85-1.2-.47-1.83.38-.64,1.2-.85,1.84-.47.57.34,1.16.68,1.78,1.02-.17.4-.24.74-.26,1.02-.04.56.04,1.84,1.49,2.65Z"/>
          <path d="M67.993,45.697c-2.77.95-5.57,1.69-8.4,2.21-.42.08-.85.15-1.27.22.24-.04.47-.09.71-.13,3.25-.6,6.25-1.4,8.96-2.3Z"/>
          <path d="M63.463,45.637c-.01.62-.45,1.15-1.07,1.27-.58.1-1.13-.18-1.39-.67.83-.18,1.65-.38,2.46-.6Z"/>
        </g>
        <g>
          <path d="M145.123,51.627c-1.14-6.93-5.02-13.02-10.92-17.16-6.05-4.26-13.66-5.93-20.87-4.6l-5.08.94-2.72-14.78c-.09-.46-.37-.84-.78-1.05-1.97-1.01-48.76-24.24-96.41,17.71-.36.31-.54.78-.5,1.26.13,1.33,3.36,32.84,16.25,58.82,4.68,9.43,12.34,17.25,21.56,22.03,9.34,4.83,19.62,6.38,29.76,4.51.19-.03.37-.07.55-.1,2.98-.59,5.88-1.41,8.62-2.44,4.78-1.81,9.15-4.77,12.65-8.58,3.46-3.76,6.08-8.35,7.58-13.29,2.34-7.67,3.43-9.51,3.76-9.94l15.09-2.78c6.91-1.28,12.95-5.15,16.98-10.91,4.04-5.75,5.63-12.72,4.48-19.64ZM138.453,69.727c-3.63,5.18-9.06,8.66-15.28,9.81l-15.34,2.83c-1.08.2-1.88,1.33-3.07,4.33-.72,1.82-1.57,4.32-2.51,7.42-2.83,9.28-9.79,16.81-18.62,20.14-2.6.98-5.35,1.76-8.19,2.32-9.73,1.92-19.6.47-28.56-4.16-8.72-4.52-15.96-11.92-20.39-20.84-11.86-23.91-15.41-52.63-15.92-57.29C54.603-4.083,97.533,14.487,103.003,17.107l2.86,15.5c.14.73.84,1.21,1.56,1.08l6.4-1.19c6.51-1.2,13.38.32,18.84,4.16,5.31,3.72,8.79,9.19,9.82,15.4,1.03,6.23-.4,12.5-4.03,17.67Z"/>
          <path d="M131.093,53.937c-1.11-6.03-6.92-10.03-12.95-8.92l-9.64,1.78c-.72.13-1.19.82-1.06,1.53l3.56,19.28c.13.72.82,1.19,1.53,1.06l9.65-1.78c6.03-1.11,10.02-6.92,8.91-12.95ZM113.353,65.837l-3.08-16.69,8.35-1.54c4.6-.85,9.04,2.2,9.89,6.8.85,4.61-2.21,9.04-6.81,9.89l-8.35,1.54Z"/>
        </g>
        <g>
          <path class="cls-2" d="M91.853,74.737c-.12.17-.24.35-.35.52l-5.7,8.28c-2.31-1.59-7.81-5.37-11.01-7.58-1.67-1.15-2.55-3.16-2.28-5.25.26-2.03,1.68-4.09,3.46-5.02.49-.25,1.01-.43,1.54-.53.44-.08.88-.11,1.32-.08.49.03.97.12,1.42.27.19.09.91.46,1.51.77.59.31,1.31.13,1.69-.42,1.05-1.53,2.48-2.04,3.5-2.21.31-.05.62-.07.94-.07,1.43,0,2.9.49,4.07,1.38,1.06.8,1.8,1.87,2.15,3.09.72,2.56-.66,4.55-2.26,6.85Z"/>
          <path d="M87.673,34.777l.01-.01c4.18-3.25,8.25-7.05,12.21-11.41.5-.55.46-1.39-.09-1.89-.54-.5-1.39-.46-1.89.09-1.9,2.09-3.83,4.05-5.78,5.87-.01-.15-.02-.29-.05-.42-.7-3.77-5.1-6.35-12.73-7.46-7.05-1.02-16.07-.63-25.4,1.09-7.54,1.39-16.04,4.41-23.32,8.27-8.08,4.3-10.67,7.34-11.41,9.14-.17.4-.24.74-.26,1.02-.04.56.04,1.84,1.49,2.65l.36.18c3.43,1.71,7.44,3.36,11.94,4.63h.01c6.37,2.1,14.3,3.53,25.37,1.63.06-.01.12-.02.19-.03.24-.04.47-.09.71-.13,3.25-.6,6.25-1.4,8.96-2.3.03-.01.05-.02.08-.03,3.36-1.12,6.28-2.4,8.73-3.64l3.82,20.69c-.54-.14-1.09-.23-1.64-.27-1.46-.08-2.92.23-4.22.91-2.54,1.32-4.49,4.14-4.86,7.02-.39,3.06.91,6.03,3.4,7.75l6.04,4.16c1.51,1.04,3.02,2.08,4.16,2.86l1.37.94c.76.53.97.67,1.5.57.35-.07.65-.26.85-.55l6.44-9.36c.12-.17.24-.34.35-.51,1.73-2.49,3.69-5.31,2.63-9.07-.51-1.77-1.57-3.31-3.09-4.47-1.99-1.51-4.62-2.19-7.01-1.81-1.22.2-2.35.67-3.33,1.36l-3.98-21.52c1.51-.84,2.75-1.63,3.73-2.29,1.82-1.23,3.4-2.46,4.71-3.66ZM83.453,65.697c1.05-1.53,2.48-2.04,3.5-2.21.31-.05.62-.07.94-.07,1.43,0,2.9.49,4.07,1.38,1.06.8,1.8,1.87,2.15,3.09.72,2.56-.66,4.55-2.26,6.85-.12.17-.24.35-.35.52l-5.7,8.28c-2.31-1.59-7.81-5.37-11.01-7.58-1.67-1.15-2.55-3.16-2.28-5.25.26-2.03,1.68-4.09,3.46-5.02.49-.25,1.01-.43,1.54-.53.44-.08.88-.11,1.32-.08.49.03.97.12,1.42.27.19.09.91.46,1.51.77.59.31,1.31.13,1.69-.42ZM62.393,46.907c-.58.1-1.13-.18-1.39-.67.83-.18,1.65-.38,2.46-.6-.01.62-.45,1.15-1.07,1.27ZM65.473,43.677c-.33.11-.65.21-.97.29-.42.13-.83.25-1.25.36l-.01-.02-1.14-6.18c-.68-3.72,1.79-7.31,5.51-8,3.73-.69,7.32,1.78,8.01,5.51l.64,3.45c-3.53,1.92-7.13,3.46-10.79,4.59ZM78.673,37.707l-.47-2.55c-.95-5.15-5.91-8.57-11.06-7.62-5.16.95-8.57,5.92-7.62,11.07l1.17,6.32v.01c-.34.08-.69.15-1.04.22-.29.06-.59.12-.89.17-.07.01-.15.03-.22.04-3.1.53-6.24.81-9.41.8-5.72-.01-11.02-.91-15.76-2.26-2.41-.81-4.6-1.71-6.64-2.56-1.62-.67-3.16-1.31-4.69-1.84-.03-.01-.07-.02-.1-.04-.02-.01-.05-.02-.07-.03-.06-.03-.12-.06-.17-.09-.04-.03-.06-.05-.07-.06,0-.55,1.65-3.36,9.79-7.76,7.15-3.87,15.54-6.88,23.02-8.26,19.5-3.6,34.1-.66,35,4.23.16.86-.92,2.82-3.58,5.28-2.36,1.84-4.76,3.48-7.19,4.93Z"/>
        </g>
        <path d="M63.463,45.637c-.01.62-.45,1.15-1.07,1.27-.58.1-1.13-.18-1.39-.67.83-.18,1.65-.38,2.46-.6Z"/>
      </g>
    </g>
  </g>
</svg>