<?xml version="1.0" encoding="UTF-8"?>
<svg xmlns="http://www.w3.org/2000/svg" version="1.1" viewBox="0 0 172.551 144.407">
  <defs>
    <style>
      .cls-1 {
        fill: #fff6ee;
      }

      .cls-2 {
        fill: #efa9d6;
      }
    </style>
  </defs>
  <!-- Generator: Adobe Illustrator 28.7.2, SVG Export Plug-In . SVG Version: 1.2.0 Build 154)  -->
  <g>
    <g id="Layer_2">
      <g>
        <g>
          <path class="cls-1" d="M157.191,101.699c-1.09-2.21-2.88-4.08-5.26-5.24-3.07-1.49-6.5-1.48-9.42-.25,1.67-4.87,4.26-14.44,3.69-25.68-.48-9.42-3.1-18.02-7.8-25.56-.66-1.06-1.36-2.1-2.11-3.11,3.83,3.39,7.19,6.95,10.06,10.67,6.51,8.46,10.51,17.78,11.9,27.7,1.19,8.52.21,16.06-1.06,21.47Z"/>
          <path class="cls-1" d="M111.351,25.749l-21.59,44.44c2.83-1.05,6.06-.99,8.98.43,2.7,1.31,4.66,3.55,5.65,6.16,1.89-4.85,4.95-13.22,7.2-21.9,2.01-7.78,2.99-14.25,2.91-19.24-.08-4.79-1.14-8.11-3.15-9.89ZM125.25,41.329c-1.79-4.8-4.6-8.83-8.37-12.02,1.57,5.83.83,14.65-2.22,26.4-2.47,9.5-5.88,18.64-7.73,23.32,2.95-1.28,6.42-1.31,9.54.2,2.62,1.27,4.54,3.42,5.56,5.92,1.78-4.87,4.42-13.26,5.34-22.38.83-8.24.12-15.45-2.12-21.44ZM143.01,70.569c-.46-8.85-2.94-16.92-7.35-23.97-2.59-4.15-5.87-7.97-9.8-11.42.93,1.59,1.72,3.29,2.39,5.08,2.4,6.45,3.17,14.16,2.28,22.9-1.07,10.52-4.24,19.88-6.06,24.56,3-1.35,6.55-1.41,9.73.13,2.71,1.32,4.67,3.57,5.66,6.18,1.56-4.93,3.67-13.61,3.15-23.46ZM109.981,21.289l-.01.01c.04.02.08.04.12.05-.03-.02-.07-.04-.11-.06ZM111.351,25.749l-21.59,44.44c2.83-1.05,6.06-.99,8.98.43,2.7,1.31,4.66,3.55,5.65,6.16,1.89-4.85,4.95-13.22,7.2-21.9,2.01-7.78,2.99-14.25,2.91-19.24-.08-4.79-1.14-8.11-3.15-9.89ZM125.25,41.329c-1.79-4.8-4.6-8.83-8.37-12.02,1.57,5.83.83,14.65-2.22,26.4-2.47,9.5-5.88,18.64-7.73,23.32,2.95-1.28,6.42-1.31,9.54.2,2.62,1.27,4.54,3.42,5.56,5.92,1.78-4.87,4.42-13.26,5.34-22.38.83-8.24.12-15.45-2.12-21.44ZM143.01,70.569c-.46-8.85-2.94-16.92-7.35-23.97-2.59-4.15-5.87-7.97-9.8-11.42.93,1.59,1.72,3.29,2.39,5.08,2.4,6.45,3.17,14.16,2.28,22.9-1.07,10.52-4.24,19.88-6.06,24.56,3-1.35,6.55-1.41,9.73.13,2.71,1.32,4.67,3.57,5.66,6.18,1.56-4.93,3.67-13.61,3.15-23.46ZM109.981,21.289l-.01.01c.04.02.08.04.12.05-.03-.02-.07-.04-.11-.06ZM98.77,27.999c-3.96,3.02-8.44,7.79-13.3,14.19-5.4,7.1-10.07,14.66-12.7,19.14,2.64-.79,5.57-.63,8.24.67,2.93,1.42,4.97,3.93,5.88,6.81l21.6-44.45c-2.64-.49-5.9.74-9.72,3.64ZM87.631,23.049c-6.09,1.94-12.22,5.83-18.19,11.57-6.66,6.39-11.66,13.69-14.39,18.09,2.64-.78,5.56-.62,8.23.68,3.15,1.53,5.28,4.31,6.07,7.46,2.52-4.34,7.6-12.71,13.57-20.57,7.34-9.67,13.82-15.7,19.37-18.07-4.86-.99-9.77-.71-14.66.84ZM65.701,13.399c-10.69.12-20.5,2.75-29.16,7.83-7.38,4.33-12.66,9.72-16.1,14.03,2.41-.52,5-.26,7.38.9,3.16,1.54,5.3,4.35,6.09,7.52,2.72-4.28,8.65-12.39,17.93-19,7.68-5.46,16.03-8.72,24.85-9.7,1.22-.14,2.45-.23,3.69-.27-5.06-.93-9.96-1.37-14.68-1.31ZM77.111,18.139c-8.26.9-16.11,3.95-23.32,9.07-7.93,5.62-13.38,12.55-16.3,16.84,2.59-.73,5.45-.55,8.06.72,3.14,1.52,5.27,4.3,6.07,7.44,2.59-4.33,7.98-12.55,15.56-19.84,6.34-6.1,12.88-10.25,19.45-12.34,1.81-.58,3.63-.99,5.44-1.25-5.13-.96-10.12-1.17-14.96-.64ZM108.581,24.159v.01l-.01.01c.2.09.4.18.6.27-.2-.1-.39-.2-.59-.29ZM98.77,27.999c-3.96,3.02-8.44,7.79-13.3,14.19-5.4,7.1-10.07,14.66-12.7,19.14,2.64-.79,5.57-.63,8.24.67,2.93,1.42,4.97,3.93,5.88,6.81l21.6-44.45c-2.64-.49-5.9.74-9.72,3.64ZM87.631,23.049c-6.09,1.94-12.22,5.83-18.19,11.57-6.66,6.39-11.66,13.69-14.39,18.09,2.64-.78,5.56-.62,8.23.68,3.15,1.53,5.28,4.31,6.07,7.46,2.52-4.34,7.6-12.71,13.57-20.57,7.34-9.67,13.82-15.7,19.37-18.07-4.86-.99-9.77-.71-14.66.84ZM65.701,13.399c-10.69.12-20.5,2.75-29.16,7.83-7.38,4.33-12.66,9.72-16.1,14.03,2.41-.52,5-.26,7.38.9,3.16,1.54,5.3,4.35,6.09,7.52,2.72-4.28,8.65-12.39,17.93-19,7.68-5.46,16.03-8.72,24.85-9.7,1.22-.14,2.45-.23,3.69-.27-5.06-.93-9.96-1.37-14.68-1.31ZM77.111,18.139c-8.26.9-16.11,3.95-23.32,9.07-7.93,5.62-13.38,12.55-16.3,16.84,2.59-.73,5.45-.55,8.06.72,3.14,1.52,5.27,4.3,6.07,7.44,2.59-4.33,7.98-12.55,15.56-19.84,6.34-6.1,12.88-10.25,19.45-12.34,1.81-.58,3.63-.99,5.44-1.25-5.13-.96-10.12-1.17-14.96-.64ZM109.981,21.289l-.01.01c.04.02.08.04.12.05-.03-.02-.07-.04-.11-.06ZM111.351,25.749l-21.59,44.44c2.83-1.05,6.06-.99,8.98.43,2.7,1.31,4.66,3.55,5.65,6.16,1.89-4.85,4.95-13.22,7.2-21.9,2.01-7.78,2.99-14.25,2.91-19.24-.08-4.79-1.14-8.11-3.15-9.89ZM125.25,41.329c-1.79-4.8-4.6-8.83-8.37-12.02,1.57,5.83.83,14.65-2.22,26.4-2.47,9.5-5.88,18.64-7.73,23.32,2.95-1.28,6.42-1.31,9.54.2,2.62,1.27,4.54,3.42,5.56,5.92,1.78-4.87,4.42-13.26,5.34-22.38.83-8.24.12-15.45-2.12-21.44ZM143.01,70.569c-.46-8.85-2.94-16.92-7.35-23.97-2.59-4.15-5.87-7.97-9.8-11.42.93,1.59,1.72,3.29,2.39,5.08,2.4,6.45,3.17,14.16,2.28,22.9-1.07,10.52-4.24,19.88-6.06,24.56,3-1.35,6.55-1.41,9.73.13,2.71,1.32,4.67,3.57,5.66,6.18,1.56-4.93,3.67-13.61,3.15-23.46ZM125.25,41.329c-1.79-4.8-4.6-8.83-8.37-12.02,1.57,5.83.83,14.65-2.22,26.4-2.47,9.5-5.88,18.64-7.73,23.32,2.95-1.28,6.42-1.31,9.54.2,2.62,1.27,4.54,3.42,5.56,5.92,1.78-4.87,4.42-13.26,5.34-22.38.83-8.24.12-15.45-2.12-21.44ZM143.01,70.569c-.46-8.85-2.94-16.92-7.35-23.97-2.59-4.15-5.87-7.97-9.8-11.42.93,1.59,1.72,3.29,2.39,5.08,2.4,6.45,3.17,14.16,2.28,22.9-1.07,10.52-4.24,19.88-6.06,24.56,3-1.35,6.55-1.41,9.73.13,2.71,1.32,4.67,3.57,5.66,6.18,1.56-4.93,3.67-13.61,3.15-23.46ZM111.351,25.749l-21.59,44.44c2.83-1.05,6.06-.99,8.98.43,2.7,1.31,4.66,3.55,5.65,6.16,1.89-4.85,4.95-13.22,7.2-21.9,2.01-7.78,2.99-14.25,2.91-19.24-.08-4.79-1.14-8.11-3.15-9.89ZM109.981,21.289l-.01.01c.04.02.08.04.12.05-.03-.02-.07-.04-.11-.06ZM108.581,24.159v.01l-.01.01c.2.09.4.18.6.27-.2-.1-.39-.2-.59-.29ZM98.77,27.999c-3.96,3.02-8.44,7.79-13.3,14.19-5.4,7.1-10.07,14.66-12.7,19.14,2.64-.79,5.57-.63,8.24.67,2.93,1.42,4.97,3.93,5.88,6.81l21.6-44.45c-2.64-.49-5.9.74-9.72,3.64ZM87.631,23.049c-6.09,1.94-12.22,5.83-18.19,11.57-6.66,6.39-11.66,13.69-14.39,18.09,2.64-.78,5.56-.62,8.23.68,3.15,1.53,5.28,4.31,6.07,7.46,2.52-4.34,7.6-12.71,13.57-20.57,7.34-9.67,13.82-15.7,19.37-18.07-4.86-.99-9.77-.71-14.66.84ZM65.701,13.399c-10.69.12-20.5,2.75-29.16,7.83-7.38,4.33-12.66,9.72-16.1,14.03,2.41-.52,5-.26,7.38.9,3.16,1.54,5.3,4.35,6.09,7.52,2.72-4.28,8.65-12.39,17.93-19,7.68-5.46,16.03-8.72,24.85-9.7,1.22-.14,2.45-.23,3.69-.27-5.06-.93-9.96-1.37-14.68-1.31ZM77.111,18.139c-8.26.9-16.11,3.95-23.32,9.07-7.93,5.62-13.38,12.55-16.3,16.84,2.59-.73,5.45-.55,8.06.72,3.14,1.52,5.27,4.3,6.07,7.44,2.59-4.33,7.98-12.55,15.56-19.84,6.34-6.1,12.88-10.25,19.45-12.34,1.81-.58,3.63-.99,5.44-1.25-5.13-.96-10.12-1.17-14.96-.64ZM108.581,24.159v.01l-.01.01c.2.09.4.18.6.27-.2-.1-.39-.2-.59-.29ZM98.77,27.999c-3.96,3.02-8.44,7.79-13.3,14.19-5.4,7.1-10.07,14.66-12.7,19.14,2.64-.79,5.57-.63,8.24.67,2.93,1.42,4.97,3.93,5.88,6.81l21.6-44.45c-2.64-.49-5.9.74-9.72,3.64ZM87.631,23.049c-6.09,1.94-12.22,5.83-18.19,11.57-6.66,6.39-11.66,13.69-14.39,18.09,2.64-.78,5.56-.62,8.23.68,3.15,1.53,5.28,4.31,6.07,7.46,2.52-4.34,7.6-12.71,13.57-20.57,7.34-9.67,13.82-15.7,19.37-18.07-4.86-.99-9.77-.71-14.66.84ZM65.701,13.399c-10.69.12-20.5,2.75-29.16,7.83-7.38,4.33-12.66,9.72-16.1,14.03,2.41-.52,5-.26,7.38.9,3.16,1.54,5.3,4.35,6.09,7.52,2.72-4.28,8.65-12.39,17.93-19,7.68-5.46,16.03-8.72,24.85-9.7,1.22-.14,2.45-.23,3.69-.27-5.06-.93-9.96-1.37-14.68-1.31ZM77.111,18.139c-8.26.9-16.11,3.95-23.32,9.07-7.93,5.62-13.38,12.55-16.3,16.84,2.59-.73,5.45-.55,8.06.72,3.14,1.52,5.27,4.3,6.07,7.44,2.59-4.33,7.98-12.55,15.56-19.84,6.34-6.1,12.88-10.25,19.45-12.34,1.81-.58,3.63-.99,5.44-1.25-5.13-.96-10.12-1.17-14.96-.64ZM109.981,21.289l-.01.01c.04.02.08.04.12.05-.03-.02-.07-.04-.11-.06ZM111.351,25.749l-21.59,44.44c2.83-1.05,6.06-.99,8.98.43,2.7,1.31,4.66,3.55,5.65,6.16,1.89-4.85,4.95-13.22,7.2-21.9,2.01-7.78,2.99-14.25,2.91-19.24-.08-4.79-1.14-8.11-3.15-9.89ZM125.25,41.329c-1.79-4.8-4.6-8.83-8.37-12.02,1.57,5.83.83,14.65-2.22,26.4-2.47,9.5-5.88,18.64-7.73,23.32,2.95-1.28,6.42-1.31,9.54.2,2.62,1.27,4.54,3.42,5.56,5.92,1.78-4.87,4.42-13.26,5.34-22.38.83-8.24.12-15.45-2.12-21.44ZM143.01,70.569c-.46-8.85-2.94-16.92-7.35-23.97-2.59-4.15-5.87-7.97-9.8-11.42.93,1.59,1.72,3.29,2.39,5.08,2.4,6.45,3.17,14.16,2.28,22.9-1.07,10.52-4.24,19.88-6.06,24.56,3-1.35,6.55-1.41,9.73.13,2.71,1.32,4.67,3.57,5.66,6.18,1.56-4.93,3.67-13.61,3.15-23.46ZM125.25,41.329c-1.79-4.8-4.6-8.83-8.37-12.02,1.57,5.83.83,14.65-2.22,26.4-2.47,9.5-5.88,18.64-7.73,23.32,2.95-1.28,6.42-1.31,9.54.2,2.62,1.27,4.54,3.42,5.56,5.92,1.78-4.87,4.42-13.26,5.34-22.38.83-8.24.12-15.45-2.12-21.44ZM143.01,70.569c-.46-8.85-2.94-16.92-7.35-23.97-2.59-4.15-5.87-7.97-9.8-11.42.93,1.59,1.72,3.29,2.39,5.08,2.4,6.45,3.17,14.16,2.28,22.9-1.07,10.52-4.24,19.88-6.06,24.56,3-1.35,6.55-1.41,9.73.13,2.71,1.32,4.67,3.57,5.66,6.18,1.56-4.93,3.67-13.61,3.15-23.46ZM111.351,25.749l-21.59,44.44c2.83-1.05,6.06-.99,8.98.43,2.7,1.31,4.66,3.55,5.65,6.16,1.89-4.85,4.95-13.22,7.2-21.9,2.01-7.78,2.99-14.25,2.91-19.24-.08-4.79-1.14-8.11-3.15-9.89ZM109.981,21.289l-.01.01c.04.02.08.04.12.05-.03-.02-.07-.04-.11-.06ZM108.581,24.159v.01l-.01.01c.2.09.4.18.6.27-.2-.1-.39-.2-.59-.29ZM98.77,27.999c-3.96,3.02-8.44,7.79-13.3,14.19-5.4,7.1-10.07,14.66-12.7,19.14,2.64-.79,5.57-.63,8.24.67,2.93,1.42,4.97,3.93,5.88,6.81l21.6-44.45c-2.64-.49-5.9.74-9.72,3.64ZM87.631,23.049c-6.09,1.94-12.22,5.83-18.19,11.57-6.66,6.39-11.66,13.69-14.39,18.09,2.64-.78,5.56-.62,8.23.68,3.15,1.53,5.28,4.31,6.07,7.46,2.52-4.34,7.6-12.71,13.57-20.57,7.34-9.67,13.82-15.7,19.37-18.07-4.86-.99-9.77-.71-14.66.84ZM65.701,13.399c-10.69.12-20.5,2.75-29.16,7.83-7.38,4.33-12.66,9.72-16.1,14.03,2.41-.52,5-.26,7.38.9,3.16,1.54,5.3,4.35,6.09,7.52,2.72-4.28,8.65-12.39,17.93-19,7.68-5.46,16.03-8.72,24.85-9.7,1.22-.14,2.45-.23,3.69-.27-5.06-.93-9.96-1.37-14.68-1.31ZM77.111,18.139c-8.26.9-16.11,3.95-23.32,9.07-7.93,5.62-13.38,12.55-16.3,16.84,2.59-.73,5.45-.55,8.06.72,3.14,1.52,5.27,4.3,6.07,7.44,2.59-4.33,7.98-12.55,15.56-19.84,6.34-6.1,12.88-10.25,19.45-12.34,1.81-.58,3.63-.99,5.44-1.25-5.13-.96-10.12-1.17-14.96-.64ZM108.581,24.159v.01l-.01.01c.2.09.4.18.6.27-.2-.1-.39-.2-.59-.29ZM98.77,27.999c-3.96,3.02-8.44,7.79-13.3,14.19-5.4,7.1-10.07,14.66-12.7,19.14,2.64-.79,5.57-.63,8.24.67,2.93,1.42,4.97,3.93,5.88,6.81l21.6-44.45c-2.64-.49-5.9.74-9.72,3.64ZM87.631,23.049c-6.09,1.94-12.22,5.83-18.19,11.57-6.66,6.39-11.66,13.69-14.39,18.09,2.64-.78,5.56-.62,8.23.68,3.15,1.53,5.28,4.31,6.07,7.46,2.52-4.34,7.6-12.71,13.57-20.57,7.34-9.67,13.82-15.7,19.37-18.07-4.86-.99-9.77-.71-14.66.84ZM65.701,13.399c-10.69.12-20.5,2.75-29.16,7.83-7.38,4.33-12.66,9.72-16.1,14.03,2.41-.52,5-.26,7.38.9,3.16,1.54,5.3,4.35,6.09,7.52,2.72-4.28,8.65-12.39,17.93-19,7.68-5.46,16.03-8.72,24.85-9.7,1.22-.14,2.45-.23,3.69-.27-5.06-.93-9.96-1.37-14.68-1.31ZM77.111,18.139c-8.26.9-16.11,3.95-23.32,9.07-7.93,5.62-13.38,12.55-16.3,16.84,2.59-.73,5.45-.55,8.06.72,3.14,1.52,5.27,4.3,6.07,7.44,2.59-4.33,7.98-12.55,15.56-19.84,6.34-6.1,12.88-10.25,19.45-12.34,1.81-.58,3.63-.99,5.44-1.25-5.13-.96-10.12-1.17-14.96-.64ZM109.981,21.289l-.01.01c.04.02.08.04.12.05-.03-.02-.07-.04-.11-.06ZM111.351,25.749l-21.59,44.44c2.83-1.05,6.06-.99,8.98.43,2.7,1.31,4.66,3.55,5.65,6.16,1.89-4.85,4.95-13.22,7.2-21.9,2.01-7.78,2.99-14.25,2.91-19.24-.08-4.79-1.14-8.11-3.15-9.89ZM125.25,41.329c-1.79-4.8-4.6-8.83-8.37-12.02,1.57,5.83.83,14.65-2.22,26.4-2.47,9.5-5.88,18.64-7.73,23.32,2.95-1.28,6.42-1.31,9.54.2,2.62,1.27,4.54,3.42,5.56,5.92,1.78-4.87,4.42-13.26,5.34-22.38.83-8.24.12-15.45-2.12-21.44ZM143.01,70.569c-.46-8.85-2.94-16.92-7.35-23.97-2.59-4.15-5.87-7.97-9.8-11.42.93,1.59,1.72,3.29,2.39,5.08,2.4,6.45,3.17,14.16,2.28,22.9-1.07,10.52-4.24,19.88-6.06,24.56,3-1.35,6.55-1.41,9.73.13,2.71,1.32,4.67,3.57,5.66,6.18,1.56-4.93,3.67-13.61,3.15-23.46ZM125.25,41.329c-1.79-4.8-4.6-8.83-8.37-12.02,1.57,5.83.83,14.65-2.22,26.4-2.47,9.5-5.88,18.64-7.73,23.32,2.95-1.28,6.42-1.31,9.54.2,2.62,1.27,4.54,3.42,5.56,5.92,1.78-4.87,4.42-13.26,5.34-22.38.83-8.24.12-15.45-2.12-21.44ZM143.01,70.569c-.46-8.85-2.94-16.92-7.35-23.97-2.59-4.15-5.87-7.97-9.8-11.42.93,1.59,1.72,3.29,2.39,5.08,2.4,6.45,3.17,14.16,2.28,22.9-1.07,10.52-4.24,19.88-6.06,24.56,3-1.35,6.55-1.41,9.73.13,2.71,1.32,4.67,3.57,5.66,6.18,1.56-4.93,3.67-13.61,3.15-23.46ZM111.351,25.749l-21.59,44.44c2.83-1.05,6.06-.99,8.98.43,2.7,1.31,4.66,3.55,5.65,6.16,1.89-4.85,4.95-13.22,7.2-21.9,2.01-7.78,2.99-14.25,2.91-19.24-.08-4.79-1.14-8.11-3.15-9.89ZM109.981,21.289l-.01.01c.04.02.08.04.12.05-.03-.02-.07-.04-.11-.06ZM108.581,24.159v.01l-.01.01c.2.09.4.18.6.27-.2-.1-.39-.2-.59-.29ZM98.77,27.999c-3.96,3.02-8.44,7.79-13.3,14.19-5.4,7.1-10.07,14.66-12.7,19.14,2.64-.79,5.57-.63,8.24.67,2.93,1.42,4.97,3.93,5.88,6.81l21.6-44.45c-2.64-.49-5.9.74-9.72,3.64ZM87.631,23.049c-6.09,1.94-12.22,5.83-18.19,11.57-6.66,6.39-11.66,13.69-14.39,18.09,2.64-.78,5.56-.62,8.23.68,3.15,1.53,5.28,4.31,6.07,7.46,2.52-4.34,7.6-12.71,13.57-20.57,7.34-9.67,13.82-15.7,19.37-18.07-4.86-.99-9.77-.71-14.66.84ZM65.701,13.399c-10.69.12-20.5,2.75-29.16,7.83-7.38,4.33-12.66,9.72-16.1,14.03,2.41-.52,5-.26,7.38.9,3.16,1.54,5.3,4.35,6.09,7.52,2.72-4.28,8.65-12.39,17.93-19,7.68-5.46,16.03-8.72,24.85-9.7,1.22-.14,2.45-.23,3.69-.27-5.06-.93-9.96-1.37-14.68-1.31ZM77.111,18.139c-8.26.9-16.11,3.95-23.32,9.07-7.93,5.62-13.38,12.55-16.3,16.84,2.59-.73,5.45-.55,8.06.72,3.14,1.52,5.27,4.3,6.07,7.44,2.59-4.33,7.98-12.55,15.56-19.84,6.34-6.1,12.88-10.25,19.45-12.34,1.81-.58,3.63-.99,5.44-1.25-5.13-.96-10.12-1.17-14.96-.64ZM87.631,23.049c-6.09,1.94-12.22,5.83-18.19,11.57-6.66,6.39-11.66,13.69-14.39,18.09,2.64-.78,5.56-.62,8.23.68,3.15,1.53,5.28,4.31,6.07,7.46,2.52-4.34,7.6-12.71,13.57-20.57,7.34-9.67,13.82-15.7,19.37-18.07-4.86-.99-9.77-.71-14.66.84ZM65.701,13.399c-10.69.12-20.5,2.75-29.16,7.83-7.38,4.33-12.66,9.72-16.1,14.03,2.41-.52,5-.26,7.38.9,3.16,1.54,5.3,4.35,6.09,7.52,2.72-4.28,8.65-12.39,17.93-19,7.68-5.46,16.03-8.72,24.85-9.7,1.22-.14,2.45-.23,3.69-.27-5.06-.93-9.96-1.37-14.68-1.31ZM77.111,18.139c-8.26.9-16.11,3.95-23.32,9.07-7.93,5.62-13.38,12.55-16.3,16.84,2.59-.73,5.45-.55,8.06.72,3.14,1.52,5.27,4.3,6.07,7.44,2.59-4.33,7.98-12.55,15.56-19.84,6.34-6.1,12.88-10.25,19.45-12.34,1.81-.58,3.63-.99,5.44-1.25-5.13-.96-10.12-1.17-14.96-.64ZM98.77,27.999c-3.96,3.02-8.44,7.79-13.3,14.19-5.4,7.1-10.07,14.66-12.7,19.14,2.64-.79,5.57-.63,8.24.67,2.93,1.42,4.97,3.93,5.88,6.81l21.6-44.45c-2.64-.49-5.9.74-9.72,3.64ZM108.581,24.159v.01l-.01.01c.2.09.4.18.6.27-.2-.1-.39-.2-.59-.29ZM109.981,21.289l-.01.01c.04.02.08.04.12.05-.03-.02-.07-.04-.11-.06ZM111.351,25.749l-21.59,44.44c2.83-1.05,6.06-.99,8.98.43,2.7,1.31,4.66,3.55,5.65,6.16,1.89-4.85,4.95-13.22,7.2-21.9,2.01-7.78,2.99-14.25,2.91-19.24-.08-4.79-1.14-8.11-3.15-9.89ZM125.25,41.329c-1.79-4.8-4.6-8.83-8.37-12.02,1.57,5.83.83,14.65-2.22,26.4-2.47,9.5-5.88,18.64-7.73,23.32,2.95-1.28,6.42-1.31,9.54.2,2.62,1.27,4.54,3.42,5.56,5.92,1.78-4.87,4.42-13.26,5.34-22.38.83-8.24.12-15.45-2.12-21.44ZM143.01,70.569c-.46-8.85-2.94-16.92-7.35-23.97-2.59-4.15-5.87-7.97-9.8-11.42.93,1.59,1.72,3.29,2.39,5.08,2.4,6.45,3.17,14.16,2.28,22.9-1.07,10.52-4.24,19.88-6.06,24.56,3-1.35,6.55-1.41,9.73.13,2.71,1.32,4.67,3.57,5.66,6.18,1.56-4.93,3.67-13.61,3.15-23.46ZM125.25,41.329c-1.79-4.8-4.6-8.83-8.37-12.02,1.57,5.83.83,14.65-2.22,26.4-2.47,9.5-5.88,18.64-7.73,23.32,2.95-1.28,6.42-1.31,9.54.2,2.62,1.27,4.54,3.42,5.56,5.92,1.78-4.87,4.42-13.26,5.34-22.38.83-8.24.12-15.45-2.12-21.44ZM143.01,70.569c-.46-8.85-2.94-16.92-7.35-23.97-2.59-4.15-5.87-7.97-9.8-11.42.93,1.59,1.72,3.29,2.39,5.08,2.4,6.45,3.17,14.16,2.28,22.9-1.07,10.52-4.24,19.88-6.06,24.56,3-1.35,6.55-1.41,9.73.13,2.71,1.32,4.67,3.57,5.66,6.18,1.56-4.93,3.67-13.61,3.15-23.46ZM111.351,25.749l-21.59,44.44c2.83-1.05,6.06-.99,8.98.43,2.7,1.31,4.66,3.55,5.65,6.16,1.89-4.85,4.95-13.22,7.2-21.9,2.01-7.78,2.99-14.25,2.91-19.24-.08-4.79-1.14-8.11-3.15-9.89ZM109.981,21.289l-.01.01c.04.02.08.04.12.05-.03-.02-.07-.04-.11-.06ZM108.581,24.159v.01l-.01.01c.2.09.4.18.6.27-.2-.1-.39-.2-.59-.29ZM98.77,27.999c-3.96,3.02-8.44,7.79-13.3,14.19-5.4,7.1-10.07,14.66-12.7,19.14,2.64-.79,5.57-.63,8.24.67,2.93,1.42,4.97,3.93,5.88,6.81l21.6-44.45c-2.64-.49-5.9.74-9.72,3.64ZM87.631,23.049c-6.09,1.94-12.22,5.83-18.19,11.57-6.66,6.39-11.66,13.69-14.39,18.09,2.64-.78,5.56-.62,8.23.68,3.15,1.53,5.28,4.31,6.07,7.46,2.52-4.34,7.6-12.71,13.57-20.57,7.34-9.67,13.82-15.7,19.37-18.07-4.86-.99-9.77-.71-14.66.84ZM65.701,13.399c-10.69.12-20.5,2.75-29.16,7.83-7.38,4.33-12.66,9.72-16.1,14.03,2.41-.52,5-.26,7.38.9,3.16,1.54,5.3,4.35,6.09,7.52,2.72-4.28,8.65-12.39,17.93-19,7.68-5.46,16.03-8.72,24.85-9.7,1.22-.14,2.45-.23,3.69-.27-5.06-.93-9.96-1.37-14.68-1.31ZM77.111,18.139c-8.26.9-16.11,3.95-23.32,9.07-7.93,5.62-13.38,12.55-16.3,16.84,2.59-.73,5.45-.55,8.06.72,3.14,1.52,5.27,4.3,6.07,7.44,2.59-4.33,7.98-12.55,15.56-19.84,6.34-6.1,12.88-10.25,19.45-12.34,1.81-.58,3.63-.99,5.44-1.25-5.13-.96-10.12-1.17-14.96-.64ZM65.701,13.399c-10.69.12-20.5,2.75-29.16,7.83-7.38,4.33-12.66,9.72-16.1,14.03,2.41-.52,5-.26,7.38.9,3.16,1.54,5.3,4.35,6.09,7.52,2.72-4.28,8.65-12.39,17.93-19,7.68-5.46,16.03-8.72,24.85-9.7,1.22-.14,2.45-.23,3.69-.27-5.06-.93-9.96-1.37-14.68-1.31ZM77.111,18.139c-8.26.9-16.11,3.95-23.32,9.07-7.93,5.62-13.38,12.55-16.3,16.84,2.59-.73,5.45-.55,8.06.72,3.14,1.52,5.27,4.3,6.07,7.44,2.59-4.33,7.98-12.55,15.56-19.84,6.34-6.1,12.88-10.25,19.45-12.34,1.81-.58,3.63-.99,5.44-1.25-5.13-.96-10.12-1.17-14.96-.64ZM87.631,23.049c-6.09,1.94-12.22,5.83-18.19,11.57-6.66,6.39-11.66,13.69-14.39,18.09,2.64-.78,5.56-.62,8.23.68,3.15,1.53,5.28,4.31,6.07,7.46,2.52-4.34,7.6-12.71,13.57-20.57,7.34-9.67,13.82-15.7,19.37-18.07-4.86-.99-9.77-.71-14.66.84ZM98.77,27.999c-3.96,3.02-8.44,7.79-13.3,14.19-5.4,7.1-10.07,14.66-12.7,19.14,2.64-.79,5.57-.63,8.24.67,2.93,1.42,4.97,3.93,5.88,6.81l21.6-44.45c-2.64-.49-5.9.74-9.72,3.64ZM108.581,24.159v.01l-.01.01c.2.09.4.18.6.27-.2-.1-.39-.2-.59-.29ZM109.981,21.289l-.01.01c.04.02.08.04.12.05-.03-.02-.07-.04-.11-.06ZM111.351,25.749l-21.59,44.44c2.83-1.05,6.06-.99,8.98.43,2.7,1.31,4.66,3.55,5.65,6.16,1.89-4.85,4.95-13.22,7.2-21.9,2.01-7.78,2.99-14.25,2.91-19.24-.08-4.79-1.14-8.11-3.15-9.89ZM125.25,41.329c-1.79-4.8-4.6-8.83-8.37-12.02,1.57,5.83.83,14.65-2.22,26.4-2.47,9.5-5.88,18.64-7.73,23.32,2.95-1.28,6.42-1.31,9.54.2,2.62,1.27,4.54,3.42,5.56,5.92,1.78-4.87,4.42-13.26,5.34-22.38.83-8.24.12-15.45-2.12-21.44ZM143.01,70.569c-.46-8.85-2.94-16.92-7.35-23.97-2.59-4.15-5.87-7.97-9.8-11.42.93,1.59,1.72,3.29,2.39,5.08,2.4,6.45,3.17,14.16,2.28,22.9-1.07,10.52-4.24,19.88-6.06,24.56,3-1.35,6.55-1.41,9.73.13,2.71,1.32,4.67,3.57,5.66,6.18,1.56-4.93,3.67-13.61,3.15-23.46ZM125.25,41.329c-1.79-4.8-4.6-8.83-8.37-12.02,1.57,5.83.83,14.65-2.22,26.4-2.47,9.5-5.88,18.64-7.73,23.32,2.95-1.28,6.42-1.31,9.54.2,2.62,1.27,4.54,3.42,5.56,5.92,1.78-4.87,4.42-13.26,5.34-22.38.83-8.24.12-15.45-2.12-21.44ZM143.01,70.569c-.46-8.85-2.94-16.92-7.35-23.97-2.59-4.15-5.87-7.97-9.8-11.42.93,1.59,1.72,3.29,2.39,5.08,2.4,6.45,3.17,14.16,2.28,22.9-1.07,10.52-4.24,19.88-6.06,24.56,3-1.35,6.55-1.41,9.73.13,2.71,1.32,4.67,3.57,5.66,6.18,1.56-4.93,3.67-13.61,3.15-23.46ZM111.351,25.749l-21.59,44.44c2.83-1.05,6.06-.99,8.98.43,2.7,1.31,4.66,3.55,5.65,6.16,1.89-4.85,4.95-13.22,7.2-21.9,2.01-7.78,2.99-14.25,2.91-19.24-.08-4.79-1.14-8.11-3.15-9.89ZM109.981,21.289l-.01.01c.04.02.08.04.12.05-.03-.02-.07-.04-.11-.06ZM108.581,24.159v.01l-.01.01c.2.09.4.18.6.27-.2-.1-.39-.2-.59-.29ZM98.77,27.999c-3.96,3.02-8.44,7.79-13.3,14.19-5.4,7.1-10.07,14.66-12.7,19.14,2.64-.79,5.57-.63,8.24.67,2.93,1.42,4.97,3.93,5.88,6.81l21.6-44.45c-2.64-.49-5.9.74-9.72,3.64ZM87.631,23.049c-6.09,1.94-12.22,5.83-18.19,11.57-6.66,6.39-11.66,13.69-14.39,18.09,2.64-.78,5.56-.62,8.23.68,3.15,1.53,5.28,4.31,6.07,7.46,2.52-4.34,7.6-12.71,13.57-20.57,7.34-9.67,13.82-15.7,19.37-18.07-4.86-.99-9.77-.71-14.66.84ZM77.111,18.139c-8.26.9-16.11,3.95-23.32,9.07-7.93,5.62-13.38,12.55-16.3,16.84,2.59-.73,5.45-.55,8.06.72,3.14,1.52,5.27,4.3,6.07,7.44,2.59-4.33,7.98-12.55,15.56-19.84,6.34-6.1,12.88-10.25,19.45-12.34,1.81-.58,3.63-.99,5.44-1.25-5.13-.96-10.12-1.17-14.96-.64ZM65.701,13.399c-10.69.12-20.5,2.75-29.16,7.83-7.38,4.33-12.66,9.72-16.1,14.03,2.41-.52,5-.26,7.38.9,3.16,1.54,5.3,4.35,6.09,7.52,2.72-4.28,8.65-12.39,17.93-19,7.68-5.46,16.03-8.72,24.85-9.7,1.22-.14,2.45-.23,3.69-.27-5.06-.93-9.96-1.37-14.68-1.31ZM65.701,13.399c-10.69.12-20.5,2.75-29.16,7.83-7.38,4.33-12.66,9.72-16.1,14.03,2.41-.52,5-.26,7.38.9,3.16,1.54,5.3,4.35,6.09,7.52,2.72-4.28,8.65-12.39,17.93-19,7.68-5.46,16.03-8.72,24.85-9.7,1.22-.14,2.45-.23,3.69-.27-5.06-.93-9.96-1.37-14.68-1.31ZM77.111,18.139c-8.26.9-16.11,3.95-23.32,9.07-7.93,5.62-13.38,12.55-16.3,16.84,2.59-.73,5.45-.55,8.06.72,3.14,1.52,5.27,4.3,6.07,7.44,2.59-4.33,7.98-12.55,15.56-19.84,6.34-6.1,12.88-10.25,19.45-12.34,1.81-.58,3.63-.99,5.44-1.25-5.13-.96-10.12-1.17-14.96-.64ZM87.631,23.049c-6.09,1.94-12.22,5.83-18.19,11.57-6.66,6.39-11.66,13.69-14.39,18.09,2.64-.78,5.56-.62,8.23.68,3.15,1.53,5.28,4.31,6.07,7.46,2.52-4.34,7.6-12.71,13.57-20.57,7.34-9.67,13.82-15.7,19.37-18.07-4.86-.99-9.77-.71-14.66.84ZM98.77,27.999c-3.96,3.02-8.44,7.79-13.3,14.19-5.4,7.1-10.07,14.66-12.7,19.14,2.64-.79,5.57-.63,8.24.67,2.93,1.42,4.97,3.93,5.88,6.81l21.6-44.45c-2.64-.49-5.9.74-9.72,3.64ZM108.581,24.159v.01l-.01.01c.2.09.4.18.6.27-.2-.1-.39-.2-.59-.29ZM109.981,21.289l-.01.01c.04.02.08.04.12.05-.03-.02-.07-.04-.11-.06ZM111.351,25.749l-21.59,44.44c2.83-1.05,6.06-.99,8.98.43,2.7,1.31,4.66,3.55,5.65,6.16,1.89-4.85,4.95-13.22,7.2-21.9,2.01-7.78,2.99-14.25,2.91-19.24-.08-4.79-1.14-8.11-3.15-9.89ZM125.25,41.329c-1.79-4.8-4.6-8.83-8.37-12.02,1.57,5.83.83,14.65-2.22,26.4-2.47,9.5-5.88,18.64-7.73,23.32,2.95-1.28,6.42-1.31,9.54.2,2.62,1.27,4.54,3.42,5.56,5.92,1.78-4.87,4.42-13.26,5.34-22.38.83-8.24.12-15.45-2.12-21.44ZM143.01,70.569c-.46-8.85-2.94-16.92-7.35-23.97-2.59-4.15-5.87-7.97-9.8-11.42.93,1.59,1.72,3.29,2.39,5.08,2.4,6.45,3.17,14.16,2.28,22.9-1.07,10.52-4.24,19.88-6.06,24.56,3-1.35,6.55-1.41,9.73.13,2.71,1.32,4.67,3.57,5.66,6.18,1.56-4.93,3.67-13.61,3.15-23.46ZM125.25,41.329c-1.79-4.8-4.6-8.83-8.37-12.02,1.57,5.83.83,14.65-2.22,26.4-2.47,9.5-5.88,18.64-7.73,23.32,2.95-1.28,6.42-1.31,9.54.2,2.62,1.27,4.54,3.42,5.56,5.92,1.78-4.87,4.42-13.26,5.34-22.38.83-8.24.12-15.45-2.12-21.44ZM143.01,70.569c-.46-8.85-2.94-16.92-7.35-23.97-2.59-4.15-5.87-7.97-9.8-11.42.93,1.59,1.72,3.29,2.39,5.08,2.4,6.45,3.17,14.16,2.28,22.9-1.07,10.52-4.24,19.88-6.06,24.56,3-1.35,6.55-1.41,9.73.13,2.71,1.32,4.67,3.57,5.66,6.18,1.56-4.93,3.67-13.61,3.15-23.46ZM111.351,25.749l-21.59,44.44c2.83-1.05,6.06-.99,8.98.43,2.7,1.31,4.66,3.55,5.65,6.16,1.89-4.85,4.95-13.22,7.2-21.9,2.01-7.78,2.99-14.25,2.91-19.24-.08-4.79-1.14-8.11-3.15-9.89ZM109.981,21.289l-.01.01c.04.02.08.04.12.05-.03-.02-.07-.04-.11-.06ZM108.581,24.159v.01l-.01.01c.2.09.4.18.6.27-.2-.1-.39-.2-.59-.29ZM98.77,27.999c-3.96,3.02-8.44,7.79-13.3,14.19-5.4,7.1-10.07,14.66-12.7,19.14,2.64-.79,5.57-.63,8.24.67,2.93,1.42,4.97,3.93,5.88,6.81l21.6-44.45c-2.64-.49-5.9.74-9.72,3.64ZM87.631,23.049c-6.09,1.94-12.22,5.83-18.19,11.57-6.66,6.39-11.66,13.69-14.39,18.09,2.64-.78,5.56-.62,8.23.68,3.15,1.53,5.28,4.31,6.07,7.46,2.52-4.34,7.6-12.71,13.57-20.57,7.34-9.67,13.82-15.7,19.37-18.07-4.86-.99-9.77-.71-14.66.84ZM77.111,18.139c-8.26.9-16.11,3.95-23.32,9.07-7.93,5.62-13.38,12.55-16.3,16.84,2.59-.73,5.45-.55,8.06.72,3.14,1.52,5.27,4.3,6.07,7.44,2.59-4.33,7.98-12.55,15.56-19.84,6.34-6.1,12.88-10.25,19.45-12.34,1.81-.58,3.63-.99,5.44-1.25-5.13-.96-10.12-1.17-14.96-.64ZM65.701,13.399c-10.69.12-20.5,2.75-29.16,7.83-7.38,4.33-12.66,9.72-16.1,14.03,2.41-.52,5-.26,7.38.9,3.16,1.54,5.3,4.35,6.09,7.52,2.72-4.28,8.65-12.39,17.93-19,7.68-5.46,16.03-8.72,24.85-9.7,1.22-.14,2.45-.23,3.69-.27-5.06-.93-9.96-1.37-14.68-1.31ZM28.941,62.539l-.91-4.63-4.22,2.16c-2.96,1.51-3.37,3.89-2.82,5.48.76,2.21,3.18,3.38,5.39,2.62,2.98-1.03,2.79-4.26,2.56-5.63ZM56.591,87.399l-1.11-5.68-5.17,2.64c-2.41,1.23-4.39,3.75-3.39,6.64.93,2.68,3.87,4.11,6.55,3.18,1.21-.42,3.94-1.92,3.12-6.78ZM65.701,13.399c-10.69.12-20.5,2.75-29.16,7.83-7.38,4.33-12.66,9.72-16.1,14.03,2.41-.52,5-.26,7.38.9,3.16,1.54,5.3,4.35,6.09,7.52,2.72-4.28,8.65-12.39,17.93-19,7.68-5.46,16.03-8.72,24.85-9.7,1.22-.14,2.45-.23,3.69-.27-5.06-.93-9.96-1.37-14.68-1.31ZM77.111,18.139c-8.26.9-16.11,3.95-23.32,9.07-7.93,5.62-13.38,12.55-16.3,16.84,2.59-.73,5.45-.55,8.06.72,3.14,1.52,5.27,4.3,6.07,7.44,2.59-4.33,7.98-12.55,15.56-19.84,6.34-6.1,12.88-10.25,19.45-12.34,1.81-.58,3.63-.99,5.44-1.25-5.13-.96-10.12-1.17-14.96-.64ZM87.631,23.049c-6.09,1.94-12.22,5.83-18.19,11.57-6.66,6.39-11.66,13.69-14.39,18.09,2.64-.78,5.56-.62,8.23.68,3.15,1.53,5.28,4.31,6.07,7.46,2.52-4.34,7.6-12.71,13.57-20.57,7.34-9.67,13.82-15.7,19.37-18.07-4.86-.99-9.77-.71-14.66.84ZM98.77,27.999c-3.96,3.02-8.44,7.79-13.3,14.19-5.4,7.1-10.07,14.66-12.7,19.14,2.64-.79,5.57-.63,8.24.67,2.93,1.42,4.97,3.93,5.88,6.81l21.6-44.45c-2.64-.49-5.9.74-9.72,3.64ZM108.581,24.159v.01l-.01.01c.2.09.4.18.6.27-.2-.1-.39-.2-.59-.29ZM109.981,21.289l-.01.01c.04.02.08.04.12.05-.03-.02-.07-.04-.11-.06ZM111.351,25.749l-21.59,44.44c2.83-1.05,6.06-.99,8.98.43,2.7,1.31,4.66,3.55,5.65,6.16,1.89-4.85,4.95-13.22,7.2-21.9,2.01-7.78,2.99-14.25,2.91-19.24-.08-4.79-1.14-8.11-3.15-9.89ZM125.25,41.329c-1.79-4.8-4.6-8.83-8.37-12.02,1.57,5.83.83,14.65-2.22,26.4-2.47,9.5-5.88,18.64-7.73,23.32,2.95-1.28,6.42-1.31,9.54.2,2.62,1.27,4.54,3.42,5.56,5.92,1.78-4.87,4.42-13.26,5.34-22.38.83-8.24.12-15.45-2.12-21.44ZM143.01,70.569c-.46-8.85-2.94-16.92-7.35-23.97-2.59-4.15-5.87-7.97-9.8-11.42.93,1.59,1.72,3.29,2.39,5.08,2.4,6.45,3.17,14.16,2.28,22.9-1.07,10.52-4.24,19.88-6.06,24.56,3-1.35,6.55-1.41,9.73.13,2.71,1.32,4.67,3.57,5.66,6.18,1.56-4.93,3.67-13.61,3.15-23.46ZM28.941,62.539l-.91-4.63-4.22,2.16c-2.96,1.51-3.37,3.89-2.82,5.48.76,2.21,3.18,3.38,5.39,2.62,2.98-1.03,2.79-4.26,2.56-5.63ZM56.591,87.399l-1.11-5.68-5.17,2.64c-2.41,1.23-4.39,3.75-3.39,6.64.93,2.68,3.87,4.11,6.55,3.18,1.21-.42,3.94-1.92,3.12-6.78ZM125.25,41.329c-1.79-4.8-4.6-8.83-8.37-12.02,1.57,5.83.83,14.65-2.22,26.4-2.47,9.5-5.88,18.64-7.73,23.32,2.95-1.28,6.42-1.31,9.54.2,2.62,1.27,4.54,3.42,5.56,5.92,1.78-4.87,4.42-13.26,5.34-22.38.83-8.24.12-15.45-2.12-21.44ZM143.01,70.569c-.46-8.85-2.94-16.92-7.35-23.97-2.59-4.15-5.87-7.97-9.8-11.42.93,1.59,1.72,3.29,2.39,5.08,2.4,6.45,3.17,14.16,2.28,22.9-1.07,10.52-4.24,19.88-6.06,24.56,3-1.35,6.55-1.41,9.73.13,2.71,1.32,4.67,3.57,5.66,6.18,1.56-4.93,3.67-13.61,3.15-23.46ZM111.351,25.749l-21.59,44.44c2.83-1.05,6.06-.99,8.98.43,2.7,1.31,4.66,3.55,5.65,6.16,1.89-4.85,4.95-13.22,7.2-21.9,2.01-7.78,2.99-14.25,2.91-19.24-.08-4.79-1.14-8.11-3.15-9.89ZM109.981,21.289l-.01.01c.04.02.08.04.12.05-.03-.02-.07-.04-.11-.06ZM108.581,24.159v.01l-.01.01c.2.09.4.18.6.27-.2-.1-.39-.2-.59-.29ZM98.77,27.999c-3.96,3.02-8.44,7.79-13.3,14.19-5.4,7.1-10.07,14.66-12.7,19.14,2.64-.79,5.57-.63,8.24.67,2.93,1.42,4.97,3.93,5.88,6.81l21.6-44.45c-2.64-.49-5.9.74-9.72,3.64ZM87.631,23.049c-6.09,1.94-12.22,5.83-18.19,11.57-6.66,6.39-11.66,13.69-14.39,18.09,2.64-.78,5.56-.62,8.23.68,3.15,1.53,5.28,4.31,6.07,7.46,2.52-4.34,7.6-12.71,13.57-20.57,7.34-9.67,13.82-15.7,19.37-18.07-4.86-.99-9.77-.71-14.66.84ZM77.111,18.139c-8.26.9-16.11,3.95-23.32,9.07-7.93,5.62-13.38,12.55-16.3,16.84,2.59-.73,5.45-.55,8.06.72,3.14,1.52,5.27,4.3,6.07,7.44,2.59-4.33,7.98-12.55,15.56-19.84,6.34-6.1,12.88-10.25,19.45-12.34,1.81-.58,3.63-.99,5.44-1.25-5.13-.96-10.12-1.17-14.96-.64ZM65.701,13.399c-10.69.12-20.5,2.75-29.16,7.83-7.38,4.33-12.66,9.72-16.1,14.03,2.41-.52,5-.26,7.38.9,3.16,1.54,5.3,4.35,6.09,7.52,2.72-4.28,8.65-12.39,17.93-19,7.68-5.46,16.03-8.72,24.85-9.7,1.22-.14,2.45-.23,3.69-.27-5.06-.93-9.96-1.37-14.68-1.31ZM28.941,62.539l-.91-4.63-4.22,2.16c-2.96,1.51-3.37,3.89-2.82,5.48.76,2.21,3.18,3.38,5.39,2.62,2.98-1.03,2.79-4.26,2.56-5.63ZM56.591,87.399l-1.11-5.68-5.17,2.64c-2.41,1.23-4.39,3.75-3.39,6.64.93,2.68,3.87,4.11,6.55,3.18,1.21-.42,3.94-1.92,3.12-6.78ZM65.701,13.399c-10.69.12-20.5,2.75-29.16,7.83-7.38,4.33-12.66,9.72-16.1,14.03,2.41-.52,5-.26,7.38.9,3.16,1.54,5.3,4.35,6.09,7.52,2.72-4.28,8.65-12.39,17.93-19,7.68-5.46,16.03-8.72,24.85-9.7,1.22-.14,2.45-.23,3.69-.27-5.06-.93-9.96-1.37-14.68-1.31ZM77.111,18.139c-8.26.9-16.11,3.95-23.32,9.07-7.93,5.62-13.38,12.55-16.3,16.84,2.59-.73,5.45-.55,8.06.72,3.14,1.52,5.27,4.3,6.07,7.44,2.59-4.33,7.98-12.55,15.56-19.84,6.34-6.1,12.88-10.25,19.45-12.34,1.81-.58,3.63-.99,5.44-1.25-5.13-.96-10.12-1.17-14.96-.64ZM87.631,23.049c-6.09,1.94-12.22,5.83-18.19,11.57-6.66,6.39-11.66,13.69-14.39,18.09,2.64-.78,5.56-.62,8.23.68,3.15,1.53,5.28,4.31,6.07,7.46,2.52-4.34,7.6-12.71,13.57-20.57,7.34-9.67,13.82-15.7,19.37-18.07-4.86-.99-9.77-.71-14.66.84ZM98.77,27.999c-3.96,3.02-8.44,7.79-13.3,14.19-5.4,7.1-10.07,14.66-12.7,19.14,2.64-.79,5.57-.63,8.24.67,2.93,1.42,4.97,3.93,5.88,6.81l21.6-44.45c-2.64-.49-5.9.74-9.72,3.64ZM108.581,24.159v.01l-.01.01c.2.09.4.18.6.27-.2-.1-.39-.2-.59-.29ZM109.981,21.289l-.01.01c.04.02.08.04.12.05-.03-.02-.07-.04-.11-.06ZM111.351,25.749l-21.59,44.44c2.83-1.05,6.06-.99,8.98.43,2.7,1.31,4.66,3.55,5.65,6.16,1.89-4.85,4.95-13.22,7.2-21.9,2.01-7.78,2.99-14.25,2.91-19.24-.08-4.79-1.14-8.11-3.15-9.89ZM125.25,41.329c-1.79-4.8-4.6-8.83-8.37-12.02,1.57,5.83.83,14.65-2.22,26.4-2.47,9.5-5.88,18.64-7.73,23.32,2.95-1.28,6.42-1.31,9.54.2,2.62,1.27,4.54,3.42,5.56,5.92,1.78-4.87,4.42-13.26,5.34-22.38.83-8.24.12-15.45-2.12-21.44ZM143.01,70.569c-.46-8.85-2.94-16.92-7.35-23.97-2.59-4.15-5.87-7.97-9.8-11.42.93,1.59,1.72,3.29,2.39,5.08,2.4,6.45,3.17,14.16,2.28,22.9-1.07,10.52-4.24,19.88-6.06,24.56,3-1.35,6.55-1.41,9.73.13,2.71,1.32,4.67,3.57,5.66,6.18,1.56-4.93,3.67-13.61,3.15-23.46ZM28.941,62.539l-.91-4.63-4.22,2.16c-2.96,1.51-3.37,3.89-2.82,5.48.76,2.21,3.18,3.38,5.39,2.62,2.98-1.03,2.79-4.26,2.56-5.63ZM56.591,87.399l-1.11-5.68-5.17,2.64c-2.41,1.23-4.39,3.75-3.39,6.64.93,2.68,3.87,4.11,6.55,3.18,1.21-.42,3.94-1.92,3.12-6.78ZM125.25,41.329c-1.79-4.8-4.6-8.83-8.37-12.02,1.57,5.83.83,14.65-2.22,26.4-2.47,9.5-5.88,18.64-7.73,23.32,2.95-1.28,6.42-1.31,9.54.2,2.62,1.27,4.54,3.42,5.56,5.92,1.78-4.87,4.42-13.26,5.34-22.38.83-8.24.12-15.45-2.12-21.44ZM143.01,70.569c-.46-8.85-2.94-16.92-7.35-23.97-2.59-4.15-5.87-7.97-9.8-11.42.93,1.59,1.72,3.29,2.39,5.08,2.4,6.45,3.17,14.16,2.28,22.9-1.07,10.52-4.24,19.88-6.06,24.56,3-1.35,6.55-1.41,9.73.13,2.71,1.32,4.67,3.57,5.66,6.18,1.56-4.93,3.67-13.61,3.15-23.46ZM111.351,25.749l-21.59,44.44c2.83-1.05,6.06-.99,8.98.43,2.7,1.31,4.66,3.55,5.65,6.16,1.89-4.85,4.95-13.22,7.2-21.9,2.01-7.78,2.99-14.25,2.91-19.24-.08-4.79-1.14-8.11-3.15-9.89ZM109.981,21.289l-.01.01c.04.02.08.04.12.05-.03-.02-.07-.04-.11-.06ZM108.581,24.159v.01l-.01.01c.2.09.4.18.6.27-.2-.1-.39-.2-.59-.29ZM98.77,27.999c-3.96,3.02-8.44,7.79-13.3,14.19-5.4,7.1-10.07,14.66-12.7,19.14,2.64-.79,5.57-.63,8.24.67,2.93,1.42,4.97,3.93,5.88,6.81l21.6-44.45c-2.64-.49-5.9.74-9.72,3.64ZM87.631,23.049c-6.09,1.94-12.22,5.83-18.19,11.57-6.66,6.39-11.66,13.69-14.39,18.09,2.64-.78,5.56-.62,8.23.68,3.15,1.53,5.28,4.31,6.07,7.46,2.52-4.34,7.6-12.71,13.57-20.57,7.34-9.67,13.82-15.7,19.37-18.07-4.86-.99-9.77-.71-14.66.84ZM77.111,18.139c-8.26.9-16.11,3.95-23.32,9.07-7.93,5.62-13.38,12.55-16.3,16.84,2.59-.73,5.45-.55,8.06.72,3.14,1.52,5.27,4.3,6.07,7.44,2.59-4.33,7.98-12.55,15.56-19.84,6.34-6.1,12.88-10.25,19.45-12.34,1.81-.58,3.63-.99,5.44-1.25-5.13-.96-10.12-1.17-14.96-.64ZM65.701,13.399c-10.69.12-20.5,2.75-29.16,7.83-7.38,4.33-12.66,9.72-16.1,14.03,2.41-.52,5-.26,7.38.9,3.16,1.54,5.3,4.35,6.09,7.52,2.72-4.28,8.65-12.39,17.93-19,7.68-5.46,16.03-8.72,24.85-9.7,1.22-.14,2.45-.23,3.69-.27-5.06-.93-9.96-1.37-14.68-1.31ZM28.941,62.539l-.91-4.63-4.22,2.16c-2.96,1.51-3.37,3.89-2.82,5.48.76,2.21,3.18,3.38,5.39,2.62,2.98-1.03,2.79-4.26,2.56-5.63ZM56.591,87.399l-1.11-5.68-5.17,2.64c-2.41,1.23-4.39,3.75-3.39,6.64.93,2.68,3.87,4.11,6.55,3.18,1.21-.42,3.94-1.92,3.12-6.78ZM65.701,13.399c-10.69.12-20.5,2.75-29.16,7.83-7.38,4.33-12.66,9.72-16.1,14.03,2.41-.52,5-.26,7.38.9,3.16,1.54,5.3,4.35,6.09,7.52,2.72-4.28,8.65-12.39,17.93-19,7.68-5.46,16.03-8.72,24.85-9.7,1.22-.14,2.45-.23,3.69-.27-5.06-.93-9.96-1.37-14.68-1.31ZM77.111,18.139c-8.26.9-16.11,3.95-23.32,9.07-7.93,5.62-13.38,12.55-16.3,16.84,2.59-.73,5.45-.55,8.06.72,3.14,1.52,5.27,4.3,6.07,7.44,2.59-4.33,7.98-12.55,15.56-19.84,6.34-6.1,12.88-10.25,19.45-12.34,1.81-.58,3.63-.99,5.44-1.25-5.13-.96-10.12-1.17-14.96-.64ZM87.631,23.049c-6.09,1.94-12.22,5.83-18.19,11.57-6.66,6.39-11.66,13.69-14.39,18.09,2.64-.78,5.56-.62,8.23.68,3.15,1.53,5.28,4.31,6.07,7.46,2.52-4.34,7.6-12.71,13.57-20.57,7.34-9.67,13.82-15.7,19.37-18.07-4.86-.99-9.77-.71-14.66.84ZM98.77,27.999c-3.96,3.02-8.44,7.79-13.3,14.19-5.4,7.1-10.07,14.66-12.7,19.14,2.64-.79,5.57-.63,8.24.67,2.93,1.42,4.97,3.93,5.88,6.81l21.6-44.45c-2.64-.49-5.9.74-9.72,3.64ZM108.581,24.159v.01l-.01.01c.2.09.4.18.6.27-.2-.1-.39-.2-.59-.29ZM109.981,21.289l-.01.01c.04.02.08.04.12.05-.03-.02-.07-.04-.11-.06ZM111.351,25.749l-21.59,44.44c2.83-1.05,6.06-.99,8.98.43,2.7,1.31,4.66,3.55,5.65,6.16,1.89-4.85,4.95-13.22,7.2-21.9,2.01-7.78,2.99-14.25,2.91-19.24-.08-4.79-1.14-8.11-3.15-9.89ZM125.25,41.329c-1.79-4.8-4.6-8.83-8.37-12.02,1.57,5.83.83,14.65-2.22,26.4-2.47,9.5-5.88,18.64-7.73,23.32,2.95-1.28,6.42-1.31,9.54.2,2.62,1.27,4.54,3.42,5.56,5.92,1.78-4.87,4.42-13.26,5.34-22.38.83-8.24.12-15.45-2.12-21.44ZM143.01,70.569c-.46-8.85-2.94-16.92-7.35-23.97-2.59-4.15-5.87-7.97-9.8-11.42.93,1.59,1.72,3.29,2.39,5.08,2.4,6.45,3.17,14.16,2.28,22.9-1.07,10.52-4.24,19.88-6.06,24.56,3-1.35,6.55-1.41,9.73.13,2.71,1.32,4.67,3.57,5.66,6.18,1.56-4.93,3.67-13.61,3.15-23.46ZM28.941,62.539l-.91-4.63-4.22,2.16c-2.96,1.51-3.37,3.89-2.82,5.48.76,2.21,3.18,3.38,5.39,2.62,2.98-1.03,2.79-4.26,2.56-5.63ZM56.591,87.399l-1.11-5.68-5.17,2.64c-2.41,1.23-4.39,3.75-3.39,6.64.93,2.68,3.87,4.11,6.55,3.18,1.21-.42,3.94-1.92,3.12-6.78ZM143.01,70.569c-.46-8.85-2.94-16.92-7.35-23.97-2.59-4.15-5.87-7.97-9.8-11.42.93,1.59,1.72,3.29,2.39,5.08,2.4,6.45,3.17,14.16,2.28,22.9-1.07,10.52-4.24,19.88-6.06,24.56,3-1.35,6.55-1.41,9.73.13,2.71,1.32,4.67,3.57,5.66,6.18,1.56-4.93,3.67-13.61,3.15-23.46ZM125.25,41.329c-1.79-4.8-4.6-8.83-8.37-12.02,1.57,5.83.83,14.65-2.22,26.4-2.47,9.5-5.88,18.64-7.73,23.32,2.95-1.28,6.42-1.31,9.54.2,2.62,1.27,4.54,3.42,5.56,5.92,1.78-4.87,4.42-13.26,5.34-22.38.83-8.24.12-15.45-2.12-21.44ZM111.351,25.749l-21.59,44.44c2.83-1.05,6.06-.99,8.98.43,2.7,1.31,4.66,3.55,5.65,6.16,1.89-4.85,4.95-13.22,7.2-21.9,2.01-7.78,2.99-14.25,2.91-19.24-.08-4.79-1.14-8.11-3.15-9.89ZM109.981,21.289l-.01.01c.04.02.08.04.12.05-.03-.02-.07-.04-.11-.06ZM108.581,24.159v.01l-.01.01c.2.09.4.18.6.27-.2-.1-.39-.2-.59-.29ZM98.77,27.999c-3.96,3.02-8.44,7.79-13.3,14.19-5.4,7.1-10.07,14.66-12.7,19.14,2.64-.79,5.57-.63,8.24.67,2.93,1.42,4.97,3.93,5.88,6.81l21.6-44.45c-2.64-.49-5.9.74-9.72,3.64ZM87.631,23.049c-6.09,1.94-12.22,5.83-18.19,11.57-6.66,6.39-11.66,13.69-14.39,18.09,2.64-.78,5.56-.62,8.23.68,3.15,1.53,5.28,4.31,6.07,7.46,2.52-4.34,7.6-12.71,13.57-20.57,7.34-9.67,13.82-15.7,19.37-18.07-4.86-.99-9.77-.71-14.66.84ZM77.111,18.139c-8.26.9-16.11,3.95-23.32,9.07-7.93,5.62-13.38,12.55-16.3,16.84,2.59-.73,5.45-.55,8.06.72,3.14,1.52,5.27,4.3,6.07,7.44,2.59-4.33,7.98-12.55,15.56-19.84,6.34-6.1,12.88-10.25,19.45-12.34,1.81-.58,3.63-.99,5.44-1.25-5.13-.96-10.12-1.17-14.96-.64ZM65.701,13.399c-10.69.12-20.5,2.75-29.16,7.83-7.38,4.33-12.66,9.72-16.1,14.03,2.41-.52,5-.26,7.38.9,3.16,1.54,5.3,4.35,6.09,7.52,2.72-4.28,8.65-12.39,17.93-19,7.68-5.46,16.03-8.72,24.85-9.7,1.22-.14,2.45-.23,3.69-.27-5.06-.93-9.96-1.37-14.68-1.31ZM28.941,62.539l-.91-4.63-4.22,2.16c-2.96,1.51-3.37,3.89-2.82,5.48.76,2.21,3.18,3.38,5.39,2.62,2.98-1.03,2.79-4.26,2.56-5.63ZM56.591,87.399l-1.11-5.68-5.17,2.64c-2.41,1.23-4.39,3.75-3.39,6.64.93,2.68,3.87,4.11,6.55,3.18,1.21-.42,3.94-1.92,3.12-6.78ZM65.701,13.399c-10.69.12-20.5,2.75-29.16,7.83-7.38,4.33-12.66,9.72-16.1,14.03,2.41-.52,5-.26,7.38.9,3.16,1.54,5.3,4.35,6.09,7.52,2.72-4.28,8.65-12.39,17.93-19,7.68-5.46,16.03-8.72,24.85-9.7,1.22-.14,2.45-.23,3.69-.27-5.06-.93-9.96-1.37-14.68-1.31ZM77.111,18.139c-8.26.9-16.11,3.95-23.32,9.07-7.93,5.62-13.38,12.55-16.3,16.84,2.59-.73,5.45-.55,8.06.72,3.14,1.52,5.27,4.3,6.07,7.44,2.59-4.33,7.98-12.55,15.56-19.84,6.34-6.1,12.88-10.25,19.45-12.34,1.81-.58,3.63-.99,5.44-1.25-5.13-.96-10.12-1.17-14.96-.64ZM87.631,23.049c-6.09,1.94-12.22,5.83-18.19,11.57-6.66,6.39-11.66,13.69-14.39,18.09,2.64-.78,5.56-.62,8.23.68,3.15,1.53,5.28,4.31,6.07,7.46,2.52-4.34,7.6-12.71,13.57-20.57,7.34-9.67,13.82-15.7,19.37-18.07-4.86-.99-9.77-.71-14.66.84ZM98.77,27.999c-3.96,3.02-8.44,7.79-13.3,14.19-5.4,7.1-10.07,14.66-12.7,19.14,2.64-.79,5.57-.63,8.24.67,2.93,1.42,4.97,3.93,5.88,6.81l21.6-44.45c-2.64-.49-5.9.74-9.72,3.64ZM108.581,24.159v.01l-.01.01c.2.09.4.18.6.27-.2-.1-.39-.2-.59-.29ZM109.981,21.289l-.01.01c.04.02.08.04.12.05-.03-.02-.07-.04-.11-.06ZM111.351,25.749l-21.59,44.44c2.83-1.05,6.06-.99,8.98.43,2.7,1.31,4.66,3.55,5.65,6.16,1.89-4.85,4.95-13.22,7.2-21.9,2.01-7.78,2.99-14.25,2.91-19.24-.08-4.79-1.14-8.11-3.15-9.89ZM125.25,41.329c-1.79-4.8-4.6-8.83-8.37-12.02,1.57,5.83.83,14.65-2.22,26.4-2.47,9.5-5.88,18.64-7.73,23.32,2.95-1.28,6.42-1.31,9.54.2,2.62,1.27,4.54,3.42,5.56,5.92,1.78-4.87,4.42-13.26,5.34-22.38.83-8.24.12-15.45-2.12-21.44ZM143.01,70.569c-.46-8.85-2.94-16.92-7.35-23.97-2.59-4.15-5.87-7.97-9.8-11.42.93,1.59,1.72,3.29,2.39,5.08,2.4,6.45,3.17,14.16,2.28,22.9-1.07,10.52-4.24,19.88-6.06,24.56,3-1.35,6.55-1.41,9.73.13,2.71,1.32,4.67,3.57,5.66,6.18,1.56-4.93,3.67-13.61,3.15-23.46ZM143.01,70.569c-.46-8.85-2.94-16.92-7.35-23.97-2.59-4.15-5.87-7.97-9.8-11.42.93,1.59,1.72,3.29,2.39,5.08,2.4,6.45,3.17,14.16,2.28,22.9-1.07,10.52-4.24,19.88-6.06,24.56,3-1.35,6.55-1.41,9.73.13,2.71,1.32,4.67,3.57,5.66,6.18,1.56-4.93,3.67-13.61,3.15-23.46ZM125.25,41.329c-1.79-4.8-4.6-8.83-8.37-12.02,1.57,5.83.83,14.65-2.22,26.4-2.47,9.5-5.88,18.64-7.73,23.32,2.95-1.28,6.42-1.31,9.54.2,2.62,1.27,4.54,3.42,5.56,5.92,1.78-4.87,4.42-13.26,5.34-22.38.83-8.24.12-15.45-2.12-21.44ZM114.5,35.639c-.08-4.79-1.14-8.11-3.15-9.89l-21.59,44.44c2.83-1.05,6.06-.99,8.98.43,2.7,1.31,4.66,3.55,5.65,6.16,1.89-4.85,4.95-13.22,7.2-21.9,2.01-7.78,2.99-14.25,2.91-19.24ZM109.981,21.289l-.01.01c.04.02.08.04.12.05-.03-.02-.07-.04-.11-.06ZM108.581,24.159v.01l-.01.01c.2.09.4.18.6.27-.2-.1-.39-.2-.59-.29ZM98.77,27.999c-3.96,3.02-8.44,7.79-13.3,14.19-5.4,7.1-10.07,14.66-12.7,19.14,2.64-.79,5.57-.63,8.24.67,2.93,1.42,4.97,3.93,5.88,6.81l21.6-44.45c-2.64-.49-5.9.74-9.72,3.64ZM102.291,22.209c-4.86-.99-9.77-.71-14.66.84-6.09,1.94-12.22,5.83-18.19,11.57-6.66,6.39-11.66,13.69-14.39,18.09,2.64-.78,5.56-.62,8.23.68,3.15,1.53,5.28,4.31,6.07,7.46,2.52-4.34,7.6-12.71,13.57-20.57,7.34-9.67,13.82-15.7,19.37-18.07ZM67.181,32.369c6.34-6.1,12.88-10.25,19.45-12.34,1.81-.58,3.63-.99,5.44-1.25-5.13-.96-10.12-1.17-14.96-.64-8.26.9-16.11,3.95-23.32,9.07-7.93,5.62-13.38,12.55-16.3,16.84,2.59-.73,5.45-.55,8.06.72,3.14,1.52,5.27,4.3,6.07,7.44,2.59-4.33,7.98-12.55,15.56-19.84ZM51.841,24.679c7.68-5.46,16.03-8.72,24.85-9.7,1.22-.14,2.45-.23,3.69-.27-5.06-.93-9.96-1.37-14.68-1.31-10.69.12-20.5,2.75-29.16,7.83-7.38,4.33-12.66,9.72-16.1,14.03,2.41-.52,5-.26,7.38.9,3.16,1.54,5.3,4.35,6.09,7.52,2.72-4.28,8.65-12.39,17.93-19ZM56.591,87.399l-1.11-5.68-5.17,2.64c-2.41,1.23-4.39,3.75-3.39,6.64.93,2.68,3.87,4.11,6.55,3.18,1.21-.42,3.94-1.92,3.12-6.78ZM28.941,62.539l-.91-4.63-4.22,2.16c-2.96,1.51-3.37,3.89-2.82,5.48.76,2.21,3.18,3.38,5.39,2.62,2.98-1.03,2.79-4.26,2.56-5.63ZM165.121,64.849c-3.33-8.48-8.64-16.38-15.78-23.47-7.69-7.65-17.58-14.44-29.4-20.19-.79-.38-1.12-1.33-.74-2.12l.24-.48c1.38-2.85.19-6.29-2.66-7.68-2.85-1.38-6.29-.19-7.67,2.66l-.23.46c-.38.79-1.33,1.12-2.12.73C83.201,3.319,62.091.339,43.991,5.909c-8.01,2.47-15.4,6.64-21.97,12.39-6.15,5.37-11.59,12.13-16.17,20.08-2.46,4.29-3.25,9.04-2.23,13.36.83,3.58,2.71,6.17,5.59,7.7.44.24.75.67.83,1.16.01.06.99,5.96,4.19,11.7,4.14,7.44,9.9,11.14,17.11,11.01.26,0,.5.06.73.16.2.1.38.24.53.42.31.38.43.87.33,1.35-.02.09-1.94,9.48-.07,20.53,1.09,6.43,3.23,12.17,6.37,17.05,3.9,6.07,9.38,10.85,16.28,14.21,6.91,3.35,14.05,4.7,21.23,4.02,5.78-.55,11.61-2.41,17.33-5.53,9.85-5.36,16.03-12.68,16.1-12.75.31-.37.77-.58,1.26-.57.48.01.93.24,1.23.63,4.35,5.75,10.83,7.99,19.24,6.65,6.5-1.03,11.75-3.9,11.81-3.93.43-.24.96-.26,1.41-.06,2.98,1.31,6.18,1.19,9.51-.36,2.02-.95,3.84-2.31,5.39-4.01,1.54-1.7,2.81-3.73,3.72-6.01,6.99-17.41,7.47-34.79,1.38-50.26ZM27.421,71.179c-1.93.67-3.96.49-5.67-.34-1.71-.83-3.1-2.32-3.77-4.25-.27-.78-.4-1.56-.4-2.33,0-2.82,1.74-5.48,4.79-7.03l6.09-3.11c.45-.23.97-.24,1.42-.02.45.22.77.64.87,1.13l1.32,6.72v.04c.75,4.42-1.03,7.94-4.65,9.19ZM54.51,97.189c-2.17.75-4.44.55-6.36-.39-1.92-.93-3.49-2.59-4.24-4.76-1.41-4.07.58-8.29,4.95-10.52l7.05-3.6c.44-.23.97-.23,1.42-.01.45.22.77.63.87,1.12l1.52,7.77c0,.02,0,.03.01.04.84,4.98-1.16,8.94-5.22,10.35ZM125.161,120.509c-2.35.82-4.82.6-6.9-.41-2.08-1.01-3.77-2.82-4.59-5.17-1.52-4.4.64-8.99,5.38-11.4l7.78-3.97c.45-.23.97-.24,1.42-.02.45.22.77.64.87,1.13l1.68,8.57c0,.01,0,.03.01.04.91,5.41-1.25,9.71-5.65,11.23ZM157.381,111.409c-.05.12-.1.24-.16.35-.27.57-.85.9-1.44.9-.23,0-.47-.05-.69-.16-.79-.38-1.12-1.34-.73-2.13,0-.01.08-.18.21-.48,1.64-3.99-.09-8.65-4.04-10.56-4.09-1.99-9.05-.28-11.04,3.82-.38.79-1.34,1.12-2.13.73-.79-.38-1.12-1.33-.73-2.12,1.99-4.1.27-9.06-3.82-11.05-4.1-1.99-9.06-.28-11.05,3.82-.38.79-1.34,1.12-2.13.74-.79-.39-1.12-1.34-.73-2.13,1.99-4.1.27-9.05-3.82-11.04-4.1-2-9.06-.28-11.05,3.82-.38.79-1.34,1.12-2.13.73-.79-.38-1.12-1.33-.73-2.12,1.99-4.1.27-9.06-3.82-11.05-4.08-1.98-9.02-.29-11.02,3.77l-.03.05-17.23,35.46-6.46,13.3c-.8,1.65-.11,3.65,1.54,4.46,1.66.8,3.66.11,4.46-1.55l6.46-13.29c.39-.79,1.34-1.12,2.13-.74.79.38,1.12,1.34.74,2.13l-6.47,13.3c-1.57,3.23-5.48,4.58-8.71,3.01-3.23-1.57-4.59-5.48-3.01-8.71l6.46-13.3,17.23-35.45.01-.03c1.97-4.1.26-9.03-3.83-11.02-4.1-2-9.06-.28-11.05,3.82-.38.79-1.33,1.12-2.13.73-.79-.38-1.12-1.33-.73-2.13,1.99-4.09.28-9.05-3.82-11.04-4.1-1.99-9.06-.28-11.05,3.82-.38.79-1.33,1.12-2.13.74-.79-.39-1.12-1.34-.73-2.13,1.99-4.1.28-9.05-3.82-11.05-4.1-1.99-9.06-.27-11.05,3.83-.38.79-1.33,1.12-2.12.73-.8-.38-1.13-1.34-.74-2.13,1.99-4.09.28-9.05-3.82-11.04-3.96-1.92-8.71-.39-10.83,3.4-.14.26-.21.41-.22.42-.38.79-1.33,1.12-2.12.74-.8-.39-1.12-1.34-.74-2.13v-.01c.06-.11.11-.22.17-.33,1.16-2.22,7.87-14.19,22.24-22.63,9.14-5.36,19.48-8.14,30.73-8.27,13.55-.16,28.45,3.57,44.32,11.08l2.69-5.54c.38-.79,1.34-1.12,2.13-.73.79.38,1.12,1.33.73,2.13l-2.69,5.53c15.7,7.84,27.85,17.25,36.1,28,6.85,8.92,11.05,18.77,12.48,29.27,2.26,16.51-3.01,29.19-4.04,31.46ZM135.661,46.599c-2.59-4.15-5.87-7.97-9.8-11.42.93,1.59,1.72,3.29,2.39,5.08,2.4,6.45,3.17,14.16,2.28,22.9-1.07,10.52-4.24,19.88-6.06,24.56,3-1.35,6.55-1.41,9.73.13,2.71,1.32,4.67,3.57,5.66,6.18,1.56-4.93,3.67-13.61,3.15-23.46-.46-8.85-2.94-16.92-7.35-23.97ZM126.401,103.349l-5.9,3.02c-2.72,1.38-4.95,4.24-3.82,7.52,1.06,3.05,4.39,4.67,7.44,3.61,1.38-.47,4.48-2.17,3.55-7.67l-1.27-6.48ZM125.25,41.329c-1.79-4.8-4.6-8.83-8.37-12.02,1.57,5.83.83,14.65-2.22,26.4-2.47,9.5-5.88,18.64-7.73,23.32,2.95-1.28,6.42-1.31,9.54.2,2.62,1.27,4.54,3.42,5.56,5.92,1.78-4.87,4.42-13.26,5.34-22.38.83-8.24.12-15.45-2.12-21.44ZM114.5,35.639c-.08-4.79-1.14-8.11-3.15-9.89l-21.59,44.44c2.83-1.05,6.06-.99,8.98.43,2.7,1.31,4.66,3.55,5.65,6.16,1.89-4.85,4.95-13.22,7.2-21.9,2.01-7.78,2.99-14.25,2.91-19.24ZM110.091,21.349c-.03-.02-.07-.04-.11-.06l-.01.01c.04.02.08.04.12.05ZM108.581,24.159v.01l-.01.01c.2.09.4.18.6.27-.2-.1-.39-.2-.59-.29ZM98.77,27.999c-3.96,3.02-8.44,7.79-13.3,14.19-5.4,7.1-10.07,14.66-12.7,19.14,2.64-.79,5.57-.63,8.24.67,2.93,1.42,4.97,3.93,5.88,6.81l21.6-44.45c-2.64-.49-5.9.74-9.72,3.64ZM102.291,22.209c-4.86-.99-9.77-.71-14.66.84-6.09,1.94-12.22,5.83-18.19,11.57-6.66,6.39-11.66,13.69-14.39,18.09,2.64-.78,5.56-.62,8.23.68,3.15,1.53,5.28,4.31,6.07,7.46,2.52-4.34,7.6-12.71,13.57-20.57,7.34-9.67,13.82-15.7,19.37-18.07ZM67.181,32.369c6.34-6.1,12.88-10.25,19.45-12.34,1.81-.58,3.63-.99,5.44-1.25-5.13-.96-10.12-1.17-14.96-.64-8.26.9-16.11,3.95-23.32,9.07-7.93,5.62-13.38,12.55-16.3,16.84,2.59-.73,5.45-.55,8.06.72,3.14,1.52,5.27,4.3,6.07,7.44,2.59-4.33,7.98-12.55,15.56-19.84ZM51.841,24.679c7.68-5.46,16.03-8.72,24.85-9.7,1.22-.14,2.45-.23,3.69-.27-5.06-.93-9.96-1.37-14.68-1.31-10.69.12-20.5,2.75-29.16,7.83-7.38,4.33-12.66,9.72-16.1,14.03,2.41-.52,5-.26,7.38.9,3.16,1.54,5.3,4.35,6.09,7.52,2.72-4.28,8.65-12.39,17.93-19ZM55.481,81.719l-5.17,2.64c-2.41,1.23-4.39,3.75-3.39,6.64.93,2.68,3.87,4.11,6.55,3.18,1.21-.42,3.94-1.92,3.12-6.78l-1.11-5.68ZM28.031,57.909l-4.22,2.16c-2.96,1.51-3.37,3.89-2.82,5.48.76,2.21,3.18,3.38,5.39,2.62,2.98-1.03,2.79-4.26,2.56-5.63l-.91-4.63ZM65.701,13.399c-10.69.12-20.5,2.75-29.16,7.83-7.38,4.33-12.66,9.72-16.1,14.03,2.41-.52,5-.26,7.38.9,3.16,1.54,5.3,4.35,6.09,7.52,2.72-4.28,8.65-12.39,17.93-19,7.68-5.46,16.03-8.72,24.85-9.7,1.22-.14,2.45-.23,3.69-.27-5.06-.93-9.96-1.37-14.68-1.31ZM77.111,18.139c-8.26.9-16.11,3.95-23.32,9.07-7.93,5.62-13.38,12.55-16.3,16.84,2.59-.73,5.45-.55,8.06.72,3.14,1.52,5.27,4.3,6.07,7.44,2.59-4.33,7.98-12.55,15.56-19.84,6.34-6.1,12.88-10.25,19.45-12.34,1.81-.58,3.63-.99,5.44-1.25-5.13-.96-10.12-1.17-14.96-.64ZM87.631,23.049c-6.09,1.94-12.22,5.83-18.19,11.57-6.66,6.39-11.66,13.69-14.39,18.09,2.64-.78,5.56-.62,8.23.68,3.15,1.53,5.28,4.31,6.07,7.46,2.52-4.34,7.6-12.71,13.57-20.57,7.34-9.67,13.82-15.7,19.37-18.07-4.86-.99-9.77-.71-14.66.84ZM98.77,27.999c-3.96,3.02-8.44,7.79-13.3,14.19-5.4,7.1-10.07,14.66-12.7,19.14,2.64-.79,5.57-.63,8.24.67,2.93,1.42,4.97,3.93,5.88,6.81l21.6-44.45c-2.64-.49-5.9.74-9.72,3.64ZM108.581,24.159v.01l-.01.01c.2.09.4.18.6.27-.2-.1-.39-.2-.59-.29ZM109.981,21.289l-.01.01c.04.02.08.04.12.05-.03-.02-.07-.04-.11-.06ZM111.351,25.749l-21.59,44.44c2.83-1.05,6.06-.99,8.98.43,2.7,1.31,4.66,3.55,5.65,6.16,1.89-4.85,4.95-13.22,7.2-21.9,2.01-7.78,2.99-14.25,2.91-19.24-.08-4.79-1.14-8.11-3.15-9.89ZM125.25,41.329c-1.79-4.8-4.6-8.83-8.37-12.02,1.57,5.83.83,14.65-2.22,26.4-2.47,9.5-5.88,18.64-7.73,23.32,2.95-1.28,6.42-1.31,9.54.2,2.62,1.27,4.54,3.42,5.56,5.92,1.78-4.87,4.42-13.26,5.34-22.38.83-8.24.12-15.45-2.12-21.44ZM143.01,70.569c-.46-8.85-2.94-16.92-7.35-23.97-2.59-4.15-5.87-7.97-9.8-11.42.93,1.59,1.72,3.29,2.39,5.08,2.4,6.45,3.17,14.16,2.28,22.9-1.07,10.52-4.24,19.88-6.06,24.56,3-1.35,6.55-1.41,9.73.13,2.71,1.32,4.67,3.57,5.66,6.18,1.56-4.93,3.67-13.61,3.15-23.46ZM56.591,87.399l-1.11-5.68-5.17,2.64c-2.41,1.23-4.39,3.75-3.39,6.64.93,2.68,3.87,4.11,6.55,3.18,1.21-.42,3.94-1.92,3.12-6.78ZM28.941,62.539l-.91-4.63-4.22,2.16c-2.96,1.51-3.37,3.89-2.82,5.48.76,2.21,3.18,3.38,5.39,2.62,2.98-1.03,2.79-4.26,2.56-5.63ZM143.01,70.569c-.46-8.85-2.94-16.92-7.35-23.97-2.59-4.15-5.87-7.97-9.8-11.42.93,1.59,1.72,3.29,2.39,5.08,2.4,6.45,3.17,14.16,2.28,22.9-1.07,10.52-4.24,19.88-6.06,24.56,3-1.35,6.55-1.41,9.73.13,2.71,1.32,4.67,3.57,5.66,6.18,1.56-4.93,3.67-13.61,3.15-23.46ZM125.25,41.329c-1.79-4.8-4.6-8.83-8.37-12.02,1.57,5.83.83,14.65-2.22,26.4-2.47,9.5-5.88,18.64-7.73,23.32,2.95-1.28,6.42-1.31,9.54.2,2.62,1.27,4.54,3.42,5.56,5.92,1.78-4.87,4.42-13.26,5.34-22.38.83-8.24.12-15.45-2.12-21.44ZM111.351,25.749l-21.59,44.44c2.83-1.05,6.06-.99,8.98.43,2.7,1.31,4.66,3.55,5.65,6.16,1.89-4.85,4.95-13.22,7.2-21.9,2.01-7.78,2.99-14.25,2.91-19.24-.08-4.79-1.14-8.11-3.15-9.89ZM109.981,21.289l-.01.01c.04.02.08.04.12.05-.03-.02-.07-.04-.11-.06ZM108.581,24.159v.01l-.01.01c.2.09.4.18.6.27-.2-.1-.39-.2-.59-.29ZM98.77,27.999c-3.96,3.02-8.44,7.79-13.3,14.19-5.4,7.1-10.07,14.66-12.7,19.14,2.64-.79,5.57-.63,8.24.67,2.93,1.42,4.97,3.93,5.88,6.81l21.6-44.45c-2.64-.49-5.9.74-9.72,3.64ZM87.631,23.049c-6.09,1.94-12.22,5.83-18.19,11.57-6.66,6.39-11.66,13.69-14.39,18.09,2.64-.78,5.56-.62,8.23.68,3.15,1.53,5.28,4.31,6.07,7.46,2.52-4.34,7.6-12.71,13.57-20.57,7.34-9.67,13.82-15.7,19.37-18.07-4.86-.99-9.77-.71-14.66.84ZM77.111,18.139c-8.26.9-16.11,3.95-23.32,9.07-7.93,5.62-13.38,12.55-16.3,16.84,2.59-.73,5.45-.55,8.06.72,3.14,1.52,5.27,4.3,6.07,7.44,2.59-4.33,7.98-12.55,15.56-19.84,6.34-6.1,12.88-10.25,19.45-12.34,1.81-.58,3.63-.99,5.44-1.25-5.13-.96-10.12-1.17-14.96-.64ZM65.701,13.399c-10.69.12-20.5,2.75-29.16,7.83-7.38,4.33-12.66,9.72-16.1,14.03,2.41-.52,5-.26,7.38.9,3.16,1.54,5.3,4.35,6.09,7.52,2.72-4.28,8.65-12.39,17.93-19,7.68-5.46,16.03-8.72,24.85-9.7,1.22-.14,2.45-.23,3.69-.27-5.06-.93-9.96-1.37-14.68-1.31ZM56.591,87.399l-1.11-5.68-5.17,2.64c-2.41,1.23-4.39,3.75-3.39,6.64.93,2.68,3.87,4.11,6.55,3.18,1.21-.42,3.94-1.92,3.12-6.78ZM28.941,62.539l-.91-4.63-4.22,2.16c-2.96,1.51-3.37,3.89-2.82,5.48.76,2.21,3.18,3.38,5.39,2.62,2.98-1.03,2.79-4.26,2.56-5.63ZM65.701,13.399c-10.69.12-20.5,2.75-29.16,7.83-7.38,4.33-12.66,9.72-16.1,14.03,2.41-.52,5-.26,7.38.9,3.16,1.54,5.3,4.35,6.09,7.52,2.72-4.28,8.65-12.39,17.93-19,7.68-5.46,16.03-8.72,24.85-9.7,1.22-.14,2.45-.23,3.69-.27-5.06-.93-9.96-1.37-14.68-1.31ZM77.111,18.139c-8.26.9-16.11,3.95-23.32,9.07-7.93,5.62-13.38,12.55-16.3,16.84,2.59-.73,5.45-.55,8.06.72,3.14,1.52,5.27,4.3,6.07,7.44,2.59-4.33,7.98-12.55,15.56-19.84,6.34-6.1,12.88-10.25,19.45-12.34,1.81-.58,3.63-.99,5.44-1.25-5.13-.96-10.12-1.17-14.96-.64ZM87.631,23.049c-6.09,1.94-12.22,5.83-18.19,11.57-6.66,6.39-11.66,13.69-14.39,18.09,2.64-.78,5.56-.62,8.23.68,3.15,1.53,5.28,4.31,6.07,7.46,2.52-4.34,7.6-12.71,13.57-20.57,7.34-9.67,13.82-15.7,19.37-18.07-4.86-.99-9.77-.71-14.66.84ZM98.77,27.999c-3.96,3.02-8.44,7.79-13.3,14.19-5.4,7.1-10.07,14.66-12.7,19.14,2.64-.79,5.57-.63,8.24.67,2.93,1.42,4.97,3.93,5.88,6.81l21.6-44.45c-2.64-.49-5.9.74-9.72,3.64ZM108.581,24.159v.01l-.01.01c.2.09.4.18.6.27-.2-.1-.39-.2-.59-.29ZM109.981,21.289l-.01.01c.04.02.08.04.12.05-.03-.02-.07-.04-.11-.06ZM111.351,25.749l-21.59,44.44c2.83-1.05,6.06-.99,8.98.43,2.7,1.31,4.66,3.55,5.65,6.16,1.89-4.85,4.95-13.22,7.2-21.9,2.01-7.78,2.99-14.25,2.91-19.24-.08-4.79-1.14-8.11-3.15-9.89ZM125.25,41.329c-1.79-4.8-4.6-8.83-8.37-12.02,1.57,5.83.83,14.65-2.22,26.4-2.47,9.5-5.88,18.64-7.73,23.32,2.95-1.28,6.42-1.31,9.54.2,2.62,1.27,4.54,3.42,5.56,5.92,1.78-4.87,4.42-13.26,5.34-22.38.83-8.24.12-15.45-2.12-21.44ZM143.01,70.569c-.46-8.85-2.94-16.92-7.35-23.97-2.59-4.15-5.87-7.97-9.8-11.42.93,1.59,1.72,3.29,2.39,5.08,2.4,6.45,3.17,14.16,2.28,22.9-1.07,10.52-4.24,19.88-6.06,24.56,3-1.35,6.55-1.41,9.73.13,2.71,1.32,4.67,3.57,5.66,6.18,1.56-4.93,3.67-13.61,3.15-23.46ZM56.591,87.399l-1.11-5.68-5.17,2.64c-2.41,1.23-4.39,3.75-3.39,6.64.93,2.68,3.87,4.11,6.55,3.18,1.21-.42,3.94-1.92,3.12-6.78ZM28.941,62.539l-.91-4.63-4.22,2.16c-2.96,1.51-3.37,3.89-2.82,5.48.76,2.21,3.18,3.38,5.39,2.62,2.98-1.03,2.79-4.26,2.56-5.63ZM125.25,41.329c-1.79-4.8-4.6-8.83-8.37-12.02,1.57,5.83.83,14.65-2.22,26.4-2.47,9.5-5.88,18.64-7.73,23.32,2.95-1.28,6.42-1.31,9.54.2,2.62,1.27,4.54,3.42,5.56,5.92,1.78-4.87,4.42-13.26,5.34-22.38.83-8.24.12-15.45-2.12-21.44ZM143.01,70.569c-.46-8.85-2.94-16.92-7.35-23.97-2.59-4.15-5.87-7.97-9.8-11.42.93,1.59,1.72,3.29,2.39,5.08,2.4,6.45,3.17,14.16,2.28,22.9-1.07,10.52-4.24,19.88-6.06,24.56,3-1.35,6.55-1.41,9.73.13,2.71,1.32,4.67,3.57,5.66,6.18,1.56-4.93,3.67-13.61,3.15-23.46ZM111.351,25.749l-21.59,44.44c2.83-1.05,6.06-.99,8.98.43,2.7,1.31,4.66,3.55,5.65,6.16,1.89-4.85,4.95-13.22,7.2-21.9,2.01-7.78,2.99-14.25,2.91-19.24-.08-4.79-1.14-8.11-3.15-9.89ZM109.981,21.289l-.01.01c.04.02.08.04.12.05-.03-.02-.07-.04-.11-.06ZM108.581,24.159v.01l-.01.01c.2.09.4.18.6.27-.2-.1-.39-.2-.59-.29ZM98.77,27.999c-3.96,3.02-8.44,7.79-13.3,14.19-5.4,7.1-10.07,14.66-12.7,19.14,2.64-.79,5.57-.63,8.24.67,2.93,1.42,4.97,3.93,5.88,6.81l21.6-44.45c-2.64-.49-5.9.74-9.72,3.64ZM87.631,23.049c-6.09,1.94-12.22,5.83-18.19,11.57-6.66,6.39-11.66,13.69-14.39,18.09,2.64-.78,5.56-.62,8.23.68,3.15,1.53,5.28,4.31,6.07,7.46,2.52-4.34,7.6-12.71,13.57-20.57,7.34-9.67,13.82-15.7,19.37-18.07-4.86-.99-9.77-.71-14.66.84ZM77.111,18.139c-8.26.9-16.11,3.95-23.32,9.07-7.93,5.62-13.38,12.55-16.3,16.84,2.59-.73,5.45-.55,8.06.72,3.14,1.52,5.27,4.3,6.07,7.44,2.59-4.33,7.98-12.55,15.56-19.84,6.34-6.1,12.88-10.25,19.45-12.34,1.81-.58,3.63-.99,5.44-1.25-5.13-.96-10.12-1.17-14.96-.64ZM65.701,13.399c-10.69.12-20.5,2.75-29.16,7.83-7.38,4.33-12.66,9.72-16.1,14.03,2.41-.52,5-.26,7.38.9,3.16,1.54,5.3,4.35,6.09,7.52,2.72-4.28,8.65-12.39,17.93-19,7.68-5.46,16.03-8.72,24.85-9.7,1.22-.14,2.45-.23,3.69-.27-5.06-.93-9.96-1.37-14.68-1.31ZM56.591,87.399l-1.11-5.68-5.17,2.64c-2.41,1.23-4.39,3.75-3.39,6.64.93,2.68,3.87,4.11,6.55,3.18,1.21-.42,3.94-1.92,3.12-6.78ZM28.941,62.539l-.91-4.63-4.22,2.16c-2.96,1.51-3.37,3.89-2.82,5.48.76,2.21,3.18,3.38,5.39,2.62,2.98-1.03,2.79-4.26,2.56-5.63ZM65.701,13.399c-10.69.12-20.5,2.75-29.16,7.83-7.38,4.33-12.66,9.72-16.1,14.03,2.41-.52,5-.26,7.38.9,3.16,1.54,5.3,4.35,6.09,7.52,2.72-4.28,8.65-12.39,17.93-19,7.68-5.46,16.03-8.72,24.85-9.7,1.22-.14,2.45-.23,3.69-.27-5.06-.93-9.96-1.37-14.68-1.31ZM77.111,18.139c-8.26.9-16.11,3.95-23.32,9.07-7.93,5.62-13.38,12.55-16.3,16.84,2.59-.73,5.45-.55,8.06.72,3.14,1.52,5.27,4.3,6.07,7.44,2.59-4.33,7.98-12.55,15.56-19.84,6.34-6.1,12.88-10.25,19.45-12.34,1.81-.58,3.63-.99,5.44-1.25-5.13-.96-10.12-1.17-14.96-.64ZM87.631,23.049c-6.09,1.94-12.22,5.83-18.19,11.57-6.66,6.39-11.66,13.69-14.39,18.09,2.64-.78,5.56-.62,8.23.68,3.15,1.53,5.28,4.31,6.07,7.46,2.52-4.34,7.6-12.71,13.57-20.57,7.34-9.67,13.82-15.7,19.37-18.07-4.86-.99-9.77-.71-14.66.84ZM98.77,27.999c-3.96,3.02-8.44,7.79-13.3,14.19-5.4,7.1-10.07,14.66-12.7,19.14,2.64-.79,5.57-.63,8.24.67,2.93,1.42,4.97,3.93,5.88,6.81l21.6-44.45c-2.64-.49-5.9.74-9.72,3.64ZM108.581,24.159v.01l-.01.01c.2.09.4.18.6.27-.2-.1-.39-.2-.59-.29ZM109.981,21.289l-.01.01c.04.02.08.04.12.05-.03-.02-.07-.04-.11-.06ZM111.351,25.749l-21.59,44.44c2.83-1.05,6.06-.99,8.98.43,2.7,1.31,4.66,3.55,5.65,6.16,1.89-4.85,4.95-13.22,7.2-21.9,2.01-7.78,2.99-14.25,2.91-19.24-.08-4.79-1.14-8.11-3.15-9.89ZM125.25,41.329c-1.79-4.8-4.6-8.83-8.37-12.02,1.57,5.83.83,14.65-2.22,26.4-2.47,9.5-5.88,18.64-7.73,23.32,2.95-1.28,6.42-1.31,9.54.2,2.62,1.27,4.54,3.42,5.56,5.92,1.78-4.87,4.42-13.26,5.34-22.38.83-8.24.12-15.45-2.12-21.44ZM143.01,70.569c-.46-8.85-2.94-16.92-7.35-23.97-2.59-4.15-5.87-7.97-9.8-11.42.93,1.59,1.72,3.29,2.39,5.08,2.4,6.45,3.17,14.16,2.28,22.9-1.07,10.52-4.24,19.88-6.06,24.56,3-1.35,6.55-1.41,9.73.13,2.71,1.32,4.67,3.57,5.66,6.18,1.56-4.93,3.67-13.61,3.15-23.46ZM56.591,87.399l-1.11-5.68-5.17,2.64c-2.41,1.23-4.39,3.75-3.39,6.64.93,2.68,3.87,4.11,6.55,3.18,1.21-.42,3.94-1.92,3.12-6.78ZM28.941,62.539l-.91-4.63-4.22,2.16c-2.96,1.51-3.37,3.89-2.82,5.48.76,2.21,3.18,3.38,5.39,2.62,2.98-1.03,2.79-4.26,2.56-5.63ZM125.25,41.329c-1.79-4.8-4.6-8.83-8.37-12.02,1.57,5.83.83,14.65-2.22,26.4-2.47,9.5-5.88,18.64-7.73,23.32,2.95-1.28,6.42-1.31,9.54.2,2.62,1.27,4.54,3.42,5.56,5.92,1.78-4.87,4.42-13.26,5.34-22.38.83-8.24.12-15.45-2.12-21.44ZM143.01,70.569c-.46-8.85-2.94-16.92-7.35-23.97-2.59-4.15-5.87-7.97-9.8-11.42.93,1.59,1.72,3.29,2.39,5.08,2.4,6.45,3.17,14.16,2.28,22.9-1.07,10.52-4.24,19.88-6.06,24.56,3-1.35,6.55-1.41,9.73.13,2.71,1.32,4.67,3.57,5.66,6.18,1.56-4.93,3.67-13.61,3.15-23.46ZM111.351,25.749l-21.59,44.44c2.83-1.05,6.06-.99,8.98.43,2.7,1.31,4.66,3.55,5.65,6.16,1.89-4.85,4.95-13.22,7.2-21.9,2.01-7.78,2.99-14.25,2.91-19.24-.08-4.79-1.14-8.11-3.15-9.89ZM109.981,21.289l-.01.01c.04.02.08.04.12.05-.03-.02-.07-.04-.11-.06ZM108.581,24.159v.01l-.01.01c.2.09.4.18.6.27-.2-.1-.39-.2-.59-.29ZM98.77,27.999c-3.96,3.02-8.44,7.79-13.3,14.19-5.4,7.1-10.07,14.66-12.7,19.14,2.64-.79,5.57-.63,8.24.67,2.93,1.42,4.97,3.93,5.88,6.81l21.6-44.45c-2.64-.49-5.9.74-9.72,3.64ZM87.631,23.049c-6.09,1.94-12.22,5.83-18.19,11.57-6.66,6.39-11.66,13.69-14.39,18.09,2.64-.78,5.56-.62,8.23.68,3.15,1.53,5.28,4.31,6.07,7.46,2.52-4.34,7.6-12.71,13.57-20.57,7.34-9.67,13.82-15.7,19.37-18.07-4.86-.99-9.77-.71-14.66.84ZM77.111,18.139c-8.26.9-16.11,3.95-23.32,9.07-7.93,5.62-13.38,12.55-16.3,16.84,2.59-.73,5.45-.55,8.06.72,3.14,1.52,5.27,4.3,6.07,7.44,2.59-4.33,7.98-12.55,15.56-19.84,6.34-6.1,12.88-10.25,19.45-12.34,1.81-.58,3.63-.99,5.44-1.25-5.13-.96-10.12-1.17-14.96-.64ZM65.701,13.399c-10.69.12-20.5,2.75-29.16,7.83-7.38,4.33-12.66,9.72-16.1,14.03,2.41-.52,5-.26,7.38.9,3.16,1.54,5.3,4.35,6.09,7.52,2.72-4.28,8.65-12.39,17.93-19,7.68-5.46,16.03-8.72,24.85-9.7,1.22-.14,2.45-.23,3.69-.27-5.06-.93-9.96-1.37-14.68-1.31ZM56.591,87.399l-1.11-5.68-5.17,2.64c-2.41,1.23-4.39,3.75-3.39,6.64.93,2.68,3.87,4.11,6.55,3.18,1.21-.42,3.94-1.92,3.12-6.78ZM28.941,62.539l-.91-4.63-4.22,2.16c-2.96,1.51-3.37,3.89-2.82,5.48.76,2.21,3.18,3.38,5.39,2.62,2.98-1.03,2.79-4.26,2.56-5.63ZM65.701,13.399c-10.69.12-20.5,2.75-29.16,7.83-7.38,4.33-12.66,9.72-16.1,14.03,2.41-.52,5-.26,7.38.9,3.16,1.54,5.3,4.35,6.09,7.52,2.72-4.28,8.65-12.39,17.93-19,7.68-5.46,16.03-8.72,24.85-9.7,1.22-.14,2.45-.23,3.69-.27-5.06-.93-9.96-1.37-14.68-1.31ZM77.111,18.139c-8.26.9-16.11,3.95-23.32,9.07-7.93,5.62-13.38,12.55-16.3,16.84,2.59-.73,5.45-.55,8.06.72,3.14,1.52,5.27,4.3,6.07,7.44,2.59-4.33,7.98-12.55,15.56-19.84,6.34-6.1,12.88-10.25,19.45-12.34,1.81-.58,3.63-.99,5.44-1.25-5.13-.96-10.12-1.17-14.96-.64ZM87.631,23.049c-6.09,1.94-12.22,5.83-18.19,11.57-6.66,6.39-11.66,13.69-14.39,18.09,2.64-.78,5.56-.62,8.23.68,3.15,1.53,5.28,4.31,6.07,7.46,2.52-4.34,7.6-12.71,13.57-20.57,7.34-9.67,13.82-15.7,19.37-18.07-4.86-.99-9.77-.71-14.66.84ZM98.77,27.999c-3.96,3.02-8.44,7.79-13.3,14.19-5.4,7.1-10.07,14.66-12.7,19.14,2.64-.79,5.57-.63,8.24.67,2.93,1.42,4.97,3.93,5.88,6.81l21.6-44.45c-2.64-.49-5.9.74-9.72,3.64ZM108.581,24.159v.01l-.01.01c.2.09.4.18.6.27-.2-.1-.39-.2-.59-.29ZM109.981,21.289l-.01.01c.04.02.08.04.12.05-.03-.02-.07-.04-.11-.06ZM111.351,25.749l-21.59,44.44c2.83-1.05,6.06-.99,8.98.43,2.7,1.31,4.66,3.55,5.65,6.16,1.89-4.85,4.95-13.22,7.2-21.9,2.01-7.78,2.99-14.25,2.91-19.24-.08-4.79-1.14-8.11-3.15-9.89ZM125.25,41.329c-1.79-4.8-4.6-8.83-8.37-12.02,1.57,5.83.83,14.65-2.22,26.4-2.47,9.5-5.88,18.64-7.73,23.32,2.95-1.28,6.42-1.31,9.54.2,2.62,1.27,4.54,3.42,5.56,5.92,1.78-4.87,4.42-13.26,5.34-22.38.83-8.24.12-15.45-2.12-21.44ZM143.01,70.569c-.46-8.85-2.94-16.92-7.35-23.97-2.59-4.15-5.87-7.97-9.8-11.42.93,1.59,1.72,3.29,2.39,5.08,2.4,6.45,3.17,14.16,2.28,22.9-1.07,10.52-4.24,19.88-6.06,24.56,3-1.35,6.55-1.41,9.73.13,2.71,1.32,4.67,3.57,5.66,6.18,1.56-4.93,3.67-13.61,3.15-23.46ZM28.941,62.539l-.91-4.63-4.22,2.16c-2.96,1.51-3.37,3.89-2.82,5.48.76,2.21,3.18,3.38,5.39,2.62,2.98-1.03,2.79-4.26,2.56-5.63ZM125.25,41.329c-1.79-4.8-4.6-8.83-8.37-12.02,1.57,5.83.83,14.65-2.22,26.4-2.47,9.5-5.88,18.64-7.73,23.32,2.95-1.28,6.42-1.31,9.54.2,2.62,1.27,4.54,3.42,5.56,5.92,1.78-4.87,4.42-13.26,5.34-22.38.83-8.24.12-15.45-2.12-21.44ZM143.01,70.569c-.46-8.85-2.94-16.92-7.35-23.97-2.59-4.15-5.87-7.97-9.8-11.42.93,1.59,1.72,3.29,2.39,5.08,2.4,6.45,3.17,14.16,2.28,22.9-1.07,10.52-4.24,19.88-6.06,24.56,3-1.35,6.55-1.41,9.73.13,2.71,1.32,4.67,3.57,5.66,6.18,1.56-4.93,3.67-13.61,3.15-23.46ZM111.351,25.749l-21.59,44.44c2.83-1.05,6.06-.99,8.98.43,2.7,1.31,4.66,3.55,5.65,6.16,1.89-4.85,4.95-13.22,7.2-21.9,2.01-7.78,2.99-14.25,2.91-19.24-.08-4.79-1.14-8.11-3.15-9.89ZM109.981,21.289l-.01.01c.04.02.08.04.12.05-.03-.02-.07-.04-.11-.06ZM108.581,24.159v.01l-.01.01c.2.09.4.18.6.27-.2-.1-.39-.2-.59-.29ZM98.77,27.999c-3.96,3.02-8.44,7.79-13.3,14.19-5.4,7.1-10.07,14.66-12.7,19.14,2.64-.79,5.57-.63,8.24.67,2.93,1.42,4.97,3.93,5.88,6.81l21.6-44.45c-2.64-.49-5.9.74-9.72,3.64ZM87.631,23.049c-6.09,1.94-12.22,5.83-18.19,11.57-6.66,6.39-11.66,13.69-14.39,18.09,2.64-.78,5.56-.62,8.23.68,3.15,1.53,5.28,4.31,6.07,7.46,2.52-4.34,7.6-12.71,13.57-20.57,7.34-9.67,13.82-15.7,19.37-18.07-4.86-.99-9.77-.71-14.66.84ZM77.111,18.139c-8.26.9-16.11,3.95-23.32,9.07-7.93,5.62-13.38,12.55-16.3,16.84,2.59-.73,5.45-.55,8.06.72,3.14,1.52,5.27,4.3,6.07,7.44,2.59-4.33,7.98-12.55,15.56-19.84,6.34-6.1,12.88-10.25,19.45-12.34,1.81-.58,3.63-.99,5.44-1.25-5.13-.96-10.12-1.17-14.96-.64ZM65.701,13.399c-10.69.12-20.5,2.75-29.16,7.83-7.38,4.33-12.66,9.72-16.1,14.03,2.41-.52,5-.26,7.38.9,3.16,1.54,5.3,4.35,6.09,7.52,2.72-4.28,8.65-12.39,17.93-19,7.68-5.46,16.03-8.72,24.85-9.7,1.22-.14,2.45-.23,3.69-.27-5.06-.93-9.96-1.37-14.68-1.31ZM28.941,62.539l-.91-4.63-4.22,2.16c-2.96,1.51-3.37,3.89-2.82,5.48.76,2.21,3.18,3.38,5.39,2.62,2.98-1.03,2.79-4.26,2.56-5.63ZM65.701,13.399c-10.69.12-20.5,2.75-29.16,7.83-7.38,4.33-12.66,9.72-16.1,14.03,2.41-.52,5-.26,7.38.9,3.16,1.54,5.3,4.35,6.09,7.52,2.72-4.28,8.65-12.39,17.93-19,7.68-5.46,16.03-8.72,24.85-9.7,1.22-.14,2.45-.23,3.69-.27-5.06-.93-9.96-1.37-14.68-1.31ZM77.111,18.139c-8.26.9-16.11,3.95-23.32,9.07-7.93,5.62-13.38,12.55-16.3,16.84,2.59-.73,5.45-.55,8.06.72,3.14,1.52,5.27,4.3,6.07,7.44,2.59-4.33,7.98-12.55,15.56-19.84,6.34-6.1,12.88-10.25,19.45-12.34,1.81-.58,3.63-.99,5.44-1.25-5.13-.96-10.12-1.17-14.96-.64ZM87.631,23.049c-6.09,1.94-12.22,5.83-18.19,11.57-6.66,6.39-11.66,13.69-14.39,18.09,2.64-.78,5.56-.62,8.23.68,3.15,1.53,5.28,4.31,6.07,7.46,2.52-4.34,7.6-12.71,13.57-20.57,7.34-9.67,13.82-15.7,19.37-18.07-4.86-.99-9.77-.71-14.66.84ZM98.77,27.999c-3.96,3.02-8.44,7.79-13.3,14.19-5.4,7.1-10.07,14.66-12.7,19.14,2.64-.79,5.57-.63,8.24.67,2.93,1.42,4.97,3.93,5.88,6.81l21.6-44.45c-2.64-.49-5.9.74-9.72,3.64ZM108.581,24.159v.01l-.01.01c.2.09.4.18.6.27-.2-.1-.39-.2-.59-.29ZM109.981,21.289l-.01.01c.04.02.08.04.12.05-.03-.02-.07-.04-.11-.06ZM111.351,25.749l-21.59,44.44c2.83-1.05,6.06-.99,8.98.43,2.7,1.31,4.66,3.55,5.65,6.16,1.89-4.85,4.95-13.22,7.2-21.9,2.01-7.78,2.99-14.25,2.91-19.24-.08-4.79-1.14-8.11-3.15-9.89ZM125.25,41.329c-1.79-4.8-4.6-8.83-8.37-12.02,1.57,5.83.83,14.65-2.22,26.4-2.47,9.5-5.88,18.64-7.73,23.32,2.95-1.28,6.42-1.31,9.54.2,2.62,1.27,4.54,3.42,5.56,5.92,1.78-4.87,4.42-13.26,5.34-22.38.83-8.24.12-15.45-2.12-21.44ZM143.01,70.569c-.46-8.85-2.94-16.92-7.35-23.97-2.59-4.15-5.87-7.97-9.8-11.42.93,1.59,1.72,3.29,2.39,5.08,2.4,6.45,3.17,14.16,2.28,22.9-1.07,10.52-4.24,19.88-6.06,24.56,3-1.35,6.55-1.41,9.73.13,2.71,1.32,4.67,3.57,5.66,6.18,1.56-4.93,3.67-13.61,3.15-23.46ZM125.25,41.329c-1.79-4.8-4.6-8.83-8.37-12.02,1.57,5.83.83,14.65-2.22,26.4-2.47,9.5-5.88,18.64-7.73,23.32,2.95-1.28,6.42-1.31,9.54.2,2.62,1.27,4.54,3.42,5.56,5.92,1.78-4.87,4.42-13.26,5.34-22.38.83-8.24.12-15.45-2.12-21.44ZM143.01,70.569c-.46-8.85-2.94-16.92-7.35-23.97-2.59-4.15-5.87-7.97-9.8-11.42.93,1.59,1.72,3.29,2.39,5.08,2.4,6.45,3.17,14.16,2.28,22.9-1.07,10.52-4.24,19.88-6.06,24.56,3-1.35,6.55-1.41,9.73.13,2.71,1.32,4.67,3.57,5.66,6.18,1.56-4.93,3.67-13.61,3.15-23.46ZM111.351,25.749l-21.59,44.44c2.83-1.05,6.06-.99,8.98.43,2.7,1.31,4.66,3.55,5.65,6.16,1.89-4.85,4.95-13.22,7.2-21.9,2.01-7.78,2.99-14.25,2.91-19.24-.08-4.79-1.14-8.11-3.15-9.89ZM109.981,21.289l-.01.01c.04.02.08.04.12.05-.03-.02-.07-.04-.11-.06ZM108.581,24.159v.01l-.01.01c.2.09.4.18.6.27-.2-.1-.39-.2-.59-.29ZM98.77,27.999c-3.96,3.02-8.44,7.79-13.3,14.19-5.4,7.1-10.07,14.66-12.7,19.14,2.64-.79,5.57-.63,8.24.67,2.93,1.42,4.97,3.93,5.88,6.81l21.6-44.45c-2.64-.49-5.9.74-9.72,3.64ZM87.631,23.049c-6.09,1.94-12.22,5.83-18.19,11.57-6.66,6.39-11.66,13.69-14.39,18.09,2.64-.78,5.56-.62,8.23.68,3.15,1.53,5.28,4.31,6.07,7.46,2.52-4.34,7.6-12.71,13.57-20.57,7.34-9.67,13.82-15.7,19.37-18.07-4.86-.99-9.77-.71-14.66.84ZM77.111,18.139c-8.26.9-16.11,3.95-23.32,9.07-7.93,5.62-13.38,12.55-16.3,16.84,2.59-.73,5.45-.55,8.06.72,3.14,1.52,5.27,4.3,6.07,7.44,2.59-4.33,7.98-12.55,15.56-19.84,6.34-6.1,12.88-10.25,19.45-12.34,1.81-.58,3.63-.99,5.44-1.25-5.13-.96-10.12-1.17-14.96-.64ZM65.701,13.399c-10.69.12-20.5,2.75-29.16,7.83-7.38,4.33-12.66,9.72-16.1,14.03,2.41-.52,5-.26,7.38.9,3.16,1.54,5.3,4.35,6.09,7.52,2.72-4.28,8.65-12.39,17.93-19,7.68-5.46,16.03-8.72,24.85-9.7,1.22-.14,2.45-.23,3.69-.27-5.06-.93-9.96-1.37-14.68-1.31ZM65.701,13.399c-10.69.12-20.5,2.75-29.16,7.83-7.38,4.33-12.66,9.72-16.1,14.03,2.41-.52,5-.26,7.38.9,3.16,1.54,5.3,4.35,6.09,7.52,2.72-4.28,8.65-12.39,17.93-19,7.68-5.46,16.03-8.72,24.85-9.7,1.22-.14,2.45-.23,3.69-.27-5.06-.93-9.96-1.37-14.68-1.31ZM77.111,18.139c-8.26.9-16.11,3.95-23.32,9.07-7.93,5.62-13.38,12.55-16.3,16.84,2.59-.73,5.45-.55,8.06.72,3.14,1.52,5.27,4.3,6.07,7.44,2.59-4.33,7.98-12.55,15.56-19.84,6.34-6.1,12.88-10.25,19.45-12.34,1.81-.58,3.63-.99,5.44-1.25-5.13-.96-10.12-1.17-14.96-.64ZM87.631,23.049c-6.09,1.94-12.22,5.83-18.19,11.57-6.66,6.39-11.66,13.69-14.39,18.09,2.64-.78,5.56-.62,8.23.68,3.15,1.53,5.28,4.31,6.07,7.46,2.52-4.34,7.6-12.71,13.57-20.57,7.34-9.67,13.82-15.7,19.37-18.07-4.86-.99-9.77-.71-14.66.84ZM98.77,27.999c-3.96,3.02-8.44,7.79-13.3,14.19-5.4,7.1-10.07,14.66-12.7,19.14,2.64-.79,5.57-.63,8.24.67,2.93,1.42,4.97,3.93,5.88,6.81l21.6-44.45c-2.64-.49-5.9.74-9.72,3.64ZM108.581,24.159v.01l-.01.01c.2.09.4.18.6.27-.2-.1-.39-.2-.59-.29ZM109.981,21.289l-.01.01c.04.02.08.04.12.05-.03-.02-.07-.04-.11-.06ZM111.351,25.749l-21.59,44.44c2.83-1.05,6.06-.99,8.98.43,2.7,1.31,4.66,3.55,5.65,6.16,1.89-4.85,4.95-13.22,7.2-21.9,2.01-7.78,2.99-14.25,2.91-19.24-.08-4.79-1.14-8.11-3.15-9.89ZM125.25,41.329c-1.79-4.8-4.6-8.83-8.37-12.02,1.57,5.83.83,14.65-2.22,26.4-2.47,9.5-5.88,18.64-7.73,23.32,2.95-1.28,6.42-1.31,9.54.2,2.62,1.27,4.54,3.42,5.56,5.92,1.78-4.87,4.42-13.26,5.34-22.38.83-8.24.12-15.45-2.12-21.44ZM143.01,70.569c-.46-8.85-2.94-16.92-7.35-23.97-2.59-4.15-5.87-7.97-9.8-11.42.93,1.59,1.72,3.29,2.39,5.08,2.4,6.45,3.17,14.16,2.28,22.9-1.07,10.52-4.24,19.88-6.06,24.56,3-1.35,6.55-1.41,9.73.13,2.71,1.32,4.67,3.57,5.66,6.18,1.56-4.93,3.67-13.61,3.15-23.46ZM125.25,41.329c-1.79-4.8-4.6-8.83-8.37-12.02,1.57,5.83.83,14.65-2.22,26.4-2.47,9.5-5.88,18.64-7.73,23.32,2.95-1.28,6.42-1.31,9.54.2,2.62,1.27,4.54,3.42,5.56,5.92,1.78-4.87,4.42-13.26,5.34-22.38.83-8.24.12-15.45-2.12-21.44ZM143.01,70.569c-.46-8.85-2.94-16.92-7.35-23.97-2.59-4.15-5.87-7.97-9.8-11.42.93,1.59,1.72,3.29,2.39,5.08,2.4,6.45,3.17,14.16,2.28,22.9-1.07,10.52-4.24,19.88-6.06,24.56,3-1.35,6.55-1.41,9.73.13,2.71,1.32,4.67,3.57,5.66,6.18,1.56-4.93,3.67-13.61,3.15-23.46ZM111.351,25.749l-21.59,44.44c2.83-1.05,6.06-.99,8.98.43,2.7,1.31,4.66,3.55,5.65,6.16,1.89-4.85,4.95-13.22,7.2-21.9,2.01-7.78,2.99-14.25,2.91-19.24-.08-4.79-1.14-8.11-3.15-9.89ZM109.981,21.289l-.01.01c.04.02.08.04.12.05-.03-.02-.07-.04-.11-.06ZM108.581,24.159v.01l-.01.01c.2.09.4.18.6.27-.2-.1-.39-.2-.59-.29ZM98.77,27.999c-3.96,3.02-8.44,7.79-13.3,14.19-5.4,7.1-10.07,14.66-12.7,19.14,2.64-.79,5.57-.63,8.24.67,2.93,1.42,4.97,3.93,5.88,6.81l21.6-44.45c-2.64-.49-5.9.74-9.72,3.64ZM87.631,23.049c-6.09,1.94-12.22,5.83-18.19,11.57-6.66,6.39-11.66,13.69-14.39,18.09,2.64-.78,5.56-.62,8.23.68,3.15,1.53,5.28,4.31,6.07,7.46,2.52-4.34,7.6-12.71,13.57-20.57,7.34-9.67,13.82-15.7,19.37-18.07-4.86-.99-9.77-.71-14.66.84ZM65.701,13.399c-10.69.12-20.5,2.75-29.16,7.83-7.38,4.33-12.66,9.72-16.1,14.03,2.41-.52,5-.26,7.38.9,3.16,1.54,5.3,4.35,6.09,7.52,2.72-4.28,8.65-12.39,17.93-19,7.68-5.46,16.03-8.72,24.85-9.7,1.22-.14,2.45-.23,3.69-.27-5.06-.93-9.96-1.37-14.68-1.31ZM77.111,18.139c-8.26.9-16.11,3.95-23.32,9.07-7.93,5.62-13.38,12.55-16.3,16.84,2.59-.73,5.45-.55,8.06.72,3.14,1.52,5.27,4.3,6.07,7.44,2.59-4.33,7.98-12.55,15.56-19.84,6.34-6.1,12.88-10.25,19.45-12.34,1.81-.58,3.63-.99,5.44-1.25-5.13-.96-10.12-1.17-14.96-.64ZM87.631,23.049c-6.09,1.94-12.22,5.83-18.19,11.57-6.66,6.39-11.66,13.69-14.39,18.09,2.64-.78,5.56-.62,8.23.68,3.15,1.53,5.28,4.31,6.07,7.46,2.52-4.34,7.6-12.71,13.57-20.57,7.34-9.67,13.82-15.7,19.37-18.07-4.86-.99-9.77-.71-14.66.84ZM65.701,13.399c-10.69.12-20.5,2.75-29.16,7.83-7.38,4.33-12.66,9.72-16.1,14.03,2.41-.52,5-.26,7.38.9,3.16,1.54,5.3,4.35,6.09,7.52,2.72-4.28,8.65-12.39,17.93-19,7.68-5.46,16.03-8.72,24.85-9.7,1.22-.14,2.45-.23,3.69-.27-5.06-.93-9.96-1.37-14.68-1.31ZM77.111,18.139c-8.26.9-16.11,3.95-23.32,9.07-7.93,5.62-13.38,12.55-16.3,16.84,2.59-.73,5.45-.55,8.06.72,3.14,1.52,5.27,4.3,6.07,7.44,2.59-4.33,7.98-12.55,15.56-19.84,6.34-6.1,12.88-10.25,19.45-12.34,1.81-.58,3.63-.99,5.44-1.25-5.13-.96-10.12-1.17-14.96-.64ZM98.77,27.999c-3.96,3.02-8.44,7.79-13.3,14.19-5.4,7.1-10.07,14.66-12.7,19.14,2.64-.79,5.57-.63,8.24.67,2.93,1.42,4.97,3.93,5.88,6.81l21.6-44.45c-2.64-.49-5.9.74-9.72,3.64ZM108.581,24.159v.01l-.01.01c.2.09.4.18.6.27-.2-.1-.39-.2-.59-.29ZM109.981,21.289l-.01.01c.04.02.08.04.12.05-.03-.02-.07-.04-.11-.06ZM111.351,25.749l-21.59,44.44c2.83-1.05,6.06-.99,8.98.43,2.7,1.31,4.66,3.55,5.65,6.16,1.89-4.85,4.95-13.22,7.2-21.9,2.01-7.78,2.99-14.25,2.91-19.24-.08-4.79-1.14-8.11-3.15-9.89ZM125.25,41.329c-1.79-4.8-4.6-8.83-8.37-12.02,1.57,5.83.83,14.65-2.22,26.4-2.47,9.5-5.88,18.64-7.73,23.32,2.95-1.28,6.42-1.31,9.54.2,2.62,1.27,4.54,3.42,5.56,5.92,1.78-4.87,4.42-13.26,5.34-22.38.83-8.24.12-15.45-2.12-21.44ZM143.01,70.569c-.46-8.85-2.94-16.92-7.35-23.97-2.59-4.15-5.87-7.97-9.8-11.42.93,1.59,1.72,3.29,2.39,5.08,2.4,6.45,3.17,14.16,2.28,22.9-1.07,10.52-4.24,19.88-6.06,24.56,3-1.35,6.55-1.41,9.73.13,2.71,1.32,4.67,3.57,5.66,6.18,1.56-4.93,3.67-13.61,3.15-23.46ZM125.25,41.329c-1.79-4.8-4.6-8.83-8.37-12.02,1.57,5.83.83,14.65-2.22,26.4-2.47,9.5-5.88,18.64-7.73,23.32,2.95-1.28,6.42-1.31,9.54.2,2.62,1.27,4.54,3.42,5.56,5.92,1.78-4.87,4.42-13.26,5.34-22.38.83-8.24.12-15.45-2.12-21.44ZM143.01,70.569c-.46-8.85-2.94-16.92-7.35-23.97-2.59-4.15-5.87-7.97-9.8-11.42.93,1.59,1.72,3.29,2.39,5.08,2.4,6.45,3.17,14.16,2.28,22.9-1.07,10.52-4.24,19.88-6.06,24.56,3-1.35,6.55-1.41,9.73.13,2.71,1.32,4.67,3.57,5.66,6.18,1.56-4.93,3.67-13.61,3.15-23.46ZM111.351,25.749l-21.59,44.44c2.83-1.05,6.06-.99,8.98.43,2.7,1.31,4.66,3.55,5.65,6.16,1.89-4.85,4.95-13.22,7.2-21.9,2.01-7.78,2.99-14.25,2.91-19.24-.08-4.79-1.14-8.11-3.15-9.89ZM109.981,21.289l-.01.01c.04.02.08.04.12.05-.03-.02-.07-.04-.11-.06ZM108.581,24.159v.01l-.01.01c.2.09.4.18.6.27-.2-.1-.39-.2-.59-.29ZM98.77,27.999c-3.96,3.02-8.44,7.79-13.3,14.19-5.4,7.1-10.07,14.66-12.7,19.14,2.64-.79,5.57-.63,8.24.67,2.93,1.42,4.97,3.93,5.88,6.81l21.6-44.45c-2.64-.49-5.9.74-9.72,3.64ZM87.631,23.049c-6.09,1.94-12.22,5.83-18.19,11.57-6.66,6.39-11.66,13.69-14.39,18.09,2.64-.78,5.56-.62,8.23.68,3.15,1.53,5.28,4.31,6.07,7.46,2.52-4.34,7.6-12.71,13.57-20.57,7.34-9.67,13.82-15.7,19.37-18.07-4.86-.99-9.77-.71-14.66.84ZM65.701,13.399c-10.69.12-20.5,2.75-29.16,7.83-7.38,4.33-12.66,9.72-16.1,14.03,2.41-.52,5-.26,7.38.9,3.16,1.54,5.3,4.35,6.09,7.52,2.72-4.28,8.65-12.39,17.93-19,7.68-5.46,16.03-8.72,24.85-9.7,1.22-.14,2.45-.23,3.69-.27-5.06-.93-9.96-1.37-14.68-1.31ZM77.111,18.139c-8.26.9-16.11,3.95-23.32,9.07-7.93,5.62-13.38,12.55-16.3,16.84,2.59-.73,5.45-.55,8.06.72,3.14,1.52,5.27,4.3,6.07,7.44,2.59-4.33,7.98-12.55,15.56-19.84,6.34-6.1,12.88-10.25,19.45-12.34,1.81-.58,3.63-.99,5.44-1.25-5.13-.96-10.12-1.17-14.96-.64ZM108.581,24.159v.01l-.01.01c.2.09.4.18.6.27-.2-.1-.39-.2-.59-.29ZM98.77,27.999c-3.96,3.02-8.44,7.79-13.3,14.19-5.4,7.1-10.07,14.66-12.7,19.14,2.64-.79,5.57-.63,8.24.67,2.93,1.42,4.97,3.93,5.88,6.81l21.6-44.45c-2.64-.49-5.9.74-9.72,3.64ZM87.631,23.049c-6.09,1.94-12.22,5.83-18.19,11.57-6.66,6.39-11.66,13.69-14.39,18.09,2.64-.78,5.56-.62,8.23.68,3.15,1.53,5.28,4.31,6.07,7.46,2.52-4.34,7.6-12.71,13.57-20.57,7.34-9.67,13.82-15.7,19.37-18.07-4.86-.99-9.77-.71-14.66.84ZM65.701,13.399c-10.69.12-20.5,2.75-29.16,7.83-7.38,4.33-12.66,9.72-16.1,14.03,2.41-.52,5-.26,7.38.9,3.16,1.54,5.3,4.35,6.09,7.52,2.72-4.28,8.65-12.39,17.93-19,7.68-5.46,16.03-8.72,24.85-9.7,1.22-.14,2.45-.23,3.69-.27-5.06-.93-9.96-1.37-14.68-1.31ZM77.111,18.139c-8.26.9-16.11,3.95-23.32,9.07-7.93,5.62-13.38,12.55-16.3,16.84,2.59-.73,5.45-.55,8.06.72,3.14,1.52,5.27,4.3,6.07,7.44,2.59-4.33,7.98-12.55,15.56-19.84,6.34-6.1,12.88-10.25,19.45-12.34,1.81-.58,3.63-.99,5.44-1.25-5.13-.96-10.12-1.17-14.96-.64ZM109.981,21.289l-.01.01c.04.02.08.04.12.05-.03-.02-.07-.04-.11-.06ZM111.351,25.749l-21.59,44.44c2.83-1.05,6.06-.99,8.98.43,2.7,1.31,4.66,3.55,5.65,6.16,1.89-4.85,4.95-13.22,7.2-21.9,2.01-7.78,2.99-14.25,2.91-19.24-.08-4.79-1.14-8.11-3.15-9.89ZM125.25,41.329c-1.79-4.8-4.6-8.83-8.37-12.02,1.57,5.83.83,14.65-2.22,26.4-2.47,9.5-5.88,18.64-7.73,23.32,2.95-1.28,6.42-1.31,9.54.2,2.62,1.27,4.54,3.42,5.56,5.92,1.78-4.87,4.42-13.26,5.34-22.38.83-8.24.12-15.45-2.12-21.44ZM143.01,70.569c-.46-8.85-2.94-16.92-7.35-23.97-2.59-4.15-5.87-7.97-9.8-11.42.93,1.59,1.72,3.29,2.39,5.08,2.4,6.45,3.17,14.16,2.28,22.9-1.07,10.52-4.24,19.88-6.06,24.56,3-1.35,6.55-1.41,9.73.13,2.71,1.32,4.67,3.57,5.66,6.18,1.56-4.93,3.67-13.61,3.15-23.46ZM125.25,41.329c-1.79-4.8-4.6-8.83-8.37-12.02,1.57,5.83.83,14.65-2.22,26.4-2.47,9.5-5.88,18.64-7.73,23.32,2.95-1.28,6.42-1.31,9.54.2,2.62,1.27,4.54,3.42,5.56,5.92,1.78-4.87,4.42-13.26,5.34-22.38.83-8.24.12-15.45-2.12-21.44ZM143.01,70.569c-.46-8.85-2.94-16.92-7.35-23.97-2.59-4.15-5.87-7.97-9.8-11.42.93,1.59,1.72,3.29,2.39,5.08,2.4,6.45,3.17,14.16,2.28,22.9-1.07,10.52-4.24,19.88-6.06,24.56,3-1.35,6.55-1.41,9.73.13,2.71,1.32,4.67,3.57,5.66,6.18,1.56-4.93,3.67-13.61,3.15-23.46ZM111.351,25.749l-21.59,44.44c2.83-1.05,6.06-.99,8.98.43,2.7,1.31,4.66,3.55,5.65,6.16,1.89-4.85,4.95-13.22,7.2-21.9,2.01-7.78,2.99-14.25,2.91-19.24-.08-4.79-1.14-8.11-3.15-9.89ZM109.981,21.289l-.01.01c.04.02.08.04.12.05-.03-.02-.07-.04-.11-.06ZM108.581,24.159v.01l-.01.01c.2.09.4.18.6.27-.2-.1-.39-.2-.59-.29ZM98.77,27.999c-3.96,3.02-8.44,7.79-13.3,14.19-5.4,7.1-10.07,14.66-12.7,19.14,2.64-.79,5.57-.63,8.24.67,2.93,1.42,4.97,3.93,5.88,6.81l21.6-44.45c-2.64-.49-5.9.74-9.72,3.64ZM87.631,23.049c-6.09,1.94-12.22,5.83-18.19,11.57-6.66,6.39-11.66,13.69-14.39,18.09,2.64-.78,5.56-.62,8.23.68,3.15,1.53,5.28,4.31,6.07,7.46,2.52-4.34,7.6-12.71,13.57-20.57,7.34-9.67,13.82-15.7,19.37-18.07-4.86-.99-9.77-.71-14.66.84ZM65.701,13.399c-10.69.12-20.5,2.75-29.16,7.83-7.38,4.33-12.66,9.72-16.1,14.03,2.41-.52,5-.26,7.38.9,3.16,1.54,5.3,4.35,6.09,7.52,2.72-4.28,8.65-12.39,17.93-19,7.68-5.46,16.03-8.72,24.85-9.7,1.22-.14,2.45-.23,3.69-.27-5.06-.93-9.96-1.37-14.68-1.31ZM77.111,18.139c-8.26.9-16.11,3.95-23.32,9.07-7.93,5.62-13.38,12.55-16.3,16.84,2.59-.73,5.45-.55,8.06.72,3.14,1.52,5.27,4.3,6.07,7.44,2.59-4.33,7.98-12.55,15.56-19.84,6.34-6.1,12.88-10.25,19.45-12.34,1.81-.58,3.63-.99,5.44-1.25-5.13-.96-10.12-1.17-14.96-.64ZM108.581,24.159v.01l-.01.01c.2.09.4.18.6.27-.2-.1-.39-.2-.59-.29ZM98.77,27.999c-3.96,3.02-8.44,7.79-13.3,14.19-5.4,7.1-10.07,14.66-12.7,19.14,2.64-.79,5.57-.63,8.24.67,2.93,1.42,4.97,3.93,5.88,6.81l21.6-44.45c-2.64-.49-5.9.74-9.72,3.64ZM87.631,23.049c-6.09,1.94-12.22,5.83-18.19,11.57-6.66,6.39-11.66,13.69-14.39,18.09,2.64-.78,5.56-.62,8.23.68,3.15,1.53,5.28,4.31,6.07,7.46,2.52-4.34,7.6-12.71,13.57-20.57,7.34-9.67,13.82-15.7,19.37-18.07-4.86-.99-9.77-.71-14.66.84ZM65.701,13.399c-10.69.12-20.5,2.75-29.16,7.83-7.38,4.33-12.66,9.72-16.1,14.03,2.41-.52,5-.26,7.38.9,3.16,1.54,5.3,4.35,6.09,7.52,2.72-4.28,8.65-12.39,17.93-19,7.68-5.46,16.03-8.72,24.85-9.7,1.22-.14,2.45-.23,3.69-.27-5.06-.93-9.96-1.37-14.68-1.31ZM77.111,18.139c-8.26.9-16.11,3.95-23.32,9.07-7.93,5.62-13.38,12.55-16.3,16.84,2.59-.73,5.45-.55,8.06.72,3.14,1.52,5.27,4.3,6.07,7.44,2.59-4.33,7.98-12.55,15.56-19.84,6.34-6.1,12.88-10.25,19.45-12.34,1.81-.58,3.63-.99,5.44-1.25-5.13-.96-10.12-1.17-14.96-.64ZM109.981,21.289l-.01.01c.04.02.08.04.12.05-.03-.02-.07-.04-.11-.06ZM111.351,25.749l-21.59,44.44c2.83-1.05,6.06-.99,8.98.43,2.7,1.31,4.66,3.55,5.65,6.16,1.89-4.85,4.95-13.22,7.2-21.9,2.01-7.78,2.99-14.25,2.91-19.24-.08-4.79-1.14-8.11-3.15-9.89ZM125.25,41.329c-1.79-4.8-4.6-8.83-8.37-12.02,1.57,5.83.83,14.65-2.22,26.4-2.47,9.5-5.88,18.64-7.73,23.32,2.95-1.28,6.42-1.31,9.54.2,2.62,1.27,4.54,3.42,5.56,5.92,1.78-4.87,4.42-13.26,5.34-22.38.83-8.24.12-15.45-2.12-21.44ZM143.01,70.569c-.46-8.85-2.94-16.92-7.35-23.97-2.59-4.15-5.87-7.97-9.8-11.42.93,1.59,1.72,3.29,2.39,5.08,2.4,6.45,3.17,14.16,2.28,22.9-1.07,10.52-4.24,19.88-6.06,24.56,3-1.35,6.55-1.41,9.73.13,2.71,1.32,4.67,3.57,5.66,6.18,1.56-4.93,3.67-13.61,3.15-23.46ZM125.25,41.329c-1.79-4.8-4.6-8.83-8.37-12.02,1.57,5.83.83,14.65-2.22,26.4-2.47,9.5-5.88,18.64-7.73,23.32,2.95-1.28,6.42-1.31,9.54.2,2.62,1.27,4.54,3.42,5.56,5.92,1.78-4.87,4.42-13.26,5.34-22.38.83-8.24.12-15.45-2.12-21.44ZM143.01,70.569c-.46-8.85-2.94-16.92-7.35-23.97-2.59-4.15-5.87-7.97-9.8-11.42.93,1.59,1.72,3.29,2.39,5.08,2.4,6.45,3.17,14.16,2.28,22.9-1.07,10.52-4.24,19.88-6.06,24.56,3-1.35,6.55-1.41,9.73.13,2.71,1.32,4.67,3.57,5.66,6.18,1.56-4.93,3.67-13.61,3.15-23.46ZM111.351,25.749l-21.59,44.44c2.83-1.05,6.06-.99,8.98.43,2.7,1.31,4.66,3.55,5.65,6.16,1.89-4.85,4.95-13.22,7.2-21.9,2.01-7.78,2.99-14.25,2.91-19.24-.08-4.79-1.14-8.11-3.15-9.89ZM109.981,21.289l-.01.01c.04.02.08.04.12.05-.03-.02-.07-.04-.11-.06ZM108.581,24.159v.01l-.01.01c.2.09.4.18.6.27-.2-.1-.39-.2-.59-.29ZM98.77,27.999c-3.96,3.02-8.44,7.79-13.3,14.19-5.4,7.1-10.07,14.66-12.7,19.14,2.64-.79,5.57-.63,8.24.67,2.93,1.42,4.97,3.93,5.88,6.81l21.6-44.45c-2.64-.49-5.9.74-9.72,3.64ZM87.631,23.049c-6.09,1.94-12.22,5.83-18.19,11.57-6.66,6.39-11.66,13.69-14.39,18.09,2.64-.78,5.56-.62,8.23.68,3.15,1.53,5.28,4.31,6.07,7.46,2.52-4.34,7.6-12.71,13.57-20.57,7.34-9.67,13.82-15.7,19.37-18.07-4.86-.99-9.77-.71-14.66.84ZM65.701,13.399c-10.69.12-20.5,2.75-29.16,7.83-7.38,4.33-12.66,9.72-16.1,14.03,2.41-.52,5-.26,7.38.9,3.16,1.54,5.3,4.35,6.09,7.52,2.72-4.28,8.65-12.39,17.93-19,7.68-5.46,16.03-8.72,24.85-9.7,1.22-.14,2.45-.23,3.69-.27-5.06-.93-9.96-1.37-14.68-1.31ZM77.111,18.139c-8.26.9-16.11,3.95-23.32,9.07-7.93,5.62-13.38,12.55-16.3,16.84,2.59-.73,5.45-.55,8.06.72,3.14,1.52,5.27,4.3,6.07,7.44,2.59-4.33,7.98-12.55,15.56-19.84,6.34-6.1,12.88-10.25,19.45-12.34,1.81-.58,3.63-.99,5.44-1.25-5.13-.96-10.12-1.17-14.96-.64ZM108.581,24.159v.01l-.01.01c.2.09.4.18.6.27-.2-.1-.39-.2-.59-.29ZM98.77,27.999c-3.96,3.02-8.44,7.79-13.3,14.19-5.4,7.1-10.07,14.66-12.7,19.14,2.64-.79,5.57-.63,8.24.67,2.93,1.42,4.97,3.93,5.88,6.81l21.6-44.45c-2.64-.49-5.9.74-9.72,3.64ZM87.631,23.049c-6.09,1.94-12.22,5.83-18.19,11.57-6.66,6.39-11.66,13.69-14.39,18.09,2.64-.78,5.56-.62,8.23.68,3.15,1.53,5.28,4.31,6.07,7.46,2.52-4.34,7.6-12.71,13.57-20.57,7.34-9.67,13.82-15.7,19.37-18.07-4.86-.99-9.77-.71-14.66.84ZM65.701,13.399c-10.69.12-20.5,2.75-29.16,7.83-7.38,4.33-12.66,9.72-16.1,14.03,2.41-.52,5-.26,7.38.9,3.16,1.54,5.3,4.35,6.09,7.52,2.72-4.28,8.65-12.39,17.93-19,7.68-5.46,16.03-8.72,24.85-9.7,1.22-.14,2.45-.23,3.69-.27-5.06-.93-9.96-1.37-14.68-1.31ZM77.111,18.139c-8.26.9-16.11,3.95-23.32,9.07-7.93,5.62-13.38,12.55-16.3,16.84,2.59-.73,5.45-.55,8.06.72,3.14,1.52,5.27,4.3,6.07,7.44,2.59-4.33,7.98-12.55,15.56-19.84,6.34-6.1,12.88-10.25,19.45-12.34,1.81-.58,3.63-.99,5.44-1.25-5.13-.96-10.12-1.17-14.96-.64ZM109.981,21.289l-.01.01c.04.02.08.04.12.05-.03-.02-.07-.04-.11-.06ZM111.351,25.749l-21.59,44.44c2.83-1.05,6.06-.99,8.98.43,2.7,1.31,4.66,3.55,5.65,6.16,1.89-4.85,4.95-13.22,7.2-21.9,2.01-7.78,2.99-14.25,2.91-19.24-.08-4.79-1.14-8.11-3.15-9.89ZM125.25,41.329c-1.79-4.8-4.6-8.83-8.37-12.02,1.57,5.83.83,14.65-2.22,26.4-2.47,9.5-5.88,18.64-7.73,23.32,2.95-1.28,6.42-1.31,9.54.2,2.62,1.27,4.54,3.42,5.56,5.92,1.78-4.87,4.42-13.26,5.34-22.38.83-8.24.12-15.45-2.12-21.44ZM143.01,70.569c-.46-8.85-2.94-16.92-7.35-23.97-2.59-4.15-5.87-7.97-9.8-11.42.93,1.59,1.72,3.29,2.39,5.08,2.4,6.45,3.17,14.16,2.28,22.9-1.07,10.52-4.24,19.88-6.06,24.56,3-1.35,6.55-1.41,9.73.13,2.71,1.32,4.67,3.57,5.66,6.18,1.56-4.93,3.67-13.61,3.15-23.46ZM111.351,25.749l-21.59,44.44c2.83-1.05,6.06-.99,8.98.43,2.7,1.31,4.66,3.55,5.65,6.16,1.89-4.85,4.95-13.22,7.2-21.9,2.01-7.78,2.99-14.25,2.91-19.24-.08-4.79-1.14-8.11-3.15-9.89ZM125.25,41.329c-1.79-4.8-4.6-8.83-8.37-12.02,1.57,5.83.83,14.65-2.22,26.4-2.47,9.5-5.88,18.64-7.73,23.32,2.95-1.28,6.42-1.31,9.54.2,2.62,1.27,4.54,3.42,5.56,5.92,1.78-4.87,4.42-13.26,5.34-22.38.83-8.24.12-15.45-2.12-21.44ZM143.01,70.569c-.46-8.85-2.94-16.92-7.35-23.97-2.59-4.15-5.87-7.97-9.8-11.42.93,1.59,1.72,3.29,2.39,5.08,2.4,6.45,3.17,14.16,2.28,22.9-1.07,10.52-4.24,19.88-6.06,24.56,3-1.35,6.55-1.41,9.73.13,2.71,1.32,4.67,3.57,5.66,6.18,1.56-4.93,3.67-13.61,3.15-23.46ZM109.981,21.289l-.01.01c.04.02.08.04.12.05-.03-.02-.07-.04-.11-.06ZM108.581,24.159v.01l-.01.01c.2.09.4.18.6.27-.2-.1-.39-.2-.59-.29ZM98.77,27.999c-3.96,3.02-8.44,7.79-13.3,14.19-5.4,7.1-10.07,14.66-12.7,19.14,2.64-.79,5.57-.63,8.24.67,2.93,1.42,4.97,3.93,5.88,6.81l21.6-44.45c-2.64-.49-5.9.74-9.72,3.64ZM87.631,23.049c-6.09,1.94-12.22,5.83-18.19,11.57-6.66,6.39-11.66,13.69-14.39,18.09,2.64-.78,5.56-.62,8.23.68,3.15,1.53,5.28,4.31,6.07,7.46,2.52-4.34,7.6-12.71,13.57-20.57,7.34-9.67,13.82-15.7,19.37-18.07-4.86-.99-9.77-.71-14.66.84ZM65.701,13.399c-10.69.12-20.5,2.75-29.16,7.83-7.38,4.33-12.66,9.72-16.1,14.03,2.41-.52,5-.26,7.38.9,3.16,1.54,5.3,4.35,6.09,7.52,2.72-4.28,8.65-12.39,17.93-19,7.68-5.46,16.03-8.72,24.85-9.7,1.22-.14,2.45-.23,3.69-.27-5.06-.93-9.96-1.37-14.68-1.31ZM77.111,18.139c-8.26.9-16.11,3.95-23.32,9.07-7.93,5.62-13.38,12.55-16.3,16.84,2.59-.73,5.45-.55,8.06.72,3.14,1.52,5.27,4.3,6.07,7.44,2.59-4.33,7.98-12.55,15.56-19.84,6.34-6.1,12.88-10.25,19.45-12.34,1.81-.58,3.63-.99,5.44-1.25-5.13-.96-10.12-1.17-14.96-.64ZM98.77,27.999c-3.96,3.02-8.44,7.79-13.3,14.19-5.4,7.1-10.07,14.66-12.7,19.14,2.64-.79,5.57-.63,8.24.67,2.93,1.42,4.97,3.93,5.88,6.81l21.6-44.45c-2.64-.49-5.9.74-9.72,3.64ZM87.631,23.049c-6.09,1.94-12.22,5.83-18.19,11.57-6.66,6.39-11.66,13.69-14.39,18.09,2.64-.78,5.56-.62,8.23.68,3.15,1.53,5.28,4.31,6.07,7.46,2.52-4.34,7.6-12.71,13.57-20.57,7.34-9.67,13.82-15.7,19.37-18.07-4.86-.99-9.77-.71-14.66.84ZM65.701,13.399c-10.69.12-20.5,2.75-29.16,7.83-7.38,4.33-12.66,9.72-16.1,14.03,2.41-.52,5-.26,7.38.9,3.16,1.54,5.3,4.35,6.09,7.52,2.72-4.28,8.65-12.39,17.93-19,7.68-5.46,16.03-8.72,24.85-9.7,1.22-.14,2.45-.23,3.69-.27-5.06-.93-9.96-1.37-14.68-1.31ZM77.111,18.139c-8.26.9-16.11,3.95-23.32,9.07-7.93,5.62-13.38,12.55-16.3,16.84,2.59-.73,5.45-.55,8.06.72,3.14,1.52,5.27,4.3,6.07,7.44,2.59-4.33,7.98-12.55,15.56-19.84,6.34-6.1,12.88-10.25,19.45-12.34,1.81-.58,3.63-.99,5.44-1.25-5.13-.96-10.12-1.17-14.96-.64ZM111.351,25.749l-21.59,44.44c2.83-1.05,6.06-.99,8.98.43,2.7,1.31,4.66,3.55,5.65,6.16,1.89-4.85,4.95-13.22,7.2-21.9,2.01-7.78,2.99-14.25,2.91-19.24-.08-4.79-1.14-8.11-3.15-9.89ZM125.25,41.329c-1.79-4.8-4.6-8.83-8.37-12.02,1.57,5.83.83,14.65-2.22,26.4-2.47,9.5-5.88,18.64-7.73,23.32,2.95-1.28,6.42-1.31,9.54.2,2.62,1.27,4.54,3.42,5.56,5.92,1.78-4.87,4.42-13.26,5.34-22.38.83-8.24.12-15.45-2.12-21.44ZM143.01,70.569c-.46-8.85-2.94-16.92-7.35-23.97-2.59-4.15-5.87-7.97-9.8-11.42.93,1.59,1.72,3.29,2.39,5.08,2.4,6.45,3.17,14.16,2.28,22.9-1.07,10.52-4.24,19.88-6.06,24.56,3-1.35,6.55-1.41,9.73.13,2.71,1.32,4.67,3.57,5.66,6.18,1.56-4.93,3.67-13.61,3.15-23.46Z"/>
          <path d="M168.091,63.679c-3.5-8.89-9.05-17.16-16.5-24.56-7.64-7.6-17.35-14.36-28.89-20.11,1.47-4.22-.42-8.96-4.53-10.96-4.1-1.99-8.99-.55-11.4,3.19C83.02-.021,61.591-2.841,43.051,2.869c-8.44,2.6-16.22,6.98-23.13,13.03-6.41,5.6-12.07,12.63-16.83,20.9C.231,41.789-.689,47.359.521,52.459c.98,4.24,3.17,7.4,6.52,9.41.38,1.88,1.58,6.88,4.37,11.91,4.33,7.82,10.55,12.17,18.08,12.67-.5,3.4-1.26,10.99.21,19.75,1.15,6.87,3.44,13.03,6.81,18.29,4.23,6.59,10.15,11.78,17.61,15.4,7.46,3.62,15.19,5.08,22.99,4.32,6.22-.6,12.47-2.6,18.58-5.95,7.79-4.26,13.29-9.55,15.64-12.04,5.05,5.61,12.32,7.82,21.15,6.39,5.68-.91,10.36-3.06,12.08-3.91,1.56.59,3.16.89,4.78.89,2.17,0,4.39-.53,6.64-1.58,4.78-2.24,8.59-6.4,10.71-11.71,7.31-18.18,7.79-36.38,1.4-52.62ZM163.74,115.109c-.91,2.28-2.18,4.31-3.72,6.01-1.55,1.7-3.37,3.06-5.39,4.01-3.33,1.55-6.53,1.67-9.51.36-.45-.2-.98-.18-1.41.06-.06.03-5.31,2.9-11.81,3.93-8.41,1.34-14.89-.9-19.24-6.65-.3-.39-.75-.62-1.23-.63-.49-.01-.95.2-1.26.57-.07.07-6.25,7.39-16.1,12.75-5.72,3.12-11.55,4.98-17.33,5.53-7.18.68-14.32-.67-21.23-4.02-6.9-3.36-12.38-8.14-16.28-14.21-3.14-4.88-5.28-10.62-6.37-17.05-1.87-11.05.05-20.44.07-20.53.1-.48-.02-.97-.33-1.35-.15-.18-.33-.32-.53-.42-.23-.1-.47-.16-.73-.16-7.21.13-12.97-3.57-17.11-11.01-3.2-5.74-4.18-11.64-4.19-11.7-.08-.49-.39-.92-.83-1.16-2.88-1.53-4.76-4.12-5.59-7.7-1.02-4.32-.23-9.07,2.23-13.36,4.58-7.95,10.02-14.71,16.17-20.08,6.57-5.75,13.96-9.92,21.97-12.39C62.091.339,83.201,3.319,106.76,14.759c.79.39,1.74.06,2.12-.73l.23-.46c1.38-2.85,4.82-4.04,7.67-2.66,2.85,1.39,4.04,4.83,2.66,7.68l-.24.48c-.38.79-.05,1.74.74,2.12,11.82,5.75,21.71,12.54,29.4,20.19,7.14,7.09,12.45,14.99,15.78,23.47,6.09,15.47,5.61,32.85-1.38,50.26Z"/>
        </g>
        <g>
          <path class="cls-2" d="M14.051,41.949c.05-.11.13-.26.24-.45-.08.15-.16.3-.24.45Z"/>
          <path class="cls-2" d="M125.301,33.509c-.32-.22-.65-.43-.98-.64.26.16.51.32.76.49.07.05.15.1.22.15Z"/>
          <path class="cls-2" d="M80.381,14.709c-1.24.04-2.47.13-3.69.27-8.82.98-17.17,4.24-24.85,9.7-9.28,6.61-15.21,14.72-17.93,19-.79-3.17-2.93-5.98-6.09-7.52-2.38-1.16-4.97-1.42-7.38-.9,3.44-4.31,8.72-9.7,16.1-14.03,8.66-5.08,18.47-7.71,29.16-7.83,4.72-.06,9.62.38,14.68,1.31Z"/>
          <path class="cls-2" d="M92.071,18.779c-1.81.26-3.63.67-5.44,1.25-6.57,2.09-13.11,6.24-19.45,12.34-7.58,7.29-12.97,15.51-15.56,19.84-.8-3.14-2.93-5.92-6.07-7.44-2.61-1.27-5.47-1.45-8.06-.72,2.92-4.29,8.37-11.22,16.3-16.84,7.21-5.12,15.06-8.17,23.32-9.07,4.84-.53,9.83-.32,14.96.64Z"/>
          <path class="cls-2" d="M102.291,22.209c-5.55,2.37-12.03,8.4-19.37,18.07-5.97,7.86-11.05,16.23-13.57,20.57-.79-3.15-2.92-5.93-6.07-7.46-2.67-1.3-5.59-1.46-8.23-.68,2.73-4.4,7.73-11.7,14.39-18.09,5.97-5.74,12.1-9.63,18.19-11.57,4.89-1.55,9.8-1.83,14.66-.84Z"/>
          <path class="cls-2" d="M108.49,24.359l-21.6,44.45c-.91-2.88-2.95-5.39-5.88-6.81-2.67-1.3-5.6-1.46-8.24-.67,2.63-4.48,7.3-12.04,12.7-19.14,4.86-6.4,9.34-11.17,13.3-14.19,3.82-2.9,7.08-4.13,9.72-3.64Z"/>
          <path class="cls-2" d="M109.171,24.449c-.2-.09-.4-.18-.6-.27l.01-.01v-.01c.2.09.39.19.59.29Z"/>
          <path class="cls-2" d="M114.5,35.639c.08,4.99-.9,11.46-2.91,19.24-2.25,8.68-5.31,17.05-7.2,21.9-.99-2.61-2.95-4.85-5.65-6.16-2.92-1.42-6.15-1.48-8.98-.43l21.59-44.44c2.01,1.78,3.07,5.1,3.15,9.89Z"/>
          <path class="cls-2" d="M127.371,62.769c-.92,9.12-3.56,17.51-5.34,22.38-1.02-2.5-2.94-4.65-5.56-5.92-3.12-1.51-6.59-1.48-9.54-.2,1.85-4.68,5.26-13.82,7.73-23.32,3.05-11.75,3.79-20.57,2.22-26.4,3.77,3.19,6.58,7.22,8.37,12.02,2.24,5.99,2.95,13.2,2.12,21.44Z"/>
          <path class="cls-2" d="M139.861,94.029c-.99-2.61-2.95-4.86-5.66-6.18-3.18-1.54-6.73-1.48-9.73-.13,1.82-4.68,4.99-14.04,6.06-24.56.89-8.74.12-16.45-2.28-22.9-.67-1.79-1.46-3.49-2.39-5.08,3.93,3.45,7.21,7.27,9.8,11.42,4.41,7.05,6.89,15.12,7.35,23.97.52,9.85-1.59,18.53-3.15,23.46Z"/>
          <path class="cls-2" d="M157.191,101.699c-1.09-2.21-2.88-4.08-5.26-5.24-3.07-1.49-6.5-1.48-9.42-.25,1.67-4.87,4.26-14.44,3.69-25.68-.48-9.42-3.1-18.02-7.8-25.56-.66-1.06-1.36-2.1-2.11-3.11,3.83,3.39,7.19,6.95,10.06,10.67,6.51,8.46,10.51,17.78,11.9,27.7,1.19,8.52.21,16.06-1.06,21.47Z"/>
        </g>
        <g>
          <path d="M109.171,24.449c-.2-.09-.4-.18-.6-.27l.01-.01v-.01c.2.09.39.19.59.29Z"/>
          <path d="M110.091,21.349c-.04-.01-.08-.03-.12-.05l.01-.01c.04.02.08.04.11.06Z"/>
        </g>
        <path d="M109.171,24.449c-.2-.1-.39-.19-.59-.28v-.01c.2.09.39.19.59.29Z"/>
        <path d="M109.171,24.449c-.2-.09-.4-.18-.6-.27l.01-.01v-.01c.2.09.39.19.59.29Z"/>
        <path d="M109.171,24.449c-.2-.09-.4-.18-.6-.27l.01-.01v-.01c.2.09.39.19.59.29Z"/>
        <g>
          <path d="M125.301,33.509c-.32-.22-.65-.43-.98-.64.26.16.51.32.76.49.07.05.15.1.22.15Z"/>
          <path d="M109.981,21.289l-.01.01c.04.02.08.04.12.05-.03-.02-.07-.04-.11-.06Z"/>
        </g>
        <path d="M109.171,24.449c-.2-.09-.4-.18-.6-.27l.01-.01v-.01c.2.09.39.19.59.29Z"/>
        <path d="M110.091,21.349c-.04-.01-.08-.03-.12-.05l.01-.01c.04.02.08.04.11.06Z"/>
        <g>
          <path d="M59.731,86.839c-.01-.01-.01-.02-.01-.04l-1.52-7.77c-.1-.49-.42-.9-.87-1.12-.45-.22-.98-.22-1.42.01l-7.05,3.6c-4.37,2.23-6.36,6.45-4.95,10.52.75,2.17,2.32,3.83,4.24,4.76,1.92.94,4.19,1.14,6.36.39,4.06-1.41,6.06-5.37,5.22-10.35ZM46.921,90.999c-1-2.89.98-5.41,3.39-6.64l5.17-2.64,1.11,5.68c.82,4.86-1.91,6.36-3.12,6.78-2.68.93-5.62-.5-6.55-3.18Z"/>
          <path class="cls-2" d="M53.471,94.179c-2.68.93-5.62-.5-6.55-3.18-1-2.89.98-5.41,3.39-6.64l5.17-2.64,1.11,5.68c.82,4.86-1.91,6.36-3.12,6.78Z"/>
        </g>
        <g>
          <path class="cls-2" d="M26.381,68.169c-2.21.76-4.63-.41-5.39-2.62-.55-1.59-.14-3.97,2.82-5.48l4.22-2.16.91,4.63c.23,1.37.42,4.6-2.56,5.63Z"/>
          <path d="M32.071,61.989v-.04l-1.32-6.72c-.1-.49-.42-.91-.87-1.13-.45-.22-.97-.21-1.42.02l-6.09,3.11c-3.05,1.55-4.79,4.21-4.79,7.03,0,.77.13,1.55.4,2.33.67,1.93,2.06,3.42,3.77,4.25,1.71.83,3.74,1.01,5.67.34,3.62-1.25,5.4-4.77,4.65-9.19ZM20.991,65.549c-.55-1.59-.14-3.97,2.82-5.48l4.22-2.16.91,4.63c.23,1.37.42,4.6-2.56,5.63-2.21.76-4.63-.41-5.39-2.62Z"/>
        </g>
        <g>
          <path class="cls-2" d="M124.121,117.499c-3.05,1.06-6.38-.56-7.44-3.61-1.13-3.28,1.1-6.14,3.82-7.52l5.9-3.02,1.27,6.48c.93,5.5-2.17,7.2-3.55,7.67Z"/>
          <path d="M130.811,109.279c-.01-.01-.01-.03-.01-.04l-1.68-8.57c-.1-.49-.42-.91-.87-1.13-.45-.22-.97-.21-1.42.02l-7.78,3.97c-4.74,2.41-6.9,7-5.38,11.4.82,2.35,2.51,4.16,4.59,5.17,2.08,1.01,4.55,1.23,6.9.41,4.4-1.52,6.56-5.82,5.65-11.23ZM116.681,113.889c-1.13-3.28,1.1-6.14,3.82-7.52l5.9-3.02,1.27,6.48c.93,5.5-2.17,7.2-3.55,7.67-3.05,1.06-6.38-.56-7.44-3.61Z"/>
        </g>
      </g>
      <path d="M161.421,79.949c-1.43-10.5-5.63-20.35-12.48-29.27-8.25-10.75-20.4-20.16-36.1-28l2.69-5.53c.39-.8.06-1.75-.73-2.13-.79-.39-1.75-.06-2.13.73l-2.69,5.54c.04.02.08.04.11.06-.04-.01-.08-.03-.12-.05l.01-.01c-15.87-7.51-30.77-11.24-44.32-11.08-11.25.13-21.59,2.91-30.73,8.27-14.37,8.44-21.08,20.41-22.24,22.63-.06.11-.11.22-.17.33v.01c-.38.79-.06,1.74.74,2.13.79.38,1.74.05,2.12-.74.01-.01.08-.16.22-.42,2.12-3.79,6.87-5.32,10.83-3.4,4.1,1.99,5.81,6.95,3.82,11.04-.39.79-.06,1.75.74,2.13.79.39,1.74.06,2.12-.73,1.99-4.1,6.95-5.82,11.05-3.83,4.1,2,5.81,6.95,3.82,11.05-.39.79-.06,1.74.73,2.13.8.38,1.75.05,2.13-.74,1.99-4.1,6.95-5.81,11.05-3.82,4.1,1.99,5.81,6.95,3.82,11.04-.39.8-.06,1.75.73,2.13.8.39,1.75.06,2.13-.73,1.99-4.1,6.95-5.82,11.05-3.82,4.09,1.99,5.8,6.92,3.83,11.02l-.01.03-17.23,35.45-6.46,13.3c-1.58,3.23-.22,7.14,3.01,8.71,3.23,1.57,7.14.22,8.71-3.01l6.47-13.3c.38-.79.05-1.75-.74-2.13-.79-.38-1.74-.05-2.13.74l-6.46,13.29c-.8,1.66-2.8,2.35-4.46,1.55-1.65-.81-2.34-2.81-1.54-4.46l6.46-13.3,17.23-35.46.03-.05c2-4.06,6.94-5.75,11.02-3.77,4.09,1.99,5.81,6.95,3.82,11.05-.39.79-.06,1.74.73,2.12.79.39,1.75.06,2.13-.73,1.99-4.1,6.95-5.82,11.05-3.82,4.09,1.99,5.81,6.94,3.82,11.04-.39.79-.06,1.74.73,2.13.79.38,1.75.05,2.13-.74,1.99-4.1,6.95-5.81,11.05-3.82,4.09,1.99,5.81,6.95,3.82,11.05-.39.79-.06,1.74.73,2.12.79.39,1.75.06,2.13-.73,1.99-4.1,6.95-5.81,11.04-3.82,3.95,1.91,5.68,6.57,4.04,10.56-.13.3-.21.47-.21.48-.39.79-.06,1.75.73,2.13.22.11.46.16.69.16.59,0,1.17-.33,1.44-.9.06-.11.11-.23.16-.35,1.03-2.27,6.3-14.95,4.04-31.46ZM157.191,101.699c-1.09-2.21-2.88-4.08-5.26-5.24-3.07-1.49-6.5-1.48-9.42-.25,1.67-4.87,4.26-14.44,3.69-25.68-.48-9.42-3.1-18.02-7.8-25.56-.66-1.06-1.36-2.1-2.11-3.11,3.83,3.39,7.19,6.95,10.06,10.67,6.51,8.46,10.51,17.78,11.9,27.7,1.19,8.52.21,16.06-1.06,21.47ZM108.581,24.169v-.01c.2.09.39.19.59.29-.2-.09-.4-.18-.6-.27l.01-.01ZM33.911,43.679c-.79-3.17-2.93-5.98-6.09-7.52-2.38-1.16-4.97-1.42-7.38-.9,3.44-4.31,8.72-9.7,16.1-14.03,8.66-5.08,18.47-7.71,29.16-7.83,4.72-.06,9.62.38,14.68,1.31-1.24.04-2.47.13-3.69.27-8.82.98-17.17,4.24-24.85,9.7-9.28,6.61-15.21,14.72-17.93,19ZM51.621,52.209c-.8-3.14-2.93-5.92-6.07-7.44-2.61-1.27-5.47-1.45-8.06-.72,2.92-4.29,8.37-11.22,16.3-16.84,7.21-5.12,15.06-8.17,23.32-9.07,4.84-.53,9.83-.32,14.96.64-1.81.26-3.63.67-5.44,1.25-6.57,2.09-13.11,6.24-19.45,12.34-7.58,7.29-12.97,15.51-15.56,19.84ZM69.351,60.849c-.79-3.15-2.92-5.93-6.07-7.46-2.67-1.3-5.59-1.46-8.23-.68,2.73-4.4,7.73-11.7,14.39-18.09,5.97-5.74,12.1-9.63,18.19-11.57,4.89-1.55,9.8-1.83,14.66-.84-5.55,2.37-12.03,8.4-19.37,18.07-5.97,7.86-11.05,16.23-13.57,20.57ZM86.891,68.809c-.91-2.88-2.95-5.39-5.88-6.81-2.67-1.3-5.6-1.46-8.24-.67,2.63-4.48,7.3-12.04,12.7-19.14,4.86-6.4,9.34-11.17,13.3-14.19,3.82-2.9,7.08-4.13,9.72-3.64l-21.6,44.45ZM104.391,76.779c-.99-2.61-2.95-4.85-5.65-6.16-2.92-1.42-6.15-1.48-8.98-.43l21.59-44.44c2.01,1.78,3.07,5.1,3.15,9.89.08,4.99-.9,11.46-2.91,19.24-2.25,8.68-5.31,17.05-7.2,21.9ZM122.031,85.149c-1.02-2.5-2.94-4.65-5.56-5.92-3.12-1.51-6.59-1.48-9.54-.2,1.85-4.68,5.26-13.82,7.73-23.32,3.05-11.75,3.79-20.57,2.22-26.4,3.77,3.19,6.58,7.22,8.37,12.02,2.24,5.99,2.95,13.2,2.12,21.44-.92,9.12-3.56,17.51-5.34,22.38ZM139.861,94.029c-.99-2.61-2.95-4.86-5.66-6.18-3.18-1.54-6.73-1.48-9.73-.13,1.82-4.68,4.99-14.04,6.06-24.56.89-8.74.12-16.45-2.28-22.9-.67-1.79-1.46-3.49-2.39-5.08,3.93,3.45,7.21,7.27,9.8,11.42,4.41,7.05,6.89,15.12,7.35,23.97.52,9.85-1.59,18.53-3.15,23.46Z"/>
    </g>
  </g>
</svg>