<?xml version="1.0" encoding="UTF-8"?>
<svg xmlns="http://www.w3.org/2000/svg" version="1.1" viewBox="0 0 142.534 142.381">
  <defs>
    <style>
      .cls-1 {
        fill: none;
      }

      .cls-2 {
        fill: #fae160;
      }

      .cls-3 {
        fill: #fff6ee;
      }
    </style>
  </defs>
  <!-- Generator: Adobe Illustrator 28.7.2, SVG Export Plug-In . SVG Version: 1.2.0 Build 154)  -->
  <g>
    <g id="Layer_2">
      <g>
        <g>
          <line class="cls-1" x1="130.216" y1="55.491" x2="132.154" y2="54.539"/>
          <path d="M132.731,55.72l-1.35.66q-.01,0,0,.01l-.58.28-.51-1.03-.07-.15-.39-.79-.19-.39,1.09-.53.84-.42,1.16,2.36Z"/>
        </g>
        <g>
          <g>
            <path class="cls-3" d="M131.771,80.1c.22.45-.07.79-.16.89-.12.12-.45.37-.88.16-1.83-.9-3.91-1.43-6.18-1.57-4.26-.27-7.41,1.97-9.31,3.89-.34.35-.45.86-.29,1.32.35,1.01.87,1.93,1.54,2.73,1.71,2.03,4.04,5.4,5.47,9.95.66,2.11,1.04,4.24,1.13,6.35v.05c0,.48-.39.67-.52.72-.16.06-.56.16-.87-.21-1.3-1.56-2.98-2.88-4.99-3.93-3.74-1.95-7.49-1.23-10-.26-.03.01-.06.02-.08.03-.46.18-.77.6-.81,1.08-.09,1.07.01,2.13.3,3.13.73,2.55,1.49,6.57.94,11.31-.25,2.2-.77,4.31-1.54,6.27-.19.48-.65.5-.79.49-.17-.01-.58-.08-.71-.55-.56-1.95-1.55-3.84-2.96-5.62-2.65-3.34-6.42-4.19-9.12-4.31-.49-.02-.94.24-1.18.66-.52.94-.85,1.94-1,2.98-.36,2.62-1.31,6.61-3.73,10.72-1.13,1.9-2.46,3.61-3.96,5.09-.37.37-.8.19-.92.13-.16-.08-.5-.31-.43-.79.28-2.01.14-4.14-.42-6.33-1.06-4.14-4.16-6.44-6.58-7.65-.32-.16-.7-.18-1.03-.05-.11.04-.22.1-.31.17-.86.65-1.57,1.43-2.13,2.32-1.4,2.24-3.88,5.5-7.77,8.27-1.78,1.27-3.68,2.28-5.63,3.02-.43.16-.79-.03-.98-.27-.15-.18-.29-.48-.06-.83,1.09-1.72,1.83-3.74,2.21-5.99.56-3.33-.44-6.67-2.9-9.66-.31-.37-.81-.54-1.28-.43-1.04.24-2.01.66-2.88,1.25-2.19,1.48-5.78,3.45-10.46,4.39-2.17.44-4.33.6-6.43.47-.52-.03-.68-.47-.72-.6-.04-.16-.1-.58.3-.85,1.69-1.13,3.18-2.66,4.43-4.54,2.36-3.56,2-7.41,1.28-10.01-.13-.47-.51-.83-.99-.92-1.05-.2-2.11-.21-3.14-.03-2.61.47-6.69.8-11.35-.24-2.17-.48-4.22-1.22-6.09-2.2-.45-.24-.42-.69-.4-.83.03-.17.14-.56.61-.64,2.01-.35,4-1.14,5.92-2.36,3.6-2.29,4.84-5.95,5.24-8.62.08-.48-.13-.96-.53-1.24-.88-.62-1.84-1.06-2.86-1.31-2.57-.63-6.43-1.99-10.27-4.83-1.77-1.32-3.33-2.82-4.64-4.46-.32-.41-.1-.82-.02-.94.09-.14.35-.46.81-.35,1.97.5,4.1.58,6.34.25,4.23-.62,6.84-3.47,8.3-5.74.26-.41.27-.93.02-1.35-.56-.92-1.26-1.71-2.08-2.36-2.09-1.62-5.07-4.43-7.42-8.59-1.09-1.93-1.9-3.94-2.43-5.98-.13-.49.24-.78.35-.85.14-.09.52-.28.9.02,1.6,1.25,3.51,2.19,5.69,2.8,3.25.91,6.68.26,9.91-1.88.41-.27.63-.74.57-1.22-.14-1.07-.45-2.07-.94-2.99-1.25-2.34-2.83-6.12-3.28-10.87-.21-2.22-.14-4.41.22-6.51.08-.49.47-.6.63-.63.13-.02.58-.05.84.43.95,1.8,2.31,3.44,4.06,4.88,3.29,2.72,7.15,2.77,9.82,2.32.48-.08.87-.42,1.01-.89.31-1.02.43-2.07.36-3.12-.19-2.64-.09-6.73,1.43-11.26.7-2.09,1.64-4.04,2.81-5.8.24-.37.64-.42.93-.35.18.05.5.2.52.63.13,2.05.71,4.13,1.73,6.19,1.9,3.82,5.41,5.43,8.03,6.11.47.13.97-.03,1.28-.4.71-.81,1.25-1.72,1.6-2.7.9-2.49,2.66-6.19,5.88-9.71,1.49-1.61,3.13-3,4.89-4.13.38-.24.77-.13,1.01.06.15.12.39.39.23.8-.71,1.92-1.02,4.04-.92,6.32.18,4.27,2.73,7.17,4.84,8.85.38.3.9.37,1.34.16.98-.46,1.84-1.07,2.56-1.82,1.84-1.91,4.95-4.58,9.33-6.48,2.02-.88,4.11-1.48,6.19-1.79.52-.08.76.31.82.43.08.16.23.55-.11.9-1.42,1.45-2.56,3.26-3.39,5.37-1.24,3.13-.95,6.61.83,10.05.23.43.68.7,1.17.69,1.07-.02,2.1-.23,3.07-.62,2.45-1,6.37-2.17,11.15-2.13,2.21.03,4.36.32,6.39.88.5.14.56.6.57.74.01.17-.02.58-.47.77-1.89.75-3.66,1.94-5.28,3.52-3.05,2.99-3.49,6.83-3.33,9.52.03.49.33.92.78,1.11.99.41,2.02.64,3.06.68,2.65.09,6.72.61,11.05,2.59,1.95.89,3.73,1.99,5.32,3.28l-.19-.39,1.09-.53.84-.42,1.16,2.36-1.35.66q-.01,0,0,.01l-.58.28-.51-1.03c0,.03-.01.05-.02.07-.05.13-.25.55-.79.53-2.03-.08-4.14.29-6.26,1.08-.04.01-.08.03-.12.04-3.92,1.51-5.86,4.8-6.8,7.3-.17.45-.07.97.27,1.32.73.79,1.58,1.42,2.52,1.87,2.38,1.16,5.88,3.29,9.04,6.87,1.47,1.67,2.7,3.48,3.64,5.38Z"/>
            <path class="cls-3" d="M138.981,76.51c-1.26-2.53-2.88-4.93-4.81-7.12-.96-1.09-1.99-2.13-3.08-3.09-.36-.33-.52-.82-.4-1.3.12-.47.49-.84.96-.96.35-.09.71-.2,1.06-.34,2.92-1.12,5.05-3.75,5.56-6.85s-.64-6.15-3.07-8.17c-2.19-1.82-4.66-3.36-7.34-4.58-1.31-.6-2.68-1.13-4.07-1.58-.47-.15-.81-.54-.9-1.02-.08-.48.1-.96.49-1.26,2.26-1.78,3.52-4.57,3.36-7.46-.21-3.8-2.81-7.04-6.47-8.05-2.7-.75-5.55-1.14-8.45-1.17-1.44-.02-2.91.06-4.37.22-.48.05-.95-.17-1.23-.57-.27-.4-.3-.92-.07-1.35,1.35-2.55,1.36-5.61.04-8.19-1.74-3.38-5.43-5.28-9.18-4.72-2.32.35-4.65.96-6.91,1.84-.42.16-.86.34-1.3.53-1.31.57-2.61,1.23-3.87,1.96-.42.25-.95.24-1.36-.02-.42-.26-.65-.73-.62-1.21.2-2.53-.75-5.03-2.59-6.84-2.5-2.47-6.22-3.25-9.47-1.99-.56.22-1.11.49-1.62.82-2.34,1.5-4.52,3.34-6.47,5.46-.96,1.05-1.88,2.18-2.73,3.36-.29.4-.77.6-1.26.53-.48-.06-.89-.4-1.05-.86-.64-1.81-1.85-3.32-3.49-4.38-2.38-1.53-5.38-1.83-8.03-.81-1.72.67-3.17,1.84-4.2,3.39-1.55,2.35-2.81,4.93-3.73,7.69-.46,1.36-.84,2.78-1.14,4.21-.1.47-.45.86-.92.99-.47.14-.98,0-1.31-.35-2.48-2.57-6.24-3.4-9.58-2.12-2.92,1.13-4.98,3.66-5.51,6.76-.47,2.79-.57,5.69-.29,8.61.14,1.43.36,2.89.67,4.31.11.48-.06.97-.43,1.29-.38.31-.89.39-1.35.21-2.05-.83-4.34-.85-6.45-.04-4.21,1.63-6.54,6.13-5.42,10.48.7,2.71,1.78,5.38,3.21,7.92.71,1.26,1.51,2.49,2.37,3.66.29.39.34.91.13,1.35-.21.44-.65.73-1.14.74-.97.04-1.92.23-2.83.58-2.62,1.02-4.63,3.26-5.37,6-.75,2.74-.16,5.59,1.61,7.81,1.75,2.19,3.82,4.18,6.14,5.9,1.16.86,2.39,1.67,3.65,2.39.43.24.68.7.67,1.19-.02.48-.31.92-.74,1.13-2.87,1.39-4.76,4.25-4.94,7.47-.2,3.46,1.65,6.73,4.72,8.33,2.5,1.3,5.22,2.29,8.07,2.92,1.4.32,2.85.55,4.31.7.49.05.91.36,1.09.81.18.45.1.96-.21,1.34-1.85,2.21-2.5,5.2-1.74,7.99,1,3.68,4.21,6.3,8,6.53,2.8.17,5.67-.03,8.52-.61,1.41-.29,2.83-.66,4.21-1.12.46-.15.97-.03,1.32.3.35.34.49.85.35,1.31-.79,2.76-.18,5.74,1.64,7.97,2.43,2.98,6.48,4.07,10.08,2.72l.2-.08c2.53-.98,4.97-2.29,7.25-3.91,1.18-.84,2.32-1.77,3.39-2.74.13-.11.27-.2.42-.26.29-.11.61-.12.92-.01.46.17.79.58.85,1.06.31,2.22,1.46,4.22,3.24,5.64,2.47,1.97,5.81,2.49,8.72,1.37h.01c1.13-.44,2.14-1.09,3.02-1.95,2-1.97,3.76-4.24,5.24-6.74.74-1.25,1.41-2.56,1.99-3.89.2-.45.63-.75,1.11-.79.49-.03.95.2,1.21.62.86,1.37,2.08,2.48,3.52,3.2,2.24,1.12,4.86,1.24,7.2.34,2.29-.89,4.12-2.71,5.03-5.01,1.03-2.62,1.72-5.41,2.05-8.29.16-1.43.24-2.9.24-4.36-.01-.49.26-.93.69-1.16s.95-.21,1.35.06c2.39,1.61,5.43,1.95,8.12.91,3.56-1.37,5.84-4.85,5.67-8.64-.12-2.8-.63-5.63-1.5-8.41-.43-1.38-.95-2.75-1.55-4.08-.2-.44-.14-.96.16-1.35.3-.38.79-.57,1.27-.48,1.58.28,3.2.12,4.69-.45,2.33-.9,4.19-2.76,5.1-5.09.89-2.3.77-4.89-.33-7.1ZM133.421,82.8c-1.03,1.03-2.53,1.28-3.82.65-1.53-.76-3.28-1.2-5.21-1.32-2.89-.18-5.17,1.18-6.72,2.56.22.43.48.82.78,1.18,1.85,2.21,4.39,5.88,5.95,10.83.73,2.32,1.15,4.68,1.25,7.01.06,1.45-.78,2.74-2.15,3.27h-.01c-1.36.52-2.83.15-3.76-.96-1.08-1.3-2.5-2.41-4.2-3.3-2.57-1.34-5.21-1.03-7.18-.4.02.48.1.95.23,1.4.79,2.77,1.62,7.16,1.03,12.32-.28,2.41-.86,4.74-1.71,6.9-.53,1.36-1.83,2.19-3.3,2.12-1.45-.08-2.65-1.02-3.05-2.41-.46-1.63-1.3-3.22-2.5-4.72-1.8-2.27-4.33-3.06-6.39-3.29-.18.45-.3.91-.36,1.37-.4,2.86-1.43,7.2-4.07,11.67-1.24,2.09-2.71,3.98-4.37,5.62-.34.33-.73.58-1.15.74-.86.34-1.83.29-2.72-.15-1.3-.66-2.01-2.01-1.81-3.44.24-1.68.12-3.47-.36-5.33-.72-2.81-2.72-4.56-4.51-5.6-.34.33-.64.7-.88,1.1-1.53,2.45-4.23,5.99-8.47,9.01-1.96,1.39-4.05,2.52-6.21,3.33-1.38.52-2.93.1-3.87-1.05-.91-1.11-1-2.61-.24-3.82.91-1.43,1.54-3.13,1.86-5.04.4-2.38-.22-4.71-1.85-6.95-.44.17-.86.38-1.25.65-2.39,1.61-6.3,3.75-11.39,4.78-2.39.48-4.78.66-7.1.51-1.45-.08-2.64-1.06-3.03-2.48-.38-1.41.15-2.84,1.35-3.64,1.4-.95,2.65-2.24,3.72-3.84,1.6-2.42,1.56-5.07,1.14-7.1-.47-.03-.95,0-1.41.08-2.84.51-7.28.87-12.35-.26-2.39-.53-4.65-1.35-6.73-2.44-1.28-.67-1.96-2.04-1.74-3.49.23-1.44,1.29-2.52,2.71-2.77,1.67-.28,3.35-.96,4.98-1.99,2.44-1.56,3.49-4,3.93-6.02-.42-.22-.87-.39-1.32-.5-2.8-.7-7.01-2.17-11.18-5.27-1.95-1.44-3.67-3.1-5.12-4.91-.91-1.14-.98-2.68-.18-3.93.79-1.22,2.21-1.79,3.6-1.44,1.64.41,3.43.48,5.34.2,2.86-.43,4.81-2.23,6.04-3.9-.3-.37-.64-.71-1.01-1-2.27-1.77-5.52-4.83-8.07-9.35-1.19-2.12-2.1-4.34-2.68-6.59-.36-1.41.2-2.84,1.43-3.64,1.22-.8,2.75-.75,3.88.14,1.33,1.05,2.94,1.84,4.8,2.36,2.32.64,4.71.27,7.1-1.11-.12-.46-.29-.9-.51-1.32-1.36-2.54-3.08-6.66-3.57-11.83-.23-2.44-.15-4.86.24-7.17.25-1.43,1.33-2.51,2.75-2.73,1.45-.24,2.82.45,3.51,1.75.79,1.5,1.94,2.88,3.43,4.11,2.23,1.84,4.88,2.09,6.94,1.88.08-.47.1-.95.07-1.42-.21-2.87-.11-7.33,1.55-12.25.77-2.31,1.82-4.46,3.1-6.4.81-1.23,2.31-1.79,3.73-1.41,1.38.37,2.33,1.52,2.42,2.94.1,1.71.6,3.46,1.46,5.21,1.29,2.59,3.61,3.89,5.58,4.54.26-.4.48-.82.64-1.26.98-2.71,2.88-6.74,6.4-10.57,1.63-1.78,3.44-3.31,5.39-4.55,1.24-.8,2.85-.71,4,.22,1.12.9,1.52,2.34,1.02,3.68-.59,1.6-.84,3.39-.76,5.32.12,2.9,1.71,5.03,3.24,6.42.41-.26.77-.56,1.1-.9,2-2.07,5.38-4.98,10.15-7.05,2.23-.96,4.53-1.63,6.83-1.97,1.44-.22,2.81.49,3.48,1.79.67,1.3.45,2.81-.56,3.85-1.17,1.21-2.13,2.74-2.84,4.53-.88,2.24-.76,4.65.36,7.17.47-.07.93-.19,1.36-.37,2.68-1.08,6.95-2.36,12.14-2.31,2.43.03,4.81.35,7.05.98,1.4.39,2.36,1.59,2.45,3.05.08,1.46-.74,2.75-2.08,3.29-1.57.63-3.06,1.63-4.43,2.98-2.07,2.03-2.59,4.63-2.6,6.7.46.13.93.2,1.4.22,2.88.1,7.3.67,12.03,2.83,2.24,1.02,4.3,2.3,6.11,3.81,1.11.92,1.49,2.37.97,3.72-.52,1.37-1.81,2.22-3.28,2.17-1.69-.06-3.46.24-5.26.92-.04.01-.07.02-.1.03-2.65,1.03-4.16,3.17-5,5.03.37.31.76.56,1.19.77,2.59,1.26,6.4,3.58,9.84,7.47,1.62,1.84,2.97,3.84,4.01,5.94.65,1.29.39,2.8-.64,3.84Z"/>
            <path d="M141.341,75.33c-1.36-2.73-3.11-5.32-5.2-7.68-.55-.63-1.12-1.23-1.71-1.82,3.39-1.61,5.82-4.82,6.43-8.56.66-4.03-.82-7.99-3.98-10.61-2.37-1.97-5.04-3.64-7.92-4.96-.76-.34-1.54-.67-2.32-.97,1.89-2.22,2.89-5.11,2.73-8.09-.27-4.93-3.65-9.13-8.4-10.45-2.92-.81-6-1.23-9.13-1.26-.83-.01-1.67.01-2.51.06.83-2.81.56-5.86-.8-8.52-2.26-4.39-7.04-6.85-11.91-6.12-2.51.37-5.02,1.04-7.47,1.98-.45.18-.92.37-1.4.58-.75.32-1.5.68-2.23,1.05-.33-2.48-1.48-4.81-3.32-6.62-3.23-3.19-8.04-4.2-12.26-2.57-.72.28-1.43.63-2.09,1.06-2.53,1.62-4.88,3.61-6.98,5.89-.55.6-1.09,1.22-1.61,1.86-.88-1.45-2.09-2.69-3.57-3.64-3.08-1.98-6.97-2.37-10.39-1.05-2.24.86-4.12,2.38-5.46,4.39-1.67,2.54-3.03,5.33-4.02,8.3-.27.78-.51,1.58-.72,2.39-3.09-2.14-7.08-2.66-10.69-1.27-3.79,1.46-6.47,4.74-7.15,8.77-.51,3.02-.62,6.15-.32,9.3.08.82.19,1.66.32,2.48-2.06-.38-4.2-.18-6.2.59-5.46,2.11-8.48,7.95-7.03,13.59.76,2.93,1.93,5.81,3.47,8.55.41.72.85,1.44,1.31,2.14-.49.12-.97.27-1.43.45-3.4,1.31-6.01,4.21-6.97,7.76-.97,3.56-.2,7.25,2.09,10.14,1.89,2.37,4.13,4.52,6.64,6.38.66.49,1.35.97,2.05,1.42-2.62,2.01-4.28,5.1-4.48,8.49-.25,4.49,2.15,8.73,6.13,10.81,2.71,1.41,5.64,2.48,8.72,3.16.81.18,1.63.34,2.47.47-1.4,2.57-1.77,5.61-.99,8.49,1.3,4.77,5.47,8.17,10.38,8.46,3.03.19,6.13-.03,9.2-.65.81-.17,1.62-.36,2.43-.58-.23,2.9.65,5.82,2.53,8.12,3.14,3.86,8.38,5.27,13.05,3.52l.22-.09c2.73-1.05,5.37-2.47,7.82-4.22.68-.48,1.34-.99,1.99-1.52.71,2,1.97,3.77,3.67,5.13,3.2,2.55,7.53,3.22,11.31,1.76h.01c1.46-.57,2.78-1.42,3.91-2.53,2.16-2.12,4.07-4.57,5.66-7.28.43-.71.83-1.45,1.21-2.2.91.97,1.99,1.77,3.18,2.36,2.9,1.45,6.3,1.61,9.33.44,2.97-1.15,5.35-3.51,6.53-6.49,1.11-2.84,1.85-5.85,2.21-8.96.1-.82.16-1.66.21-2.5,2.69,1.12,5.75,1.17,8.53.1,4.61-1.78,7.56-6.28,7.35-11.21-.13-3.02-.68-6.08-1.62-9.08-.25-.79-.52-1.58-.82-2.36,1.3-.03,2.6-.28,3.82-.76,3.03-1.16,5.44-3.57,6.61-6.59,1.16-2.98,1.01-6.35-.42-9.23ZM139.311,83.61c-.91,2.33-2.77,4.19-5.1,5.09-1.49.57-3.11.73-4.69.45-.48-.09-.97.1-1.27.48-.3.39-.36.91-.16,1.35.6,1.33,1.12,2.7,1.55,4.08.87,2.78,1.38,5.61,1.5,8.41.17,3.79-2.11,7.27-5.67,8.64-2.69,1.04-5.73.7-8.12-.91-.4-.27-.92-.29-1.35-.06s-.7.67-.69,1.16c0,1.46-.08,2.93-.24,4.36-.33,2.88-1.02,5.67-2.05,8.29-.91,2.3-2.74,4.12-5.03,5.01-2.34.9-4.96.78-7.2-.34-1.44-.72-2.66-1.83-3.52-3.2-.26-.42-.72-.65-1.21-.62-.48.04-.91.34-1.11.79-.58,1.33-1.25,2.64-1.99,3.89-1.48,2.5-3.24,4.77-5.24,6.74-.88.86-1.89,1.51-3.02,1.95h-.01c-2.91,1.12-6.25.6-8.72-1.37-1.78-1.42-2.93-3.42-3.24-5.64-.06-.48-.39-.89-.85-1.06-.31-.11-.63-.1-.92.01-.15.06-.29.15-.42.26-1.07.97-2.21,1.9-3.39,2.74-2.28,1.62-4.72,2.93-7.25,3.91l-.2.08c-3.6,1.35-7.65.26-10.08-2.72-1.82-2.23-2.43-5.21-1.64-7.97.14-.46,0-.97-.35-1.31-.35-.33-.86-.45-1.32-.3-1.38.46-2.8.83-4.21,1.12-2.85.58-5.72.78-8.52.61-3.79-.23-7-2.85-8-6.53-.76-2.79-.11-5.78,1.74-7.99.31-.38.39-.89.21-1.34-.18-.45-.6-.76-1.09-.81-1.46-.15-2.91-.38-4.31-.7-2.85-.63-5.57-1.62-8.07-2.92-3.07-1.6-4.92-4.87-4.72-8.33.18-3.22,2.07-6.08,4.94-7.47.43-.21.72-.65.74-1.13.01-.49-.24-.95-.67-1.19-1.26-.72-2.49-1.53-3.65-2.39-2.32-1.72-4.39-3.71-6.14-5.9-1.77-2.22-2.36-5.07-1.61-7.81.74-2.74,2.75-4.98,5.37-6,.91-.35,1.86-.54,2.83-.58.49-.01.93-.3,1.14-.74.21-.44.16-.96-.13-1.35-.86-1.17-1.66-2.4-2.37-3.66-1.43-2.54-2.51-5.21-3.21-7.92-1.12-4.35,1.21-8.85,5.42-10.48,2.11-.81,4.4-.79,6.45.04.46.18.97.1,1.35-.21.37-.32.54-.81.43-1.29-.31-1.42-.53-2.88-.67-4.31-.28-2.92-.18-5.82.29-8.61.53-3.1,2.59-5.63,5.51-6.76,3.34-1.28,7.1-.45,9.58,2.12.33.35.84.49,1.31.35.47-.13.82-.52.92-.99.3-1.43.68-2.85,1.14-4.21.92-2.76,2.18-5.34,3.73-7.69,1.03-1.55,2.48-2.72,4.2-3.39,2.65-1.02,5.65-.72,8.03.81,1.64,1.06,2.85,2.57,3.49,4.38.16.46.57.8,1.05.86.49.07.97-.13,1.26-.53.85-1.18,1.77-2.31,2.73-3.36,1.95-2.12,4.13-3.96,6.47-5.46.51-.33,1.06-.6,1.62-.82,3.25-1.26,6.97-.48,9.47,1.99,1.84,1.81,2.79,4.31,2.59,6.84-.03.48.2.95.62,1.21.41.26.94.27,1.36.02,1.26-.73,2.56-1.39,3.87-1.96.44-.19.88-.37,1.3-.53,2.26-.88,4.59-1.49,6.91-1.84,3.75-.56,7.44,1.34,9.18,4.72,1.32,2.58,1.31,5.64-.04,8.19-.23.43-.2.95.07,1.35.28.4.75.62,1.23.57,1.46-.16,2.93-.24,4.37-.22,2.9.03,5.75.42,8.45,1.17,3.66,1.01,6.26,4.25,6.47,8.05.16,2.89-1.1,5.68-3.36,7.46-.39.3-.57.78-.49,1.26.09.48.43.87.9,1.02,1.39.45,2.76.98,4.07,1.58,2.68,1.22,5.15,2.76,7.34,4.58,2.43,2.02,3.58,5.07,3.07,8.17s-2.64,5.73-5.56,6.85c-.35.14-.71.25-1.06.34-.47.12-.84.49-.96.96-.12.48.04.97.4,1.3,1.09.96,2.12,2,3.08,3.09,1.93,2.19,3.55,4.59,4.81,7.12,1.1,2.21,1.22,4.8.33,7.1Z"/>
          </g>
          <g>
            <path class="cls-2" d="M131.611,80.99c-.12.12-.45.37-.88.16-1.83-.9-3.91-1.43-6.18-1.57-4.26-.27-7.41,1.97-9.31,3.89-.34.35-.45.86-.29,1.32.35,1.01.87,1.93,1.54,2.73,1.71,2.03,4.04,5.4,5.47,9.95.66,2.11,1.04,4.24,1.13,6.35v.05c0,.48-.39.67-.52.72-.16.06-.56.16-.87-.21-1.3-1.56-2.98-2.88-4.99-3.93-3.74-1.95-7.49-1.23-10-.26-.03.01-.06.02-.08.03-.46.18-.77.6-.81,1.08-.09,1.07.01,2.13.3,3.13.73,2.55,1.49,6.57.94,11.31-.25,2.2-.77,4.31-1.54,6.27-.19.48-.65.5-.79.49-.17-.01-.58-.08-.71-.55-.56-1.95-1.55-3.84-2.96-5.62-2.65-3.34-6.42-4.19-9.12-4.31-.49-.02-.94.24-1.18.66-.52.94-.85,1.94-1,2.98-.36,2.62-1.31,6.61-3.73,10.72-1.13,1.9-2.46,3.61-3.96,5.09-.37.37-.8.19-.92.13-.16-.08-.5-.31-.43-.79.28-2.01.14-4.14-.42-6.33-1.06-4.14-4.16-6.44-6.58-7.65-.32-.16-.7-.18-1.03-.05-.11.04-.22.1-.31.17-.86.65-1.57,1.43-2.13,2.32-1.4,2.24-3.88,5.5-7.77,8.27-1.78,1.27-3.68,2.28-5.63,3.02-.43.16-.79-.03-.98-.27-.15-.18-.29-.48-.06-.83,1.09-1.72,1.83-3.74,2.21-5.99.56-3.33-.44-6.67-2.9-9.66-.31-.37-.81-.54-1.28-.43-1.04.24-2.01.66-2.88,1.25-2.19,1.48-5.78,3.45-10.46,4.39-2.17.44-4.33.6-6.43.47-.52-.03-.68-.47-.72-.6-.04-.16-.1-.58.3-.85,1.69-1.13,3.18-2.66,4.43-4.54,2.36-3.56,2-7.41,1.28-10.01-.13-.47-.51-.83-.99-.92-1.05-.2-2.11-.21-3.14-.03-2.61.47-6.69.8-11.35-.24-2.17-.48-4.22-1.22-6.09-2.2-.45-.24-.42-.69-.4-.83.03-.17.14-.56.61-.64,2.01-.35,4-1.14,5.92-2.36,3.6-2.29,4.84-5.95,5.24-8.62.08-.48-.13-.96-.53-1.24-.88-.62-1.84-1.06-2.86-1.31-2.57-.63-6.43-1.99-10.27-4.83-1.77-1.32-3.33-2.82-4.64-4.46-.32-.41-.1-.82-.02-.94.09-.14.35-.46.81-.35,1.97.5,4.1.58,6.34.25,4.23-.62,6.84-3.47,8.3-5.74.26-.41.27-.93.02-1.35-.56-.92-1.26-1.71-2.08-2.36-2.09-1.62-5.07-4.43-7.42-8.59-1.09-1.93-1.9-3.94-2.43-5.98-.13-.49.24-.78.35-.85.14-.09.52-.28.9.02,1.6,1.25,3.51,2.19,5.69,2.8,3.25.91,6.68.26,9.91-1.88.41-.27.63-.74.57-1.22-.14-1.07-.45-2.07-.94-2.99-1.25-2.34-2.83-6.12-3.28-10.87-.21-2.22-.14-4.41.22-6.51.08-.49.47-.6.63-.63.13-.02.58-.05.84.43.95,1.8,2.31,3.44,4.06,4.88,3.29,2.72,7.15,2.77,9.82,2.32.48-.08.87-.42,1.01-.89.31-1.02.43-2.07.36-3.12-.19-2.64-.09-6.73,1.43-11.26.7-2.09,1.64-4.04,2.81-5.8.24-.37.64-.42.93-.35.18.05.5.2.52.63.13,2.05.71,4.13,1.73,6.19,1.9,3.82,5.41,5.43,8.03,6.11.47.13.97-.03,1.28-.4.71-.81,1.25-1.72,1.6-2.7.9-2.49,2.66-6.19,5.88-9.71,1.49-1.61,3.13-3,4.89-4.13.38-.24.77-.13,1.01.06.15.12.39.39.23.8-.71,1.92-1.02,4.04-.92,6.32.18,4.27,2.73,7.17,4.84,8.85.38.3.9.37,1.34.16.98-.46,1.84-1.07,2.56-1.82,1.84-1.91,4.95-4.58,9.33-6.48,2.02-.88,4.11-1.48,6.19-1.79.52-.08.76.31.82.43.08.16.23.55-.11.9-1.42,1.45-2.56,3.26-3.39,5.37-1.24,3.13-.95,6.61.83,10.05.23.43.68.7,1.17.69,1.07-.02,2.1-.23,3.07-.62,2.45-1,6.37-2.17,11.15-2.13,2.21.03,4.36.32,6.39.88.5.14.56.6.57.74.01.17-.02.58-.47.77-1.89.75-3.66,1.94-5.28,3.52-3.05,2.99-3.49,6.83-3.33,9.52.03.49.33.92.78,1.11.99.41,2.02.64,3.06.68,2.65.09,6.72.61,11.05,2.59,1.95.89,3.73,1.99,5.32,3.28l-.19-.39,1.09-.53.15.12c.33.27.54.6.64.95.16.51.1,1.06-.14,1.53q-.01,0,0,.01l-.58.28-.51-1.03c0,.03-.01.05-.02.07-.05.13-.25.55-.79.53-2.03-.08-4.14.29-6.26,1.08-.04.01-.08.03-.12.04-3.92,1.51-5.86,4.8-6.8,7.3-.17.45-.07.97.27,1.32.73.79,1.58,1.42,2.52,1.87,2.38,1.16,5.88,3.29,9.04,6.87,1.47,1.67,2.7,3.48,3.64,5.38.22.45-.07.79-.16.89Z"/>
            <path d="M131.571,53.36l-.84.42-1.09.53.19.39c.08.06.15.12.23.18.22.18.27.38.27.56,0,.07-.02.14-.04.2l.51,1.03.58-.28q-.01-.01,0-.01l1.35-.66-1.16-2.36Z"/>
            <path d="M134.061,78.96c-1.04-2.1-2.39-4.1-4.01-5.94-3.44-3.89-7.25-6.21-9.84-7.47-.43-.21-.82-.46-1.19-.77.84-1.86,2.35-4,5-5.03.03-.01.06-.02.1-.03,1.8-.68,3.57-.98,5.26-.92,1.47.05,2.76-.8,3.28-2.17.52-1.35.14-2.8-.97-3.72-1.81-1.51-3.87-2.79-6.11-3.81-4.73-2.16-9.15-2.73-12.03-2.83-.47-.02-.94-.09-1.4-.22.01-2.07.53-4.67,2.6-6.7,1.37-1.35,2.86-2.35,4.43-2.98,1.34-.54,2.16-1.83,2.08-3.29-.09-1.46-1.05-2.66-2.45-3.05-2.24-.63-4.62-.95-7.05-.98-5.19-.05-9.46,1.23-12.14,2.31-.43.18-.89.3-1.36.37-1.12-2.52-1.24-4.93-.36-7.17.71-1.79,1.67-3.32,2.84-4.53,1.01-1.04,1.23-2.55.56-3.85-.67-1.3-2.04-2.01-3.48-1.79-2.3.34-4.6,1.01-6.83,1.97-4.77,2.07-8.15,4.98-10.15,7.05-.33.34-.69.64-1.1.9-1.53-1.39-3.12-3.52-3.24-6.42-.08-1.93.17-3.72.76-5.32.5-1.34.1-2.78-1.02-3.68-1.15-.93-2.76-1.02-4-.22-1.95,1.24-3.76,2.77-5.39,4.55-3.52,3.83-5.42,7.86-6.4,10.57-.16.44-.38.86-.64,1.26-1.97-.65-4.29-1.95-5.58-4.54-.86-1.75-1.36-3.5-1.46-5.21-.09-1.42-1.04-2.57-2.42-2.94-1.42-.38-2.92.18-3.73,1.41-1.28,1.94-2.33,4.09-3.1,6.4-1.66,4.92-1.76,9.38-1.55,12.25.03.47.01.95-.07,1.42-2.06.21-4.71-.04-6.94-1.88-1.49-1.23-2.64-2.61-3.43-4.11-.69-1.3-2.06-1.99-3.51-1.75-1.42.22-2.5,1.3-2.75,2.73-.39,2.31-.47,4.73-.24,7.17.49,5.17,2.21,9.29,3.57,11.83.22.42.39.86.51,1.32-2.39,1.38-4.78,1.75-7.1,1.11-1.86-.52-3.47-1.31-4.8-2.36-1.13-.89-2.66-.94-3.88-.14-1.23.8-1.79,2.23-1.43,3.64.58,2.25,1.49,4.47,2.68,6.59,2.55,4.52,5.8,7.58,8.07,9.35.37.29.71.63,1.01,1-1.23,1.67-3.18,3.47-6.04,3.9-1.91.28-3.7.21-5.34-.2-1.39-.35-2.81.22-3.6,1.44-.8,1.25-.73,2.79.18,3.93,1.45,1.81,3.17,3.47,5.12,4.91,4.17,3.1,8.38,4.57,11.18,5.27.45.11.9.28,1.32.5-.44,2.02-1.49,4.46-3.93,6.02-1.63,1.03-3.31,1.71-4.98,1.99-1.42.25-2.48,1.33-2.71,2.77-.22,1.45.46,2.82,1.74,3.49,2.08,1.09,4.34,1.91,6.73,2.44,5.07,1.13,9.51.77,12.35.26.46-.08.94-.11,1.41-.08.42,2.03.46,4.68-1.14,7.1-1.07,1.6-2.32,2.89-3.72,3.84-1.2.8-1.73,2.23-1.35,3.64.39,1.42,1.58,2.4,3.03,2.48,2.32.15,4.71-.03,7.1-.51,5.09-1.03,9-3.17,11.39-4.78.39-.27.81-.48,1.25-.65,1.63,2.24,2.25,4.57,1.85,6.95-.32,1.91-.95,3.61-1.86,5.04-.76,1.21-.67,2.71.24,3.82.94,1.15,2.49,1.57,3.87,1.05,2.16-.81,4.25-1.94,6.21-3.33,4.24-3.02,6.94-6.56,8.47-9.01.24-.4.54-.77.88-1.1,1.79,1.04,3.79,2.79,4.51,5.6.48,1.86.6,3.65.36,5.33-.2,1.43.51,2.78,1.81,3.44.89.44,1.86.49,2.72.15.42-.16.81-.41,1.15-.74,1.66-1.64,3.13-3.53,4.37-5.62,2.64-4.47,3.67-8.81,4.07-11.67.06-.46.18-.92.36-1.37,2.06.23,4.59,1.02,6.39,3.29,1.2,1.5,2.04,3.09,2.5,4.72.4,1.39,1.6,2.33,3.05,2.41,1.47.07,2.77-.76,3.3-2.12.85-2.16,1.43-4.49,1.71-6.9.59-5.16-.24-9.55-1.03-12.32-.13-.45-.21-.92-.23-1.4,1.97-.63,4.61-.94,7.18.4,1.7.89,3.12,2,4.2,3.3.93,1.11,2.4,1.48,3.76.96h.01c1.37-.53,2.21-1.82,2.15-3.27-.1-2.33-.52-4.69-1.25-7.01-1.56-4.95-4.1-8.62-5.95-10.83-.3-.36-.56-.75-.78-1.18,1.55-1.38,3.83-2.74,6.72-2.56,1.93.12,3.68.56,5.21,1.32,1.29.63,2.79.38,3.82-.65,1.03-1.04,1.29-2.55.64-3.84ZM131.571,53.36l1.16,2.36-1.35.66q-.01,0,0,.01l-.58.28-.51-1.03c0,.03-.01.05-.02.07-.05.13-.25.55-.79.53-2.03-.08-4.14.29-6.26,1.08-.04.01-.08.03-.12.04-3.92,1.51-5.86,4.8-6.8,7.3-.17.45-.07.97.27,1.32.73.79,1.58,1.42,2.52,1.87,2.38,1.16,5.88,3.29,9.04,6.87,1.47,1.67,2.7,3.48,3.64,5.38.22.45-.07.79-.16.89-.12.12-.45.37-.88.16-1.83-.9-3.91-1.43-6.18-1.57-4.26-.27-7.41,1.97-9.31,3.89-.34.35-.45.86-.29,1.32.35,1.01.87,1.93,1.54,2.73,1.71,2.03,4.04,5.4,5.47,9.95.66,2.11,1.04,4.24,1.13,6.35v.05c0,.48-.39.67-.52.72-.16.06-.56.16-.87-.21-1.3-1.56-2.98-2.88-4.99-3.93-3.74-1.95-7.49-1.23-10-.26-.03.01-.06.02-.08.03-.46.18-.77.6-.81,1.08-.09,1.07.01,2.13.3,3.13.73,2.55,1.49,6.57.94,11.31-.25,2.2-.77,4.31-1.54,6.27-.19.48-.65.5-.79.49-.17-.01-.58-.08-.71-.55-.56-1.95-1.55-3.84-2.96-5.62-2.65-3.34-6.42-4.19-9.12-4.31-.49-.02-.94.24-1.18.66-.52.94-.85,1.94-1,2.98-.36,2.62-1.31,6.61-3.73,10.72-1.13,1.9-2.46,3.61-3.96,5.09-.37.37-.8.19-.92.13-.16-.08-.5-.31-.43-.79.28-2.01.14-4.14-.42-6.33-1.06-4.14-4.16-6.44-6.58-7.65-.32-.16-.7-.18-1.03-.05-.11.04-.22.1-.31.17-.86.65-1.57,1.43-2.13,2.32-1.4,2.24-3.88,5.5-7.77,8.27-1.78,1.27-3.68,2.28-5.63,3.02-.43.16-.79-.03-.98-.27-.15-.18-.29-.48-.06-.83,1.09-1.72,1.83-3.74,2.21-5.99.56-3.33-.44-6.67-2.9-9.66-.31-.37-.81-.54-1.28-.43-1.04.24-2.01.66-2.88,1.25-2.19,1.48-5.78,3.45-10.46,4.39-2.17.44-4.33.6-6.43.47-.52-.03-.68-.47-.72-.6-.04-.16-.1-.58.3-.85,1.69-1.13,3.18-2.66,4.43-4.54,2.36-3.56,2-7.41,1.28-10.01-.13-.47-.51-.83-.99-.92-1.05-.2-2.11-.21-3.14-.03-2.61.47-6.69.8-11.35-.24-2.17-.48-4.22-1.22-6.09-2.2-.45-.24-.42-.69-.4-.83.03-.17.14-.56.61-.64,2.01-.35,4-1.14,5.92-2.36,3.6-2.29,4.84-5.95,5.24-8.62.08-.48-.13-.96-.53-1.24-.88-.62-1.84-1.06-2.86-1.31-2.57-.63-6.43-1.99-10.27-4.83-1.77-1.32-3.33-2.82-4.64-4.46-.32-.41-.1-.82-.02-.94.09-.14.35-.46.81-.35,1.97.5,4.1.58,6.34.25,4.23-.62,6.84-3.47,8.3-5.74.26-.41.27-.93.02-1.35-.56-.92-1.26-1.71-2.08-2.36-2.09-1.62-5.07-4.43-7.42-8.59-1.09-1.93-1.9-3.94-2.43-5.98-.13-.49.24-.78.35-.85.14-.09.52-.28.9.02,1.6,1.25,3.51,2.19,5.69,2.8,3.25.91,6.68.26,9.91-1.88.41-.27.63-.74.57-1.22-.14-1.07-.45-2.07-.94-2.99-1.25-2.34-2.83-6.12-3.28-10.87-.21-2.22-.14-4.41.22-6.51.08-.49.47-.6.63-.63.13-.02.58-.05.84.43.95,1.8,2.31,3.44,4.06,4.88,3.29,2.72,7.15,2.77,9.82,2.32.48-.08.87-.42,1.01-.89.31-1.02.43-2.07.36-3.12-.19-2.64-.09-6.73,1.43-11.26.7-2.09,1.64-4.04,2.81-5.8.24-.37.64-.42.93-.35.18.05.5.2.52.63.13,2.05.71,4.13,1.73,6.19,1.9,3.82,5.41,5.43,8.03,6.11.47.13.97-.03,1.28-.4.71-.81,1.25-1.72,1.6-2.7.9-2.49,2.66-6.19,5.88-9.71,1.49-1.61,3.13-3,4.89-4.13.38-.24.77-.13,1.01.06.15.12.39.39.23.8-.71,1.92-1.02,4.04-.92,6.32.18,4.27,2.73,7.17,4.84,8.85.38.3.9.37,1.34.16.98-.46,1.84-1.07,2.56-1.82,1.84-1.91,4.95-4.58,9.33-6.48,2.02-.88,4.11-1.48,6.19-1.79.52-.08.76.31.82.43.08.16.23.55-.11.9-1.42,1.45-2.56,3.26-3.39,5.37-1.24,3.13-.95,6.61.83,10.05.23.43.68.7,1.17.69,1.07-.02,2.1-.23,3.07-.62,2.45-1,6.37-2.17,11.15-2.13,2.21.03,4.36.32,6.39.88.5.14.56.6.57.74.01.17-.02.58-.47.77-1.89.75-3.66,1.94-5.28,3.52-3.05,2.99-3.49,6.83-3.33,9.52.03.49.33.92.78,1.11.99.41,2.02.64,3.06.68,2.65.09,6.72.61,11.05,2.59,1.95.89,3.73,1.99,5.32,3.28l-.19-.39,1.09-.53.84-.42Z"/>
          </g>
          <circle cx="74.105" cy="49.72" r="3.88"/>
          <path d="M80.502,94.871c-12.798,4.937-27.717.122-35.029-12.027-.374-.622-.174-1.43.448-1.805.621-.374,1.43-.174,1.805.448,6.644,11.039,20.202,15.414,31.831,10.929,1.396-.538,2.763-1.204,4.088-2.001,5.99-3.605,10.217-9.326,11.903-16.11,1.686-6.784.63-13.819-2.975-19.808-.374-.622-.174-1.43.448-1.805.621-.374,1.43-.174,1.805.448,3.967,6.591,5.13,14.333,3.274,21.799-1.856,7.466-6.508,13.762-13.099,17.729-1.457.877-2.963,1.61-4.498,2.202Z"/>
          <circle cx="52.247" cy="62.875" r="3.88"/>
        </g>
      </g>
    </g>
  </g>
</svg>