<svg width="200" height="76" viewBox="0 0 200 76" fill="none" xmlns="http://www.w3.org/2000/svg">
<g clip-path="url(#clip0_108_497)">
<path d="M35.0956 75.0347C26.7356 75.0347 19.5176 68.5888 19.1976 60.2348C19.1616 59.2928 19.2076 58.3708 19.3336 57.4728H19.2676C11.5916 57.4728 4.75361 52.0387 3.60561 44.4487C2.15761 34.8907 9.55561 26.6348 18.8436 26.6348H28.7736V25.8428C28.7736 18.7368 34.5336 12.9767 41.6396 12.9767H51.1876C51.6296 6.28075 57.2196 0.96875 64.0256 0.96875H105.606C111.562 0.96875 116.774 4.41275 119.334 9.41275H132.976C140.182 9.41275 146.07 15.1668 146.288 22.3208H155.93C166.092 22.3208 174.36 30.5888 174.364 40.7508C174.364 40.9408 174.516 41.0968 174.704 41.0968H183.71C190.818 41.0968 196.578 46.8587 196.578 53.9647V56.5148C196.578 59.9208 195.31 71.0347 179.008 71.0347L106.752 70.7327C102.87 70.7167 99.2576 68.7387 97.1476 65.4787C96.3516 64.2467 95.6456 63.0308 95.3016 62.1268H89.0456C88.8276 69.2808 82.9396 75.0347 75.7336 75.0347H35.0956Z" fill="#FFF6EE" stroke="black" stroke-width="2.8" stroke-linecap="round" stroke-linejoin="round"/>
<path d="M116.26 42.0521H126.466C129.782 42.0521 132.47 39.3641 132.47 36.0481V33.4981C132.47 28.7721 128.64 24.9421 123.914 24.9421H122.714C117.988 24.9421 114.158 21.1121 114.158 16.3861C114.158 11.6601 110.328 7.83008 105.602 7.83008H64.0241C60.7081 7.83008 58.0201 10.5181 58.0201 13.8341C58.0201 17.1501 55.3321 19.8381 52.0161 19.8381H41.6401C38.3241 19.8381 35.6361 22.5261 35.6361 25.8421V27.4921C35.6361 30.8081 32.9481 33.4961 29.6321 33.4961H18.8441C14.1181 33.4961 10.2881 37.3261 10.2881 42.0521C10.2881 46.7781 14.1181 50.6081 18.8441 50.6081H54.1181V51.0581H34.6041C29.8781 51.0581 26.0481 54.8881 26.0481 59.6141C26.0481 64.3401 29.8781 68.1701 34.6041 68.1701H75.7321C79.2961 68.1701 82.1861 65.2801 82.1861 61.7161C82.1861 58.1521 85.0761 55.2621 88.6401 55.2621H104.25C107.566 55.2621 110.254 52.5741 110.254 49.2581V48.0581C110.254 44.7421 112.942 42.0541 116.258 42.0541L116.26 42.0521Z" fill="#CACACA" stroke="black" stroke-width="2.8" stroke-linecap="round" stroke-linejoin="round"/>
<path d="M79.2322 50.9434H94.8422C98.4062 50.9434 101.296 53.8334 101.296 57.3974C101.296 60.9614 104.186 63.8514 107.75 63.8514V63.8694L179.006 64.1674C181.602 64.1674 189.712 64.1674 189.712 56.5114V53.9614C189.712 50.6454 187.024 47.9574 183.708 47.9574H174.702C170.722 47.9574 167.498 44.7314 167.498 40.7534C167.498 34.3894 162.292 29.1834 155.928 29.1834H145.884C142.32 29.1834 139.43 26.2934 139.43 22.7294C139.43 19.1654 136.54 16.2754 132.976 16.2754H91.8482C87.1222 16.2754 83.2922 20.1054 83.2922 24.8314C83.2922 29.5574 87.1222 33.3874 91.8482 33.3874H111.362V33.8374H76.0882C71.3622 33.8374 67.5322 37.6674 67.5322 42.3934C67.5322 47.1194 71.3622 50.9494 76.0882 50.9494H86.0502" fill="#CACACA"/>
<path d="M79.2322 50.9434H94.8422C98.4062 50.9434 101.296 53.8334 101.296 57.3974C101.296 60.9614 104.186 63.8514 107.75 63.8514V63.8694L179.006 64.1674C181.602 64.1674 189.712 64.1674 189.712 56.5114V53.9614C189.712 50.6454 187.024 47.9574 183.708 47.9574H174.702C170.722 47.9574 167.498 44.7314 167.498 40.7534C167.498 34.3894 162.292 29.1834 155.928 29.1834H145.884C142.32 29.1834 139.43 26.2934 139.43 22.7294C139.43 19.1654 136.54 16.2754 132.976 16.2754H91.8482C87.1222 16.2754 83.2922 20.1054 83.2922 24.8314C83.2922 29.5574 87.1222 33.3874 91.8482 33.3874H111.362V33.8374H76.0882C71.3622 33.8374 67.5322 37.6674 67.5322 42.3934C67.5322 47.1194 71.3622 50.9494 76.0882 50.9494H86.0502" stroke="black" stroke-width="2.8" stroke-linecap="round" stroke-linejoin="round"/>
</g>
<defs>
<clipPath id="clip0_108_497">
<rect width="200" height="76" fill="white"/>
</clipPath>
</defs>
</svg>
