<?xml version="1.0" encoding="UTF-8"?>
<svg xmlns="http://www.w3.org/2000/svg" version="1.1" viewBox="0 0 123.878 127.675">
  <defs>
    <style>
      .cls-1 {
        fill: #79c2f2;
      }

      .cls-2 {
        fill: #fff6ee;
      }
    </style>
  </defs>
  <!-- Generator: Adobe Illustrator 28.7.2, SVG Export Plug-In . SVG Version: 1.2.0 Build 154)  -->
  <g>
    <g id="Layer_2">
      <g>
        <g>
          <path class="cls-2" d="M97.175,24.487c-.5.19-.8.71-.7,1.24.09.53.56.92,1.1.91,9.85-.07,13.83,1.8,14.28,3.59.72,2.9-7.16,10.09-21.15,16.67-.48.23-.74.77-.6,1.29.15.52.64.87,1.18.82,6.05-.56,11.26-.64,15.08-.23,4.23.45,5.36,1.37,5.44,1.69.27,1.09-1.71,3.46-8.18,6.54-6.64,3.16-16.59,6.43-28.78,9.46-.6.15-.96.75-.81,1.35.15.59.75.95,1.34.81,9.52-2.36,17.37-3.79,22.7-4.14,5.28-.35,6.56.45,6.83.7-.26.38-1.57,1.76-7.88,4.35-5.03,2.06-11.98,4.36-19.57,6.47-.58.16-.93.76-.78,1.34.14.58.73.94,1.31.81,6.96-1.54,13.53-2.62,18.5-3.03,5.9-.49,7.66.1,8.1.34-.35.52-2.21,2.47-11.63,5.93-.52.19-.82.72-.71,1.26.1.53.58.91,1.13.89,5.87-.2,8.29.89,8.48,1.67.15.61-.88,2.46-5.91,5.04-.42.21-.65.66-.6,1.12.05.46.39.83.84.95,1.75.43,2.86,1.14,3.07,1.95.4,1.64-2.46,4.02-5.49,5.65-.48.25-.7.82-.52,1.34.18.51.7.82,1.24.73,5.21-.92,8.17-.49,8.76-.02-.12.22-.62.94-2.69,2.04-.48.25-.7.8-.54,1.31.16.51.66.83,1.19.77,4.11-.49,5.85.26,5.99.56.02.29-.87,1.51-3.93,2.87-.5.22-.77.78-.62,1.31.16.54.68.87,1.22.8,3.06-.42,4.63.24,4.71.56.03.16-.35.91-1.88,1.79-.44.25-.65.77-.51,1.26.14.49.59.83,1.1.81.8-.03,1.29.07,1.54.17-.35.38-1.39,1.09-3.13,1.52-1.73.43-2.98.3-3.48.12.06-.05.12-.12.22-.2.37-.33.49-.86.28-1.31-.21-.45-.69-.71-1.18-.63-3.27.52-4.95-.17-5.03-.52-.05-.17.36-.95,1.97-1.85.48-.27.69-.85.49-1.36-.19-.51-.73-.81-1.27-.69-5.5,1.2-8.51.39-8.72-.1-.01-.12.24-.73,1.61-1.63.45-.29.62-.85.42-1.34-.2-.49-.72-.78-1.24-.67-5.73,1.11-8.97.68-9.6.16.1-.18.48-.74,1.91-1.6.46-.27.66-.83.47-1.34-.18-.5-.7-.79-1.23-.7-8.22,1.48-13.85.22-14.35-1.78-.16-.66.24-1.56,1.14-2.52.31-.34.39-.82.19-1.24-.2-.41-.62-.66-1.08-.63-7.82.53-9.93-.96-10.08-1.58-.14-.54.71-2.17,4.88-4.48.47-.27.69-.83.5-1.35-.18-.51-.7-.81-1.24-.72-5.22.94-9.81,1.5-13.25,1.63-3.88.14-5.16-.31-5.53-.51.27-.39,1.45-1.65,6.38-3.83,4.24-1.86,9.92-3.83,16.43-5.7.58-.17.92-.76.77-1.35-.15-.58-.73-.93-1.32-.8-8.33,1.91-16.21,3.33-22.18,3.98-7.7.85-9.59.16-9.96-.05.08-.46,1.13-1.8,5.41-3.75,4.78-2.18,12.11-4.5,21.78-6.91.59-.15.95-.75.81-1.34-.15-.6-.75-.96-1.35-.81-12.08,2.99-22.21,4.71-29.29,4.97-8.8.32-9.74-1.65-9.84-2.05-.08-.34.55-1.76,4.39-4.29,3.45-2.26,8.44-4.75,14.44-7.19.51-.2.79-.74.66-1.27-.12-.54-.61-.9-1.15-.86-10.7.73-17.03-1.56-18.29-6.63-.48-1.94,2.58-5.77,12.62-10.71.48-.24.72-.79.57-1.31-.15-.52-.66-.85-1.2-.79-6.85.82-12.58.98-16.58.47-3.45-.45-5.61-1.41-5.92-2.65-.07-.3-.09-1.47,2.84-3.72,2.33-1.79,5.83-3.75,10.43-5.84,9.54-4.33,22.6-8.66,36.78-12.19,14.17-3.53,27.74-5.82,38.2-6.46,12.16-.75,15.9,1.05,16.2,2.23.9,3.64-5.12,8.05-16.95,12.43Z"/>
          <path class="cls-2" d="M119.035,28.437c-.41-1.66-1.23-3.12-2.43-4.33-.22-.22-.33-.51-.32-.82.01-.3.14-.59.37-.79,4.24-3.77,5.76-7.77,4.66-12.23-2.01-8.07-13.18-8.49-23.84-7.84-10.9.67-24.94,3.04-39.54,6.67-14.6,3.63-28.12,8.12-38.06,12.64C10.155,26.147.485,31.757,2.495,39.827c1.03,4.14,4.31,6.72,10.05,7.89.31.07.59.27.75.55.15.29.18.63.06.93-.7,1.85-.82,3.74-.35,5.62.8,3.25,2.52,5.9,5.1,7.88.27.2.43.53.43.87s-.15.66-.42.88c-4.45,3.51-6.09,6.88-5.16,10.61,1.1,4.42,4.67,6.81,11.23,7.52.53.05.95.48.99,1.01.04.47.12.97.25,1.46.9,3.62,3.64,5.5,8.63,5.93.5.04.91.42,1,.92.04.27.1.54.17.82,1.18,4.76,5.4,6.58,14.09,6.11.47-.03.9.24,1.08.67,1.32,3.06,4.4,4.96,9.14,5.66.36.06.68.29.84.63,1.85,3.96,6.42,6.16,13.22,6.35.32.01.62.16.82.41,1.6,1.92,4.35,2.97,8.18,3.11.3.01.59.15.79.39,1.46,1.68,3.63,2.74,6.44,3.13.29.04.56.2.74.44.93,1.26,2.75,2.89,6.08,3.48.2.04.38.12.53.25,2.41,2.08,6.07,2.64,10.31,1.59,5.11-1.27,10.01-5.11,8.66-10.54-.06-.22-.12-.43-.19-.64-.06-.17-.08-.34-.06-.51.17-1.29-.01-2.33-.14-2.83-.2-.83-.54-1.61-1.01-2.33-.14-.21-.2-.46-.18-.71.1-1.06-.05-1.94-.18-2.5-.29-1.15-1.14-3.29-3.62-4.75-.23-.13-.41-.35-.49-.6-.46-1.37-1.19-2.45-2.24-3.3-.77-.61-1.26-1.55-1.39-2.65l-.01-.02c-.12-1.01.16-2.05.77-2.86,1.75-2.31,2.28-4.69,1.64-7.27-.07-.26-.14-.52-.23-.77-.14-.42-.02-.89.3-1.19,2.57-2.34,3.47-4.89,2.74-7.81-.25-1.01-.62-1.85-1.13-2.58-.29-.4-.27-.94.03-1.33,1.52-1.9,1.98-3.95,1.4-6.27-.11-.46-.26-.89-.43-1.29-.22-.5-.04-1.08.41-1.37,5.79-3.79,7.97-7.65,6.86-12.14-.66-2.63-2.29-4.43-5.13-5.67-.35-.15-.59-.46-.65-.83-.07-.36.05-.74.32-.99,4.65-4.44,6.5-8.73,5.5-12.75ZM106.595,46.567c4.51.48,6.92,1.58,7.36,3.36.69,2.78-2.38,5.75-9.38,9.09-2.36,1.12-5.11,2.25-8.23,3.38.55-.05,1.08-.09,1.59-.13,5.76-.37,8.68.41,9.19,2.46.32,1.31-.41,3.11-8.31,6.46-1.5.64-3.19,1.3-5.03,1.98,1.2-.14,2.34-.25,3.4-.32,7.95-.55,9.33.81,9.64,2.06.44,1.78-1.7,3.28-3.62,4.38-1.22.71-2.77,1.47-4.6,2.26,2.7.37,4.94,1.27,5.41,3.13.49,1.97-1.17,4.11-4.92,6.37,1.51.83,2.1,1.86,2.31,2.69.44,1.77-.49,3.67-2.66,5.52,3.05-.15,6.19.2,6.69,2.18.19.77-.05,1.53-.73,2.31,2.11.12,4.22.68,4.64,2.38.27,1.09-.29,2.23-1.61,3.33,1.64.32,2.71,1.08,2.99,2.21.22.87-.07,1.76-.82,2.61.64.31,1.05.77,1.2,1.37.49,1.97-2.18,3.59-4.87,4.26-2.7.67-5.82.49-6.31-1.48-.02-.09-.04-.19-.05-.3-3.02.12-5.12-.75-5.53-2.39-.1-.4-.13-.99.2-1.69-1.29.12-2.49.14-3.53.04-3.05-.27-3.97-1.43-4.2-2.35-.1-.41-.1-.91.14-1.49-3.58.42-8.36.5-8.98-1.98-.12-.49-.05-1,.2-1.5-6.46.63-12.46-.31-13.36-3.93-.16-.64-.18-1.52.3-2.6-7.58.18-9.72-1.68-10.14-3.36-.32-1.3.3-2.67,1.84-4.11-3.69.53-6.92.84-9.48.89-4.5.09-6.68-.59-7.08-2.19-.45-1.8,1.69-3.67,6.94-6.07.61-.27,1.25-.55,1.92-.84-2.68.43-5.16.75-7.36.97-9.35.92-10.96-.36-11.3-1.73-.52-2.07,1.6-4.11,6.65-6.41.48-.22.99-.44,1.52-.66-10.14,1.39-19.55,1.43-20.64-2.92-.46-1.85,1.28-4.03,5.32-6.68,2.51-1.65,5.78-3.4,9.63-5.16-3.74-.15-6.83-.79-9.21-1.91-3.06-1.44-4.98-3.62-5.69-6.5-.56-2.23.71-5.77,8.86-10.59-4.63.34-8.51.32-11.58-.08-4.61-.6-7.23-2.05-7.79-4.31-.45-1.82.74-3.79,3.64-6.02,2.46-1.89,6.11-3.94,10.86-6.1,9.66-4.39,22.86-8.77,37.16-12.32,14.3-3.56,28.01-5.88,38.61-6.53,5.2-.32,9.39-.22,12.45.3,3.61.61,5.58,1.8,6.03,3.62.62,2.49-.57,5.01-3.53,7.47-2.23,1.85-5.53,3.73-9.84,5.6,2.19.17,4.08.48,5.66.92,3.14.87,4.97,2.27,5.44,4.17,1.15,4.64-7.29,11.32-17.37,16.72,3.86-.18,7.24-.13,9.96.16Z"/>
          <path d="M121.195,27.897c-.42-1.68-1.17-3.19-2.25-4.5,4.23-4.12,5.75-8.71,4.52-13.66-1.1-4.41-4.45-7.35-9.96-8.73-5.07-1.27-11.3-1.09-16.17-.79-11.03.68-25.21,3.06-39.94,6.73-14.72,3.66-28.37,8.2-38.44,12.77-4.43,2.01-10.03,4.78-13.91,8.27C.825,31.787-.755,35.957.335,40.367c1.16,4.66,4.71,7.77,10.55,9.25-.5,1.89-.52,3.81-.04,5.73.82,3.29,2.45,6.05,4.85,8.22-4.36,3.8-5.96,7.74-4.9,12.02,1.29,5.17,5.31,8.14,12.28,9.09.05.3.12.6.19.91,1.08,4.32,4.36,6.85,9.77,7.51.01.05.02.11.03.16,1.82,7.31,9.17,8.1,15.63,7.82,1.71,3.27,5.05,5.35,9.94,6.19,2.3,4.27,7.37,6.77,14.41,7.07,1.96,2.12,4.98,3.3,8.99,3.52,1.72,1.8,4.08,2.96,7.03,3.45,1.21,1.48,3.33,3.22,6.9,3.92,2.96,2.4,7.23,3.06,12.05,1.86,8.78-2.18,11.49-8.39,10.28-13.23-.05-.19-.1-.39-.17-.59.17-1.53-.06-2.77-.21-3.39-.24-.95-.61-1.85-1.11-2.68.06-1.2-.11-2.2-.27-2.86-.36-1.43-1.38-4.05-4.29-5.91-.6-1.58-1.55-2.9-2.82-3.93-.42-.33-.54-.89-.58-1.19v-.03c-.06-.43.06-.89.33-1.24,2.15-2.84,2.83-5.91,2.02-9.15-.02-.09-.04-.18-.07-.27,2.79-2.78,3.76-5.98,2.89-9.5-.24-.96-.59-1.85-1.04-2.63,1.56-2.28,2.01-4.82,1.33-7.55-.06-.26-.13-.51-.22-.76,6.06-4.19,8.37-8.78,7.06-14.04-.7-2.82-2.33-4.95-4.97-6.45,4.45-4.66,6.14-9.29,5.02-13.79ZM112.135,60.817c-.45.29-.63.87-.41,1.37.17.4.32.83.43,1.29.58,2.32.12,4.37-1.4,6.27-.3.39-.32.93-.03,1.33.51.73.88,1.57,1.13,2.58.73,2.92-.17,5.47-2.74,7.81-.32.3-.44.77-.3,1.19.09.25.16.51.23.77.64,2.58.11,4.96-1.64,7.27-.61.81-.89,1.85-.77,2.86l.01.02c.13,1.1.62,2.04,1.39,2.65,1.05.85,1.78,1.93,2.24,3.3.08.25.26.47.49.6,2.48,1.46,3.33,3.6,3.62,4.75.13.56.28,1.44.18,2.5-.02.25.04.5.18.71.47.72.81,1.5,1.01,2.33.13.5.31,1.54.14,2.83-.02.17,0,.34.06.51.07.21.13.42.19.64,1.35,5.43-3.55,9.27-8.66,10.54-4.24,1.05-7.9.49-10.31-1.59-.15-.13-.33-.21-.53-.25-3.33-.59-5.15-2.22-6.08-3.48-.18-.24-.45-.4-.74-.44-2.81-.39-4.98-1.45-6.44-3.13-.2-.24-.49-.38-.79-.39-3.83-.14-6.58-1.19-8.18-3.11-.2-.25-.5-.4-.82-.41-6.8-.19-11.37-2.39-13.22-6.35-.16-.34-.48-.57-.84-.63-4.74-.7-7.82-2.6-9.14-5.66-.18-.43-.61-.7-1.08-.67-8.69.47-12.91-1.35-14.09-6.11-.07-.28-.13-.55-.17-.82-.09-.5-.5-.88-1-.92-4.99-.43-7.73-2.31-8.63-5.93-.13-.49-.21-.99-.25-1.46-.04-.53-.46-.96-.99-1.01-6.56-.71-10.13-3.1-11.23-7.52-.93-3.73.71-7.1,5.16-10.61.27-.22.42-.54.42-.88s-.16-.67-.43-.87c-2.58-1.98-4.3-4.63-5.1-7.88-.47-1.88-.35-3.77.35-5.62.12-.3.09-.64-.06-.93-.16-.28-.44-.48-.75-.55-5.74-1.17-9.02-3.75-10.05-7.89-2.01-8.07,7.66-13.68,17.38-18.09,9.94-4.52,23.46-9.01,38.06-12.64,14.6-3.63,28.64-6,39.54-6.67,10.66-.65,21.83-.23,23.84,7.84,1.1,4.46-.42,8.46-4.66,12.23-.23.2-.36.49-.37.79-.01.31.1.6.32.82,1.2,1.21,2.02,2.67,2.43,4.33,1,4.02-.85,8.31-5.5,12.75-.27.25-.39.63-.32.99.06.37.3.68.65.83,2.84,1.24,4.47,3.04,5.13,5.67,1.11,4.49-1.07,8.35-6.86,12.14Z"/>
        </g>
        <g>
          <path class="cls-1" d="M96.475,25.727c.09.53.56.92,1.1.91,9.85-.07,13.83,1.8,14.28,3.59.72,2.9-7.16,10.09-21.15,16.67-.48.23-.74.77-.6,1.29.15.52.64.87,1.18.82,6.05-.56,11.26-.64,15.08-.23,4.23.45,5.36,1.37,5.44,1.69.27,1.09-1.71,3.46-8.18,6.54-6.64,3.16-16.59,6.43-28.78,9.46-.6.15-.96.75-.81,1.35.15.59.75.95,1.34.81,9.52-2.36,17.37-3.79,22.7-4.14,5.28-.35,6.56.45,6.83.7-.26.38-1.57,1.76-7.88,4.35-5.03,2.06-11.98,4.36-19.57,6.47-.58.16-.93.76-.78,1.34.14.58.73.94,1.31.81,6.96-1.54,13.53-2.62,18.5-3.03,5.9-.49,7.66.1,8.1.34-.35.52-2.21,2.47-11.63,5.93-.52.19-.82.72-.71,1.26.1.53.58.91,1.13.89,5.87-.2,8.29.89,8.48,1.67.15.61-.88,2.46-5.91,5.04-.42.21-.65.66-.6,1.12.05.46.39.83.84.95,1.75.43,2.86,1.14,3.07,1.95.4,1.64-2.46,4.02-5.49,5.65-.48.25-.7.82-.52,1.34.18.51.7.82,1.24.73,5.21-.92,8.17-.49,8.76-.02-.12.22-.62.94-2.69,2.04-.48.25-.7.8-.54,1.31.16.51.66.83,1.19.77,4.11-.49,5.85.26,5.99.56.02.29-.87,1.51-3.93,2.87-.5.22-.77.78-.62,1.31.16.54.68.87,1.22.8,3.06-.42,4.63.24,4.71.56.03.16-.35.91-1.88,1.79-.44.25-.65.77-.51,1.26.14.49.59.83,1.1.81.8-.03,1.29.07,1.54.17-.35.38-1.39,1.09-3.13,1.52-1.73.43-2.98.3-3.48.12.06-.05.12-.12.22-.2.37-.33.49-.86.28-1.31-.21-.45-.69-.71-1.18-.63-3.27.52-4.95-.17-5.03-.52-.05-.17.36-.95,1.97-1.85.48-.27.69-.85.49-1.36-.19-.51-.73-.81-1.27-.69-5.5,1.2-8.51.39-8.72-.1-.01-.12.24-.73,1.61-1.63.45-.29.62-.85.42-1.34-.2-.49-.72-.78-1.24-.67-5.73,1.11-8.97.68-9.6.16.1-.18.48-.74,1.91-1.6.46-.27.66-.83.47-1.34-.18-.5-.7-.79-1.23-.7-8.22,1.48-13.85.22-14.35-1.78-.16-.66.24-1.56,1.14-2.52.31-.34.39-.82.19-1.24-.2-.41-.62-.66-1.08-.63-7.82.53-9.93-.96-10.08-1.58-.14-.54.71-2.17,4.88-4.48.47-.27.69-.83.5-1.35-.18-.51-.7-.81-1.24-.72-5.22.94-9.81,1.5-13.25,1.63-3.88.14-5.16-.31-5.53-.51.27-.39,1.45-1.65,6.38-3.83,4.24-1.86,9.92-3.83,16.43-5.7.58-.17.92-.76.77-1.35-.15-.58-.73-.93-1.32-.8-8.33,1.91-16.21,3.33-22.18,3.98-7.7.85-9.59.16-9.96-.05.08-.46,1.13-1.8,5.41-3.75,4.78-2.18,12.11-4.5,21.78-6.91.59-.15.95-.75.81-1.34-.15-.6-.75-.96-1.35-.81-12.08,2.99-22.21,4.71-29.29,4.97-8.8.32-9.74-1.65-9.84-2.05-.08-.34.55-1.76,4.39-4.29,3.45-2.26,8.44-4.75,14.44-7.19.51-.2.79-.74.66-1.27-.12-.54-.61-.9-1.15-.86-10.7.73-17.03-1.56-18.29-6.63-.48-1.94,2.58-5.77,12.62-10.71.48-.24.72-.79.57-1.31-.15-.52-.66-.85-1.2-.79-6.85.82-12.58.98-16.58.47-3.45-.45-5.61-1.41-5.92-2.65-.07-.3-.09-1.47,2.84-3.72,2.33-1.79,5.83-3.75,10.43-5.84,9.54-4.33,22.6-8.66,36.78-12.19,14.17-3.53,27.74-5.82,38.2-6.46,12.16-.75,15.9,1.05,16.2,2.23.9,3.64-5.12,8.05-16.95,12.43-.5.19-.8.71-.7,1.24Z"/>
          <path d="M114.005,29.687c-.47-1.9-2.3-3.3-5.44-4.17-1.58-.44-3.47-.75-5.66-.92,4.31-1.87,7.61-3.75,9.84-5.6,2.96-2.46,4.15-4.98,3.53-7.47-.45-1.82-2.42-3.01-6.03-3.62-3.06-.52-7.25-.62-12.45-.3-10.6.65-24.31,2.97-38.61,6.53-14.3,3.55-27.5,7.93-37.16,12.32-4.75,2.16-8.4,4.21-10.86,6.1-2.9,2.23-4.09,4.2-3.64,6.02.56,2.26,3.18,3.71,7.79,4.31,3.07.4,6.95.42,11.58.08-8.15,4.82-9.42,8.36-8.86,10.59.71,2.88,2.63,5.06,5.69,6.5,2.38,1.12,5.47,1.76,9.21,1.91-3.85,1.76-7.12,3.51-9.63,5.16-4.04,2.65-5.78,4.83-5.32,6.68,1.09,4.35,10.5,4.31,20.64,2.92-.53.22-1.04.44-1.52.66-5.05,2.3-7.17,4.34-6.65,6.41.34,1.37,1.95,2.65,11.3,1.73,2.2-.22,4.68-.54,7.36-.97-.67.29-1.31.57-1.92.84-5.25,2.4-7.39,4.27-6.94,6.07.4,1.6,2.58,2.28,7.08,2.19,2.56-.05,5.79-.36,9.48-.89-1.54,1.44-2.16,2.81-1.84,4.11.42,1.68,2.56,3.54,10.14,3.36-.48,1.08-.46,1.96-.3,2.6.9,3.62,6.9,4.56,13.36,3.93-.25.5-.32,1.01-.2,1.5.62,2.48,5.4,2.4,8.98,1.98-.24.58-.24,1.08-.14,1.49.23.92,1.15,2.08,4.2,2.35,1.04.1,2.24.08,3.53-.04-.33.7-.3,1.29-.2,1.69.41,1.64,2.51,2.51,5.53,2.39.01.11.03.21.05.3.49,1.97,3.61,2.15,6.31,1.48,2.69-.67,5.36-2.29,4.87-4.26-.15-.6-.56-1.06-1.2-1.37.75-.85,1.04-1.74.82-2.61-.28-1.13-1.35-1.89-2.99-2.21,1.32-1.1,1.88-2.24,1.61-3.33-.42-1.7-2.53-2.26-4.64-2.38.68-.78.92-1.54.73-2.31-.5-1.98-3.64-2.33-6.69-2.18,2.17-1.85,3.1-3.75,2.66-5.52-.21-.83-.8-1.86-2.31-2.69,3.75-2.26,5.41-4.4,4.92-6.37-.47-1.86-2.71-2.76-5.41-3.13,1.83-.79,3.38-1.55,4.6-2.26,1.92-1.1,4.06-2.6,3.62-4.38-.31-1.25-1.69-2.61-9.64-2.06-1.06.07-2.2.18-3.4.32,1.84-.68,3.53-1.34,5.03-1.98,7.9-3.35,8.63-5.15,8.31-6.46-.51-2.05-3.43-2.83-9.19-2.46-.51.04-1.04.08-1.59.13,3.12-1.13,5.87-2.26,8.23-3.38,7-3.34,10.07-6.31,9.38-9.09-.44-1.78-2.85-2.88-7.36-3.36-2.72-.29-6.1-.34-9.96-.16,10.08-5.4,18.52-12.08,17.37-16.72ZM90.705,46.897c-.48.23-.74.77-.6,1.29.15.52.64.87,1.18.82,6.05-.56,11.26-.64,15.08-.23,4.23.45,5.36,1.37,5.44,1.69.27,1.09-1.71,3.46-8.18,6.54-6.64,3.16-16.59,6.43-28.78,9.46-.6.15-.96.75-.81,1.35.15.59.75.95,1.34.81,9.52-2.36,17.37-3.79,22.7-4.14,5.28-.35,6.56.45,6.83.7-.26.38-1.57,1.76-7.88,4.35-5.03,2.06-11.98,4.36-19.57,6.47-.58.16-.93.76-.78,1.34.14.58.73.94,1.31.81,6.96-1.54,13.53-2.62,18.5-3.03,5.9-.49,7.66.1,8.1.34-.35.52-2.21,2.47-11.63,5.93-.52.19-.82.72-.71,1.26.1.53.58.91,1.13.89,5.87-.2,8.29.89,8.48,1.67.15.61-.88,2.46-5.91,5.04-.42.21-.65.66-.6,1.12.05.46.39.83.84.95,1.75.43,2.86,1.14,3.07,1.95.4,1.64-2.46,4.02-5.49,5.65-.48.25-.7.82-.52,1.34.18.51.7.82,1.24.73,5.21-.92,8.17-.49,8.76-.02-.12.22-.62.94-2.69,2.04-.48.25-.7.8-.54,1.31.16.51.66.83,1.19.77,4.11-.49,5.85.26,5.99.56.02.29-.87,1.51-3.93,2.87-.5.22-.77.78-.62,1.31.16.54.68.87,1.22.8,3.06-.42,4.63.24,4.71.56.03.16-.35.91-1.88,1.79-.44.25-.65.77-.51,1.26.14.49.59.83,1.1.81.8-.03,1.29.07,1.54.17-.35.38-1.39,1.09-3.13,1.52-1.73.43-2.98.3-3.48.12.06-.05.12-.12.22-.2.37-.33.49-.86.28-1.31-.21-.45-.69-.71-1.18-.63-3.27.52-4.95-.17-5.03-.52-.05-.17.36-.95,1.97-1.85.48-.27.69-.85.49-1.36-.19-.51-.73-.81-1.27-.69-5.5,1.2-8.51.39-8.72-.1-.01-.12.24-.73,1.61-1.63.45-.29.62-.85.42-1.34-.2-.49-.72-.78-1.24-.67-5.73,1.11-8.97.68-9.6.16.1-.18.48-.74,1.91-1.6.46-.27.66-.83.47-1.34-.18-.5-.7-.79-1.23-.7-8.22,1.48-13.85.22-14.35-1.78-.16-.66.24-1.56,1.14-2.52.31-.34.39-.82.19-1.24-.2-.41-.62-.66-1.08-.63-7.82.53-9.93-.96-10.08-1.58-.14-.54.71-2.17,4.88-4.48.47-.27.69-.83.5-1.35-.18-.51-.7-.81-1.24-.72-5.22.94-9.81,1.5-13.25,1.63-3.88.14-5.16-.31-5.53-.51.27-.39,1.45-1.65,6.38-3.83,4.24-1.86,9.92-3.83,16.43-5.7.58-.17.92-.76.77-1.35-.15-.58-.73-.93-1.32-.8-8.33,1.91-16.21,3.33-22.18,3.98-7.7.85-9.59.16-9.96-.05.08-.46,1.13-1.8,5.41-3.75,4.78-2.18,12.11-4.5,21.78-6.91.59-.15.95-.75.81-1.34-.15-.6-.75-.96-1.35-.81-12.08,2.99-22.21,4.71-29.29,4.97-8.8.32-9.74-1.65-9.84-2.05-.08-.34.55-1.76,4.39-4.29,3.45-2.26,8.44-4.75,14.44-7.19.51-.2.79-.74.66-1.27-.12-.54-.61-.9-1.15-.86-10.7.73-17.03-1.56-18.29-6.63-.48-1.94,2.58-5.77,12.62-10.71.48-.24.72-.79.57-1.31-.15-.52-.66-.85-1.2-.79-6.85.82-12.58.98-16.58.47-3.45-.45-5.61-1.41-5.92-2.65-.07-.3-.09-1.47,2.84-3.72,2.33-1.79,5.83-3.75,10.43-5.84,9.54-4.33,22.6-8.66,36.78-12.19,14.17-3.53,27.74-5.82,38.2-6.46,12.16-.75,15.9,1.05,16.2,2.23.9,3.64-5.12,8.05-16.95,12.43-.5.19-.8.71-.7,1.24.09.53.56.92,1.1.91,9.85-.07,13.83,1.8,14.28,3.59.72,2.9-7.16,10.09-21.15,16.67Z"/>
        </g>
      </g>
    </g>
  </g>
</svg>